# Blender v2.79 (sub 0) OBJ File: ''
# www.blender.org
mtllib petal_low90.mtl
o 12973_anemone_flower
v 5.957900 5.893600 12.905708
v 1.024292 -1.632460 0.424337
v 1.448545 -2.265012 0.467872
v 0.559858 -2.258908 0.500297
v 0.910005 -2.725334 0.491565
v 1.820567 -2.832463 0.322706
v 1.003450 -4.269933 0.079012
v 0.279961 -4.778616 -0.248641
v 2.236194 -4.413464 0.050708
v 1.278305 -4.901735 -0.417671
v 2.120077 -4.665742 -0.129434
v 1.269021 -5.430696 -1.206187
v 1.683427 -5.227178 -0.948718
v -0.142596 -0.011472 0.026843
v -0.100062 -1.610088 0.420591
v -0.782318 -2.226641 0.463933
v -1.005676 -3.160317 0.348135
v 0.225634 -2.792180 0.432793
v -0.238545 -4.069879 0.278506
v -0.835379 -4.376971 0.070029
v -0.060362 -4.410834 0.130172
v -0.011198 -5.426314 -1.079802
v -1.312122 -4.922956 -0.424656
v -1.250288 -5.467824 -1.065834
v -0.504607 -5.666297 -1.463858
v -1.037231 -1.413222 0.349606
v -1.632587 -1.998881 0.387655
v -2.124019 -2.583744 0.325588
v -2.498334 -3.391475 0.164511
v -2.589323 -3.565913 0.206825
v -2.563453 -3.776951 0.184747
v -1.905302 -3.816586 0.067531
v -1.988031 -4.265410 -0.118593
v -1.892514 -4.667350 -0.375123
v -1.787592 -5.198422 -1.007917
v 0.975687 -3.785756 0.186989
v 0.872073 -5.645004 -1.334314
v 2.169262 -3.918203 0.247440
v -1.496035 -5.494116 -1.243965
v 1.982805 -4.980105 -0.540452
v 0.565597 -0.804634 0.206020
v 0.852381 -2.423832 0.483908
v 0.961189 -2.882531 0.422105
v 2.015956 -3.297596 0.203602
v 2.152641 -3.934383 0.214756
v 1.034472 -4.280076 0.029547
v 0.995946 -3.770806 0.159157
v 2.104655 -3.633099 0.181423
v 2.241072 -4.289831 0.083206
v 0.628176 -4.739424 -0.265008
v 1.909474 -4.679543 -0.212839
v 1.196744 -4.922359 -0.477891
v 0.064927 -1.224868 0.310655
v 1.136098 -1.818512 0.436931
v -0.940221 -2.260482 0.430629
v -1.165774 -2.864929 0.361094
v 0.139655 -2.686574 0.415856
v -0.661523 -3.946583 0.219787
v -0.123809 -4.006901 0.254279
v -0.281605 -4.352944 0.140200
v -0.111646 -4.766448 -0.246785
v -1.306723 -4.752944 -0.297296
v -0.921902 -1.262500 0.292499
v -0.137559 -0.017665 0.001318
v -2.018789 -2.391740 0.339740
v -2.282273 -3.764252 0.081151
v -1.935333 -3.966292 -0.005564
v -1.921715 -4.631031 -0.385526
v -2.534904 -4.291532 -0.130322
v -2.243569 -4.856870 -0.619833
v -2.467112 -4.585649 -0.404691
v -1.993603 -5.099697 -0.897318
v -0.018203 -5.964045 -1.786341
v 1.133009 -5.548417 -1.272845
v -1.237318 -5.620649 -1.285354
v 0.171519 -0.008486 -0.018837
v 0.182404 -0.015309 0.013794
v -0.731171 -5.647499 -1.361799
v -0.907386 -5.583537 -1.266914
v 0.628369 -5.860154 -1.556833
vt 0.436747 0.629910
vt 0.450586 0.651987
vt 0.415739 0.648444
vt 0.465144 0.632609
vt 0.480393 0.616308
vt 0.449673 0.618287
vt 0.499782 0.581093
vt 0.455692 0.586339
vt 0.459229 0.567091
vt 0.496364 0.591824
vt 0.489516 0.603665
vt 0.497024 0.551968
vt 0.501233 0.560855
vt 0.471211 0.534904
vt 0.486264 0.519566
vt 0.474794 0.501237
vt 0.394211 0.623573
vt 0.426003 0.611502
vt 0.418497 0.571707
vt 0.385886 0.507812
vt 0.401854 0.488153
vt 0.439204 0.536190
vt 0.411840 0.484245
vt 0.431132 0.473630
vt 0.429023 0.500519
vt 0.383135 0.653404
vt 0.365379 0.629923
vt 0.392187 0.597162
vt 0.356312 0.614495
vt 0.337586 0.578119
vt 0.338770 0.571746
vt 0.361369 0.572661
vt 0.398386 0.556143
vt 0.342553 0.554556
vt 0.360474 0.557888
vt 0.362703 0.539917
vt 0.356185 0.515987
vt 0.363904 0.509112
vt 0.418951 0.702473
vt 0.423760 0.556992
vt 0.453843 0.484207
vt 0.383103 0.532596
vt 0.345046 0.542143
vt 0.350900 0.529451
vt 0.493193 0.536428
vt 0.078697 0.623710
vt 0.059778 0.640526
vt 0.036549 0.610329
vt 0.044638 0.586606
vt 0.023973 0.591927
vt 0.039579 0.571277
vt 0.013064 0.572055
vt 0.034857 0.543162
vt 0.005751 0.559395
vt 0.034269 0.524474
vt -0.006777 0.526805
vt 0.046874 0.504648
vt -0.001598 0.540018
vt 0.009166 0.480908
vt 0.025136 0.494607
vt 0.003295 0.509850
vt 0.018907 0.468703
vt 0.103269 0.584731
vt 0.076309 0.445082
vt 0.094822 0.452609
vt 0.071560 0.496460
vt 0.059946 0.435848
vt 0.109070 0.619488
vt 0.126454 0.594726
vt 0.108451 0.564937
vt 0.136696 0.576539
vt 0.133227 0.525513
vt 0.089019 0.532881
vt 0.076495 0.516692
vt 0.105405 0.497537
vt 0.151292 0.511195
vt 0.130043 0.498400
vt 0.070778 0.572928
vt 0.029174 0.456574
vt 0.038533 0.444428
vt 0.021212 0.463153
vt 0.126484 0.468469
vt 0.114383 0.457498
vt 0.147419 0.498318
vt 0.151806 0.543991
vt 0.144921 0.531647
vt 0.001046 0.495695
vt -0.004053 0.510801
vt 0.395338 0.492576
vt 0.408726 0.701624
vt 0.397900 0.679700
vt 0.086371 0.665089
vt 0.104400 0.628600
vt 0.119700 0.604300
vt 0.385981 0.492799
vt 0.002276 0.551742
vt -0.003555 0.540360
vt -0.006869 0.522354
vt 0.462872 0.492943
vt 0.471382 0.497638
vt 0.501837 0.565326
vt 0.373194 0.498953
vt 0.339976 0.587009
vt 0.139168 0.483616
vt 0.069320 0.531870
vt 0.155315 0.531807
vt 0.105329 0.453920
vt 0.074306 0.665353
vt 0.039891 0.613661
vt 0.082517 0.666707
vt 0.076166 0.666156
vt 0.087630 0.449111
vt 0.357945 0.620813
vt 0.143100 0.565750
vt 0.155658 0.538462
vt 0.414130 0.703448
vt 0.501100 0.573000
vt 0.132864 0.473567
vn -0.0181 0.0211 0.9996
vn 0.4630 0.3805 0.8005
vn -0.0171 0.1742 0.9846
vn 0.6404 0.7630 0.0885
vn 0.9876 0.1340 -0.0822
vn 0.0334 -0.1542 0.9875
vn 0.8089 0.0370 0.5868
vn 0.0389 -0.1942 0.9802
vn -0.0005 -0.3896 0.9210
vn 0.5951 0.7930 -0.1306
vn 0.9335 0.3553 -0.0480
vn 0.8234 -0.5619 -0.0795
vn 0.8586 -0.4036 0.3161
vn 0.0283 -0.7731 0.6336
vn 0.5496 -0.4496 -0.7041
vn 0.6629 -0.1437 -0.7348
vn -0.0532 0.0029 0.9986
vn -0.0205 -0.1437 0.9894
vn -0.0088 -0.2811 0.9597
vn -0.1386 -0.7917 0.5950
vn -0.4342 -0.7850 -0.4419
vn 0.0290 -0.7257 0.6874
vn 0.1512 -0.4700 -0.8696
vn -0.4896 -0.5178 -0.7016
vn -0.0126 -0.7871 0.6167
vn -0.3496 0.4373 0.8286
vn -0.9320 0.3624 -0.0086
vn -0.0920 -0.1601 0.9828
vn -0.8152 0.3000 0.4955
vn -0.9071 0.2601 0.3308
vn -0.8700 -0.4393 0.2239
vn -0.0321 -0.2769 0.9604
vn -0.1262 -0.5005 0.8565
vn -0.9742 -0.2104 -0.0816
vn -0.0553 -0.4822 0.8743
vn -0.1328 -0.6568 0.7423
vn -0.6768 -0.4611 -0.5739
vn -0.7009 -0.2569 -0.6654
vn 0.5339 0.7005 0.4735
vn 0.0049 -0.5537 0.8327
vn 0.6450 -0.5580 -0.5221
vn -0.1458 -0.6857 0.7132
vn -0.9932 0.0208 -0.1145
vn -0.7385 -0.6580 -0.1476
vn -0.8447 0.4872 0.2217
vn 0.0124 -0.2123 -0.9771
vn -0.0859 -0.2760 -0.9573
vn 0.0336 -0.0797 -0.9962
vn -0.0058 0.0389 -0.9992
vn -0.0338 0.2073 -0.9777
vn -0.0405 0.2031 -0.9783
vn -0.0163 0.4143 -0.9100
vn 0.9560 0.2520 -0.1499
vn -0.0424 0.6883 -0.7242
vn 0.4739 0.2690 -0.8385
vn -0.0411 0.7521 -0.6578
vn 0.1695 0.6385 -0.7507
vn 0.0358 0.0052 -0.9993
vn -0.4638 -0.0046 -0.8859
vn -0.0051 0.7351 -0.6780
vn -0.3864 0.0709 -0.9196
vn 0.0914 0.1491 -0.9846
vn -0.4039 0.9133 0.0526
vn 0.0294 0.3512 -0.9359
vn 0.1188 0.2421 -0.9629
vn 0.0395 0.4921 -0.8696
vn 0.1442 0.6449 -0.7505
vn 0.1362 0.6426 -0.7540
vn 0.0225 0.1435 -0.9894
vn 0.7327 -0.2976 -0.6121
vn 0.3703 -0.5247 -0.7665
vn -0.5849 -0.3365 -0.7380
vn -0.7037 0.7089 0.0467
vn -0.2807 -0.0485 -0.9586
vn -0.4345 0.8024 0.4091
vn -0.3647 0.5056 -0.7819
vn -0.1687 -0.6563 -0.7354
vn -0.0146 0.2233 -0.9747
vn 0.3444 0.6345 -0.6920
usemtl 12973_anemone_flower
s 1
f 4/1/1 2/2/2 15/3/3
f 2/2/2 4/1/1 3/4/4
f 6/5/5 3/4/4 5/6/6
f 38/7/7 36/8/8 7/9/9
f 36/8/8 48/10/10 44/11/11
f 11/12/12 9/13/13 10/14/14
f 7/9/9 9/13/13 38/7/7
f 13/15/15 10/14/14 12/16/16
f 15/3/3 16/17/17 4/1/1
f 4/1/1 16/17/17 18/18/18
f 18/18/18 16/17/17 19/19/19
f 24/20/20 78/21/21 8/22/22
f 25/23/23 73/24/24 22/25/25
f 16/17/17 26/26/26 27/27/27
f 17/28/28 16/17/17 28/29/29
f 30/30/30 31/31/31 32/32/32
f 19/19/19 32/32/32 20/33/33
f 32/32/32 17/28/28 28/29/29
f 69/34/34 33/35/35 31/31/31
f 33/35/35 69/34/34 34/36/36
f 34/36/36 72/37/37 35/38/38
f 77/39/39 15/3/3 2/2/2
f 18/18/18 5/6/6 4/1/1
f 5/6/6 18/18/18 36/8/8
f 36/8/8 18/18/18 19/19/19
f 21/40/40 8/22/22 7/9/9
f 80/41/41 22/25/25 73/24/24
f 25/23/23 22/25/25 78/21/21
f 78/21/21 22/25/25 8/22/22
f 23/42/42 34/36/36 24/20/20
f 71/43/43 70/44/44 69/34/34
f 40/45/45 11/12/12 13/15/15
f 53/46/46 41/47/47 54/48/48
f 42/49/49 54/48/48 3/50/4
f 43/51/50 42/49/49 6/52/5
f 47/53/51 6/52/5 44/54/11
f 46/55/52 49/56/53 50/57/54
f 49/56/53 46/55/52 45/58/55
f 13/59/15 52/60/56 51/61/57
f 52/60/56 13/59/15 12/62/16
f 54/48/48 42/49/49 55/63/58
f 25/64/23 79/65/59 61/66/60
f 73/67/24 25/64/23 61/66/60
f 63/68/61 54/48/48 27/69/27
f 54/48/48 63/68/61 53/46/46
f 55/63/58 56/70/62 65/71/63
f 67/72/64 58/73/65 60/74/66
f 56/70/62 67/72/64 65/71/63
f 60/74/66 62/75/67 67/72/64
f 69/76/34 67/72/64 68/77/68
f 57/78/69 42/49/49 43/51/50
f 43/51/50 47/53/51 57/78/69
f 50/57/54 60/74/66 46/55/52
f 37/79/70 80/80/41 52/60/56
f 12/62/16 74/81/71 52/60/56
f 73/67/24 50/57/54 52/60/56
f 35/82/38 68/77/68 39/83/72
f 68/77/68 71/84/43 69/76/34
f 29/85/73 67/72/64 66/86/74
f 40/87/45 51/61/57 11/88/12
f 51/61/57 40/87/45 13/59/15
f 79/89/59 78/21/21 24/20/20
f 26/26/26 14/90/75 64/91/76
f 64/92/76 63/68/61 26/93/26
f 63/68/61 27/69/27 26/94/26
f 75/95/77 79/89/59 24/20/20
f 45/58/55 48/96/10 38/97/7
f 49/56/53 9/98/13 11/88/12
f 3/4/4 4/1/1 5/6/6
f 36/8/8 44/11/11 6/5/5
f 6/5/5 5/6/6 36/8/8
f 38/7/7 48/10/10 36/8/8
f 7/9/9 8/22/22 9/13/13
f 10/14/14 9/13/13 8/22/22
f 13/15/15 11/12/12 10/14/14
f 17/28/28 19/19/19 16/17/17
f 20/33/33 21/40/40 19/19/19
f 23/42/42 33/35/35 34/36/36
f 14/90/75 26/26/26 15/3/3
f 16/17/17 15/3/3 26/26/26
f 28/29/29 16/17/17 27/27/27
f 19/19/19 17/28/28 32/32/32
f 20/33/33 32/32/32 33/35/35
f 21/40/40 36/8/8 19/19/19
f 32/32/32 31/31/31 33/35/35
f 70/44/44 72/37/37 34/36/36
f 77/39/39 14/90/75 15/3/3
f 10/14/14 22/25/25 80/41/41
f 37/99/70 10/14/14 80/41/41
f 35/38/38 24/20/20 34/36/36
f 37/99/70 74/100/71 10/14/14
f 12/16/16 10/14/14 74/100/71
f 8/22/22 23/42/42 24/20/20
f 38/7/7 9/13/13 49/101/53
f 56/70/62 57/78/69 58/73/65
f 75/95/77 24/20/20 39/102/72
f 34/36/36 69/34/34 70/44/44
f 29/103/73 30/30/30 32/32/32
f 29/103/73 32/32/32 28/29/29
f 20/33/33 8/22/22 21/40/40
f 6/52/5 42/49/49 3/50/4
f 47/53/51 43/51/50 6/52/5
f 45/58/55 46/55/52 47/53/51
f 47/53/51 48/96/10 45/58/55
f 47/53/51 44/54/11 48/96/10
f 51/61/57 52/60/56 49/56/53
f 50/57/54 49/56/53 52/60/56
f 35/82/38 70/104/44 71/84/43
f 55/63/58 42/49/49 57/78/69
f 57/78/69 59/105/78 58/73/65
f 60/74/66 58/73/65 59/105/78
f 60/74/66 61/66/60 62/75/67
f 53/46/46 63/68/61 64/92/76
f 27/69/27 54/48/48 55/63/58
f 55/63/58 65/71/63 27/69/27
f 29/85/73 66/86/74 31/106/31
f 56/70/62 58/73/65 67/72/64
f 68/77/68 67/72/64 62/75/67
f 69/76/34 31/106/31 67/72/64
f 66/86/74 67/72/64 31/106/31
f 59/105/78 46/55/52 60/74/66
f 68/77/68 35/82/38 71/84/43
f 47/53/51 59/105/78 57/78/69
f 62/75/67 79/65/59 75/107/77
f 60/74/66 50/57/54 61/66/60
f 52/60/56 80/80/41 73/67/24
f 37/79/70 52/60/56 74/81/71
f 61/66/60 50/57/54 73/67/24
f 62/75/67 75/107/77 68/77/68
f 39/83/72 68/77/68 75/107/77
f 65/71/63 67/72/64 29/85/73
f 49/56/53 11/88/12 51/61/57
f 54/48/48 77/108/39 2/109/2
f 54/48/48 41/47/47 77/108/39
f 3/50/4 54/48/48 2/109/2
f 14/110/75 76/111/79 64/92/76
f 25/64/23 78/112/21 79/65/59
f 65/113/63 28/29/29 27/27/27
f 29/85/73 28/114/29 65/71/63
f 31/106/31 30/115/30 29/85/73
f 76/116/79 14/90/75 77/39/39
f 38/7/7 49/101/53 45/117/55
f 53/46/46 76/111/79 41/47/47
f 53/46/46 64/92/76 76/111/79
f 76/111/79 77/108/39 41/47/47
f 23/42/42 20/33/33 33/35/35
f 21/40/40 7/9/9 36/8/8
f 10/14/14 8/22/22 22/25/25
f 35/38/38 39/102/72 24/20/20
f 56/70/62 55/63/58 57/78/69
f 20/33/33 23/42/42 8/22/22
f 35/82/38 72/118/37 70/104/44
f 59/105/78 47/53/51 46/55/52
f 62/75/67 61/66/60 79/65/59
