# Blender v2.79 (sub 0) OBJ File: ''
# www.blender.org
mtllib stem_lower.mtl
o 12973_anemone_flower
v -0.071797 -19.229359 0.158483
v -0.111614 -19.200651 -0.030062
v 0.074390 -19.194994 -0.067706
v 0.112421 -19.223843 0.123590
v -0.175388 -10.948665 -0.005295
v -0.019829 -10.908176 -0.124599
v -0.090587 -10.973668 0.187315
v 0.114763 -10.968124 0.153670
v 0.074211 -10.779486 0.196579
v 0.098898 -10.675542 0.182663
v -0.047658 -10.680779 0.222755
v 0.122173 -10.601211 -0.078045
v 0.151586 -10.589346 -0.015166
v 0.140049 -10.971188 -0.031233
v 0.097620 -10.603209 -0.103412
v -0.192461 0.028325 0.077344
v -0.041371 0.004118 0.247689
v -0.145375 0.056078 -0.107030
v 0.110442 0.062272 -0.134469
v 0.189774 0.020184 0.120855
v 0.057800 -10.672920 0.201191
vt 0.939935 0.860454
vt 0.937772 0.868775
vt 0.922446 0.867742
vt 0.927580 0.857305
vt 0.932655 0.856723
vt 0.919812 0.870432
vt 0.924140 0.872059
vt 0.423901 0.875996
vt 0.934735 0.854139
vt 0.943585 0.856448
vt 0.425971 0.909529
vt 0.425205 0.898909
vt 0.941316 0.895121
vt 0.936007 0.877914
vt 0.937875 0.886470
vt 0.425265 0.862776
vt 0.922421 0.852524
vt 0.388576 0.895506
vt 0.371929 0.895752
vt 0.380183 0.888245
vt 0.383863 0.905413
vt 0.375292 0.905326
vt 0.244774 0.942481
vt 0.627193 0.953986
vt 0.243786 0.952063
vt 0.245836 0.934983
vt 0.628168 0.943964
vt 0.246194 0.930833
vt 0.932200 0.855900
vt 0.928825 0.899737
vt 0.425434 0.853185
vt 0.424175 0.889380
vt 0.627218 0.963631
vt 0.627909 0.973507
vt 0.244407 0.961074
vt 0.245421 0.970497
vt 0.628600 0.938100
vn 0.7284 -0.0524 0.6832
vn 0.9013 -0.0400 -0.4313
vn 0.9890 -0.0073 -0.1476
vn 0.7009 0.0240 0.7128
vn 0.3338 -0.1281 0.9339
vn 0.8167 -0.0022 -0.5770
vn 0.5477 -0.0121 -0.8366
vn 0.4339 0.6429 -0.6312
vn -0.2010 -0.0316 0.9791
vn -0.4960 -0.0419 0.8673
vn -0.1388 0.5251 0.8396
vn -0.7659 0.5958 0.2418
vn -0.0974 -0.0324 -0.9947
vn -0.9681 -0.0009 -0.2505
vn 0.7600 0.5511 0.3446
vn -0.5262 0.6400 -0.5599
vn 0.5833 -0.0111 -0.8122
vn 0.7943 -0.0068 0.6075
vn 0.1937 -0.0167 0.9809
vn -0.8640 -0.0120 -0.5033
vn -0.5206 -0.0076 0.8538
usemtl 12973_anemone_flower
s 1
f 8/1/1 14/2/2 13/3/3
f 8/1/1 10/4/4 9/5/5
f 12/6/6 15/7/7 19/8/8
f 15/7/7 13/3/3 14/2/2
f 8/1/1 11/9/9 7/10/10
f 9/5/5 11/9/9 8/1/1
f 17/11/11 16/12/12 7/13/10
f 6/14/13 5/15/14 19/8/8
f 8/1/1 20/16/15 10/4/4
f 20/16/15 11/17/9 10/4/4
f 19/18/8 17/19/11 20/20/15
f 19/18/8 18/21/16 17/19/11
f 18/21/16 16/22/12 17/19/11
f 20/16/15 13/3/3 19/8/8
f 13/3/3 20/16/15 8/1/1
f 14/23/2 3/24/17 6/25/13
f 8/26/1 4/27/18 14/23/2
f 7/28/10 4/27/18 8/26/1
f 6/14/13 19/8/8 15/7/7
f 6/14/13 15/7/7 14/2/2
f 9/5/5 21/29/19 11/9/9
f 7/13/10 11/30/9 17/11/11
f 7/13/10 16/12/12 5/15/14
f 12/6/6 19/8/8 13/3/3
f 17/31/11 11/17/9 20/16/15
f 16/12/12 18/32/16 5/15/14
f 19/8/8 5/15/14 18/32/16
f 2/33/20 1/34/21 5/35/14
f 7/36/10 5/35/14 1/34/21
f 3/24/17 2/33/20 6/25/13
f 5/35/14 6/25/13 2/33/20
f 14/23/2 4/27/18 3/24/17
f 7/28/10 1/37/21 4/27/18
