# Blender v2.79 (sub 0) OBJ File: ''
# www.blender.org
mtllib large_10_low.mtl
o Grass_20.032
v -0.209861 0.949639 0.039498
v 0.018199 0.000218 0.035919
v -0.019016 0.000200 -0.043561
v -0.209861 0.949639 0.039498
v -0.580263 0.967287 0.250439
v -0.179799 0.966845 0.123288
v -0.580263 0.967287 0.250439
v 0.018199 0.000218 0.035919
v -0.019016 0.000200 -0.043561
v -0.179799 0.966845 0.123288
vt 0.498347 0.999579
vt 0.855096 0.671493
vt 0.148814 0.683035
vt 0.020674 0.137458
vt 0.964928 0.137446
vt 0.855096 0.671493
vt 0.498347 0.999579
vt 0.148814 0.683035
vt 0.020674 0.137458
vt 0.964928 0.137446
vn 0.0565 -0.9818 0.1813
vn -0.8846 -0.2141 0.4143
vn -0.0565 0.9818 -0.1813
vn 0.8846 0.2141 -0.4143
vn -0.9034 -0.2184 0.3690
vn 0.9034 0.2184 -0.3690
usemtl Material.001
s 1
f 5/1/1 4/2/1 6/3/1
f 2/4/2 4/2/2 3/5/2
f 1/6/3 7/7/3 10/8/3
f 1/6/4 8/9/4 9/10/4
f 2/4/5 6/3/5 4/2/5
f 1/6/6 10/8/6 8/9/6
