# Blender v2.79 (sub 0) OBJ File: ''
# www.blender.org
mtllib large_1_low.mtl
o Grass_20.023
v -0.348984 0.829024 0.118237
v 0.004819 0.001170 0.031975
v 0.027574 0.003624 -0.031624
v -0.317694 0.801209 0.049625
v -0.348984 0.829024 0.118237
v -0.737782 1.048572 0.099069
v -0.737782 1.048572 0.099069
v 0.004819 0.001170 0.031975
v 0.027574 0.003624 -0.031624
v -0.317694 0.801209 0.049625
vt 0.493985 1.003943
vt 0.892580 0.614714
vt 0.136501 0.649722
vt 0.963013 0.137096
vt 0.892580 0.614714
vt 0.493985 1.003943
vt 0.136501 0.649722
vt 0.963013 0.137096
vt 0.021187 0.137423
vt 0.021187 0.137423
vn -0.4925 -0.8613 0.1246
vn -0.8237 -0.5456 -0.1544
vn -0.6569 -0.7540 0.0061
vn -0.8951 -0.3608 -0.2619
vn 0.8237 0.5456 0.1544
vn 0.4925 0.8613 -0.1246
vn 0.6569 0.7540 -0.0061
vn 0.8951 0.3608 0.2619
vn -0.8805 -0.3421 -0.3282
vn 0.8805 0.3421 0.3282
usemtl Material.001
s 1
f 6/1/1 4/2/2 5/3/3
f 3/4/4 5/3/3 4/2/2
f 10/5/5 7/6/6 1/7/7
f 1/7/7 9/8/8 10/5/5
f 2/9/9 5/3/9 3/4/9
f 9/8/10 1/7/10 8/10/10
