# Blender v2.79 (sub 0) OBJ File: ''
# www.blender.org
mtllib large_8_low.mtl
o Grass_20.030
v -0.023559 0.000001 0.020326
v 0.048907 0.782652 -0.017454
v -0.024018 0.525434 0.029332
v 0.059805 0.956352 0.077627
v 0.228268 1.197275 0.156962
v 0.435818 1.152584 0.244168
v 0.024446 0.000004 -0.019686
v 0.284609 1.199739 0.130514
v -0.023559 0.000001 0.020326
v 0.024446 0.000004 -0.019686
v 0.048907 0.782652 -0.017454
v 0.059805 0.956352 0.077627
v -0.024018 0.525434 0.029332
v 0.228268 1.197275 0.156962
v 0.345904 1.182959 0.185650
vt 0.504443 0.998386
vt 0.806781 0.770286
vt 0.212612 0.788369
vt 0.054842 0.399241
vt 0.930628 0.517568
vt 0.931978 0.235003
vt 0.930628 0.517568
vt 0.054842 0.399241
vt 0.931978 0.235003
vt 0.806781 0.770286
vt 0.968317 0.002013
vt 0.014441 0.002013
vt 0.014441 0.002013
vt 0.968317 0.002013
vt 0.337976 0.878587
vn -0.0889 -0.9563 -0.2785
vn 0.9167 -0.1966 0.3480
vn 0.9350 -0.2136 0.2831
vn 0.6372 -0.0395 0.7697
vn 0.3126 -0.4800 0.8197
vn 0.3761 -0.4928 0.7847
vn 0.2854 -0.4739 0.8330
vn -0.9350 0.2136 -0.2831
vn -0.9167 0.1966 -0.3480
vn -0.6372 0.0395 -0.7697
vn 0.2069 0.3019 -0.9306
vn -0.0777 0.4149 -0.9065
vn -0.2854 0.4739 -0.8330
vn 0.6402 -0.0126 0.7681
vn 0.6356 -0.0134 0.7719
vn 0.3869 -0.4947 0.7782
vn -0.6356 0.0134 -0.7719
vn -0.6402 0.0126 -0.7681
vn 0.2593 0.2770 -0.9252
usemtl Material.001
s 1
f 6/1/1 5/2/1 8/3/1
f 2/4/2 4/5/3 3/6/4
f 2/4/5 5/2/6 4/5/7
f 12/7/8 11/8/9 13/9/10
f 14/10/11 11/8/12 12/7/13
f 3/6/4 1/11/14 7/12/15
f 3/6/4 7/12/15 2/4/2
f 2/4/5 8/3/16 5/2/6
f 10/13/17 9/14/18 13/9/10
f 11/8/9 10/13/17 13/9/10
f 14/10/11 15/15/19 11/8/12
