# Blender v2.79 (sub 0) OBJ File: ''
# www.blender.org
mtllib large_7_low.mtl
o Grass_20.029
v 0.000363 -0.000118 -0.000223
v -0.040540 0.387143 0.001473
v -0.012082 0.474178 -0.058539
v -0.155477 0.920990 -0.184147
v -0.344688 1.059709 -0.340241
v -0.160740 0.870694 -0.125613
v -0.012082 0.474178 -0.058539
v 0.000363 -0.000118 -0.000223
v -0.040540 0.387143 0.001473
v -0.155477 0.920990 -0.184147
v -0.344688 1.059709 -0.340241
v -0.160740 0.870694 -0.125613
vt 0.833702 0.751517
vt 0.491667 0.995081
vt 0.124833 0.702698
vt 0.921544 0.342305
vt 0.491667 0.995081
vt 0.833703 0.751517
vt 0.124833 0.702699
vt 0.921544 0.342305
vt 0.038109 0.261307
vt 0.491315 0.002013
vt 0.491315 0.002013
vt 0.038109 0.261307
vn 0.2175 0.7324 0.6452
vn 0.0171 0.7576 0.6525
vn 0.7138 0.4962 0.4943
vn 0.8331 0.3803 0.4017
vn -0.0171 -0.7576 -0.6525
vn -0.2185 -0.7320 -0.6453
vn -0.7131 -0.4969 -0.4946
vn -0.8331 -0.3803 -0.4017
vn 0.6238 0.2951 0.7237
vn 0.8013 0.1392 0.5818
vn 0.8454 0.0870 0.5270
vn 0.5605 0.3380 0.7560
vn -0.8454 -0.0870 -0.5270
vn -0.8013 -0.1392 -0.5818
vn -0.6238 -0.2951 -0.7237
vn -0.5605 -0.3380 -0.7560
usemtl Material.001
s 1
f 4/1/1 5/2/2 6/3/3
f 6/3/3 3/4/4 4/1/1
f 11/5/5 10/6/6 12/7/7
f 7/8/8 12/7/7 10/6/6
f 3/4/9 2/9/10 1/10/11
f 6/3/12 2/9/10 3/4/9
f 8/11/13 9/12/14 7/8/15
f 7/8/15 9/12/14 12/7/16
