# Blender v2.79 (sub 0) OBJ File: ''
# www.blender.org
mtllib large_10.mtl
o Grass_20.016
v -0.212137 0.872814 0.089267
v -0.201121 0.879288 0.109211
v -0.139951 0.763500 0.083561
v -0.151681 0.759510 0.062795
v -0.187669 0.879840 0.127337
v -0.127297 0.765498 0.103445
v -0.261139 0.955860 0.133211
v -0.247375 0.958146 0.149099
v -0.271165 0.952074 0.115109
v 0.001937 0.000000 0.019097
v -0.000277 0.104088 0.020969
v -0.011371 0.103914 0.001337
v -0.007735 0.000000 -0.000295
v -0.006061 0.213594 0.024287
v -0.017761 0.211794 0.004145
v 0.012257 0.106530 0.039851
v 0.006989 0.219120 0.043697
v 0.013571 -0.000000 0.037565
v -0.031507 0.329022 0.010169
v -0.037723 0.331536 -0.013141
v -0.024673 0.213594 -0.018205
v -0.044785 0.343134 -0.035971
v -0.030163 0.219120 -0.041143
v -0.064501 0.467766 -0.001789
v -0.072049 0.483936 -0.024811
v -0.057199 0.462138 0.021425
v -0.098455 0.613842 0.039491
v -0.104833 0.619572 0.015737
v -0.112111 0.628926 -0.007279
v -0.159025 0.763500 0.040007
v -0.165139 0.765498 0.017021
v -0.151681 0.759510 0.062795
v -0.212137 0.872814 0.089267
v -0.219361 0.879288 0.067553
v -0.223645 0.879840 0.045185
v -0.277705 0.955860 0.095381
v -0.280129 0.958146 0.074303
v -0.271165 0.952074 0.115109
v -0.322945 0.999078 0.137783
v -0.329767 1.003998 0.121247
v -0.338467 1.003368 0.106427
v -0.389503 1.019124 0.152057
v -0.402559 1.018476 0.143603
v -0.382513 1.017282 0.163871
v -0.461647 1.010700 0.198521
v -0.466165 1.011990 0.191189
v -0.466789 1.011594 0.181517
v -0.542695 0.986256 0.230123
v -0.524095 0.992676 0.215399
v -0.536401 0.989022 0.231263
v -0.567175 0.975042 0.244721
v -0.564493 0.974214 0.246233
v -0.577849 0.966840 0.249383
v -0.539851 0.986256 0.236609
v -0.516475 0.992676 0.232811
v -0.322945 0.999078 0.137783
v -0.315457 1.003998 0.153923
v -0.310549 1.003368 0.170189
v -0.378613 1.019124 0.176927
v -0.381331 1.018476 0.192077
v -0.382513 1.017282 0.163871
v -0.018307 0.104088 -0.020209
v -0.015445 0.000000 -0.020599
v -0.023767 0.106530 -0.042403
v -0.021193 0.000000 -0.041821
v -0.018631 0.331536 0.030449
v -0.045133 0.467766 0.042437
v -0.006733 0.343134 0.050933
v -0.033415 0.483936 0.063401
v -0.085363 0.619572 0.060197
v -0.139951 0.763500 0.083561
v -0.073471 0.628926 0.080957
v -0.127297 0.765498 0.103445
v -0.201121 0.879288 0.109211
v -0.261139 0.955860 0.133211
v -0.187669 0.879840 0.127337
v -0.247375 0.958146 0.149099
v -0.315457 1.003998 0.153923
v -0.378613 1.019124 0.176927
v -0.310549 1.003368 0.170189
v -0.381331 1.018476 0.192077
v -0.459355 1.011990 0.206735
v -0.452743 1.011594 0.213587
v -0.566479 0.974214 0.241697
v -0.461647 1.010700 0.198521
v -0.459355 1.011990 0.206735
v -0.452743 1.011594 0.213587
v -0.539851 0.986256 0.236609
v -0.516475 0.992676 0.232811
v -0.536401 0.989022 0.231263
v 0.001937 0.000000 0.019097
v -0.000277 0.104088 0.020969
v 0.012257 0.106530 0.039851
v 0.013571 -0.000000 0.037565
v -0.006061 0.213594 0.024287
v 0.006989 0.219120 0.043697
v -0.011371 0.103914 0.001337
v -0.017761 0.211794 0.004145
v -0.007735 0.000000 -0.000295
v -0.031507 0.329022 0.010169
v -0.037723 0.331536 -0.013141
v -0.064501 0.467766 -0.001789
v -0.057199 0.462138 0.021425
v -0.044785 0.343134 -0.035971
v -0.072049 0.483936 -0.024811
v -0.024673 0.213594 -0.018205
v -0.030163 0.219120 -0.041143
v -0.098455 0.613842 0.039491
v -0.104833 0.619572 0.015737
v -0.159025 0.763500 0.040007
v -0.112111 0.628926 -0.007279
v -0.165139 0.765498 0.017021
v -0.219361 0.879288 0.067553
v -0.277705 0.955860 0.095381
v -0.223645 0.879840 0.045185
v -0.280129 0.958146 0.074303
v -0.329767 1.003998 0.121247
v -0.389503 1.019124 0.152057
v -0.338467 1.003368 0.106427
v -0.402559 1.018476 0.143603
v -0.466165 1.011990 0.191189
v -0.542695 0.986256 0.230123
v -0.466789 1.011594 0.181517
v -0.524095 0.992676 0.215399
v -0.567175 0.975042 0.244721
v -0.564493 0.974214 0.246233
v -0.577849 0.966840 0.249383
v -0.566479 0.974214 0.241697
v -0.018307 0.104088 -0.020209
v -0.023767 0.106530 -0.042403
v -0.015445 0.000000 -0.020599
v -0.021193 0.000000 -0.041821
v -0.018631 0.331536 0.030449
v -0.006733 0.343134 0.050933
v -0.045133 0.467766 0.042437
v -0.033415 0.483936 0.063401
v -0.085363 0.619572 0.060197
v -0.073471 0.628926 0.080957
vt 0.498022 0.619264
vt 0.271518 0.556360
vt 0.498022 0.556360
vt 0.072837 0.619264
vt 0.285429 0.619264
vt 0.100660 0.682167
vt 0.299341 0.682167
vt 0.498022 0.682167
vt 0.259430 0.137438
vt 0.498022 0.181323
vt 0.498022 0.137438
vt 0.262113 0.181323
vt 0.498022 0.225207
vt 0.026204 0.181323
vt 0.264796 0.225207
vt 0.020838 0.137438
vt 0.498022 0.285232
vt 0.727540 0.225207
vt 0.727022 0.285232
vt 0.957058 0.225207
vt 0.726504 0.345256
vt 0.956023 0.285232
vt 0.498022 0.345256
vt 0.498022 0.450808
vt 0.726504 0.450808
vt 0.954987 0.345256
vt 0.726504 0.556360
vt 0.954987 0.450808
vt 0.498022 0.556360
vt 0.498022 0.619264
vt 0.927163 0.619264
vt 0.712592 0.619264
vt 0.899340 0.682167
vt 0.698681 0.682167
vt 0.498022 0.682167
vt 0.498022 0.753113
vt 0.836255 0.753113
vt 0.667138 0.753113
vt 0.635596 0.824059
vt 0.498022 0.824059
vt 0.498022 0.897481
vt 0.578270 0.897481
vt 0.773170 0.824059
vt 0.543866 0.970902
vt 0.520944 0.970902
vt 0.498022 0.970902
vt 0.498022 0.984444
vt 0.477078 0.984444
vt 0.498022 0.997987
vt 0.477078 0.970902
vt 0.456134 0.970902
vt 0.498022 0.753113
vt 0.163745 0.753113
vt 0.330884 0.753113
vt 0.362426 0.824059
vt 0.498022 0.824059
vt 0.731150 0.137438
vt 0.729345 0.181323
vt 0.964279 0.137438
vt 0.960669 0.181323
vt 0.268157 0.285232
vt 0.038292 0.285232
vt 0.271518 0.345256
vt 0.031570 0.225207
vt 0.271518 0.450808
vt 0.045013 0.450808
vt 0.271518 0.556360
vt 0.045013 0.345256
vt 0.285429 0.619264
vt 0.100660 0.682167
vt 0.299341 0.682167
vt 0.072837 0.619264
vt 0.330884 0.753113
vt 0.163745 0.753113
vt 0.362426 0.824059
vt 0.419752 0.897481
vt 0.226830 0.824059
vt 0.520944 0.984444
vt 0.498022 0.897481
vt 0.419752 0.897481
vt 0.226830 0.824059
vt 0.456134 0.970902
vt 0.477078 0.970902
vt 0.498022 0.970902
vt 0.262113 0.181323
vt 0.020838 0.137438
vt 0.259430 0.137438
vt 0.264796 0.225207
vt 0.026204 0.181323
vt 0.498022 0.225207
vt 0.498022 0.181323
vt 0.498022 0.137438
vt 0.727022 0.285232
vt 0.498022 0.345256
vt 0.498022 0.285232
vt 0.956023 0.285232
vt 0.726504 0.345256
vt 0.957058 0.225207
vt 0.727540 0.225207
vt 0.726504 0.450808
vt 0.498022 0.450808
vt 0.954987 0.450808
vt 0.726504 0.556360
vt 0.954987 0.345256
vt 0.712592 0.619264
vt 0.899340 0.682167
vt 0.698681 0.682167
vt 0.927163 0.619264
vt 0.667138 0.753113
vt 0.836255 0.753113
vt 0.635596 0.824059
vt 0.578270 0.897481
vt 0.543866 0.970902
vt 0.520944 0.970902
vt 0.773170 0.824059
vt 0.498022 0.984444
vt 0.477078 0.984444
vt 0.498022 0.997987
vt 0.520944 0.984444
vt 0.729345 0.181323
vt 0.960669 0.181323
vt 0.964279 0.137438
vt 0.731150 0.137438
vt 0.268157 0.285232
vt 0.031570 0.225207
vt 0.271518 0.345256
vt 0.038292 0.285232
vt 0.271518 0.450808
vt 0.045013 0.345256
vt 0.045013 0.450808
vt 0.045013 0.556360
vt 0.954987 0.556360
vt 0.658518 0.897481
vt 0.045013 0.556360
vt 0.341482 0.897481
vt 0.341482 0.897481
vt 0.954987 0.556360
vt 0.658518 0.897481
vn 0.7118 0.4960 -0.4974
vn 0.6952 0.4848 -0.5307
vn 0.5528 0.6109 -0.5668
vn 0.5915 0.6118 -0.5253
vn -0.8942 -0.0383 0.4460
vn -0.8686 -0.0642 0.4914
vn -0.8280 -0.0606 0.5575
vn -0.8458 -0.0276 0.5328
vn -0.9506 -0.1260 0.2838
vn -0.9719 -0.1163 0.2046
vn -0.9596 -0.2047 0.1929
vn -0.9513 -0.2032 0.2318
vn -0.9330 -0.2806 0.2254
vn -0.9552 -0.2682 0.1248
vn -0.9186 -0.3695 0.1403
vn -0.9187 -0.3612 0.1596
vn -0.8480 -0.4961 0.1864
vn -0.8610 -0.4850 0.1529
vn -0.7908 -0.6115 0.0246
vn -0.7869 -0.6119 0.0794
vn -0.6530 -0.7540 0.0718
vn -0.5373 -0.7682 0.3481
vn -0.1730 -0.9745 0.1430
vn -0.3432 -0.9295 -0.1350
vn 0.0117 -0.9869 -0.1608
vn 0.0737 -0.9966 -0.0374
vn 0.3049 -0.9519 -0.0299
vn 0.1594 -0.9508 -0.2655
vn 0.1989 -0.6670 -0.7181
vn 0.0887 -0.7263 -0.6816
vn 0.2902 -0.9134 -0.2854
vn 0.1236 -0.7615 -0.6363
vn 0.4952 0.7538 -0.4319
vn 0.6206 0.7681 -0.1575
vn 0.2227 0.9745 -0.0294
vn 0.1329 0.9292 -0.3449
vn -0.9342 -0.0383 0.3547
vn -0.9649 -0.0275 0.2613
vn -0.9708 -0.0607 0.2322
vn -0.9501 -0.0642 0.3053
vn -0.8150 -0.2032 0.5427
vn -0.7916 -0.2047 0.5757
vn -0.8086 -0.1163 0.5768
vn -0.8529 -0.1260 0.5067
vn -0.7398 -0.3611 0.5677
vn -0.7248 -0.3693 0.5816
vn -0.7380 -0.2680 0.6193
vn -0.7980 -0.2805 0.5334
vn -0.5915 -0.6118 0.5253
vn -0.5528 -0.6109 0.5668
vn -0.6952 -0.4848 0.5307
vn -0.7118 -0.4960 0.4974
vn -0.1329 -0.9292 0.3449
vn -0.2227 -0.9745 0.0294
vn -0.6206 -0.7681 0.1575
vn -0.4952 -0.7538 0.4319
vn 0.3039 -0.9505 0.0645
vn 0.2280 -0.9517 -0.2055
vn 0.0774 -0.9966 -0.0287
vn 0.1265 -0.9868 0.1014
vn 0.4056 -0.9138 -0.0219
vn 0.5595 -0.7328 0.3872
vn 0.6618 -0.6703 0.3358
vn 0.5504 -0.7643 0.3360
vn -0.1265 0.9868 -0.1014
vn -0.0774 0.9966 0.0287
vn -0.2280 0.9517 0.2055
vn -0.3039 0.9505 -0.0645
vn 0.8458 0.0276 -0.5328
vn 0.8280 0.0606 -0.5575
vn 0.8686 0.0642 -0.4914
vn 0.8942 0.0383 -0.4460
vn 0.9513 0.2032 -0.2318
vn 0.9596 0.2047 -0.1929
vn 0.9719 0.1163 -0.2046
vn 0.9506 0.1260 -0.2838
vn 0.9187 0.3612 -0.1596
vn 0.9186 0.3695 -0.1403
vn 0.9552 0.2682 -0.1248
vn 0.9330 0.2806 -0.2254
vn 0.7869 0.6119 -0.0794
vn 0.7908 0.6115 -0.0246
vn 0.8610 0.4850 -0.1529
vn 0.8480 0.4961 -0.1864
vn 0.3432 0.9295 0.1350
vn 0.1730 0.9745 -0.1430
vn 0.5373 0.7682 -0.3481
vn 0.6530 0.7540 -0.0718
vn -0.1594 0.9508 0.2655
vn -0.3049 0.9519 0.0300
vn -0.0737 0.9966 0.0374
vn -0.0117 0.9869 0.1608
vn -0.2902 0.9134 0.2854
vn -0.0887 0.7263 0.6816
vn -0.1989 0.6670 0.7181
vn -0.1236 0.7615 0.6363
vn -0.6618 0.6703 -0.3358
vn -0.5595 0.7329 -0.3872
vn -0.4056 0.9138 0.0219
vn -0.5504 0.7643 -0.3360
vn 0.9501 0.0642 -0.3053
vn 0.9708 0.0607 -0.2322
vn 0.9649 0.0275 -0.2613
vn 0.9342 0.0383 -0.3547
vn 0.8529 0.1260 -0.5067
vn 0.8086 0.1163 -0.5768
vn 0.7916 0.2047 -0.5757
vn 0.8150 0.2032 -0.5427
vn 0.7980 0.2805 -0.5334
vn 0.7380 0.2680 -0.6193
vn 0.7248 0.3693 -0.5816
vn 0.7398 0.3611 -0.5677
vn 0.6901 0.4838 -0.5382
vn 0.7158 0.4833 -0.5041
vn 0.6262 0.6118 -0.4833
vn 0.6155 0.6306 -0.4728
vn -0.8702 -0.0274 0.4920
vn -0.8607 -0.0608 0.5054
vn -0.8208 -0.0578 0.5683
vn -0.8316 -0.0222 0.5549
vn -0.9627 -0.1170 0.2441
vn -0.9640 -0.1235 0.2355
vn -0.9639 -0.2005 0.1752
vn -0.9466 -0.2067 0.2476
vn -0.9437 -0.2724 0.1877
vn -0.9417 -0.2823 0.1830
vn -0.8994 -0.3858 0.2057
vn -0.8991 -0.3763 0.2239
vn -0.8634 -0.4839 0.1430
vn -0.8555 -0.4834 0.1855
vn -0.7794 -0.6121 0.1342
vn -0.7646 -0.6307 0.1324
vn -0.6639 -0.7460 0.0520
vn -0.6175 -0.7864 -0.0143
vn -0.0978 -0.9694 0.2253
vn -0.2477 -0.9688 -0.0045
vn 0.0024 -0.9846 -0.1747
vn 0.1254 -0.9916 0.0325
vn 0.3230 -0.9462 0.0179
vn 0.3776 -0.9158 0.1370
vn 0.4879 0.7457 -0.4537
vn 0.4070 0.7858 -0.4657
vn 0.2326 0.9690 0.0832
vn 0.1644 0.9688 -0.1858
vn -0.9516 -0.0273 0.3061
vn -0.9714 -0.0222 0.2365
vn -0.9740 -0.0578 0.2192
vn -0.9550 -0.0608 0.2904
vn -0.8235 -0.2067 0.5283
vn -0.7812 -0.2004 0.5912
vn -0.8261 -0.1235 0.5498
vn -0.8318 -0.1170 0.5426
vn -0.7739 -0.3762 0.5094
vn -0.7603 -0.3857 0.5226
vn -0.7721 -0.2822 0.5694
vn -0.7774 -0.2724 0.5669
vn -0.6155 -0.6306 0.4728
vn -0.6262 -0.6118 0.4833
vn -0.7158 -0.4833 0.5041
vn -0.6901 -0.4838 0.5382
vn -0.1644 -0.9687 0.1858
vn -0.2326 -0.9690 -0.0832
vn -0.4070 -0.7858 0.4657
vn -0.4879 -0.7457 0.4537
vn 0.1535 -0.9146 -0.3741
vn 0.2047 -0.9458 -0.2522
vn 0.0607 -0.9914 -0.1158
vn 0.1306 -0.9844 0.1182
vn -0.1306 0.9844 -0.1182
vn -0.0607 0.9914 0.1158
vn -0.2047 0.9458 0.2522
vn -0.1535 0.9146 0.3741
vn 0.8316 0.0222 -0.5549
vn 0.8208 0.0578 -0.5683
vn 0.8607 0.0608 -0.5054
vn 0.8702 0.0274 -0.4920
vn 0.9466 0.2067 -0.2476
vn 0.9639 0.2005 -0.1752
vn 0.9640 0.1235 -0.2355
vn 0.9627 0.1170 -0.2441
vn 0.8991 0.3763 -0.2239
vn 0.8994 0.3858 -0.2057
vn 0.9417 0.2823 -0.1830
vn 0.9437 0.2724 -0.1877
vn 0.7646 0.6307 -0.1324
vn 0.7794 0.6121 -0.1342
vn 0.8555 0.4834 -0.1855
vn 0.8634 0.4839 -0.1430
vn 0.2477 0.9688 0.0045
vn 0.0978 0.9694 -0.2253
vn 0.6175 0.7864 0.0143
vn 0.6639 0.7460 -0.0520
vn -0.3776 0.9158 -0.1370
vn -0.3230 0.9462 -0.0179
vn -0.1254 0.9916 -0.0325
vn -0.0024 0.9846 0.1747
vn 0.9550 0.0608 -0.2904
vn 0.9740 0.0578 -0.2192
vn 0.9714 0.0222 -0.2365
vn 0.9516 0.0273 -0.3061
vn 0.8318 0.1170 -0.5426
vn 0.8261 0.1235 -0.5498
vn 0.7812 0.2004 -0.5912
vn 0.8235 0.2067 -0.5283
vn 0.7774 0.2724 -0.5669
vn 0.7721 0.2822 -0.5694
vn 0.7603 0.3857 -0.5226
vn 0.7739 0.3762 -0.5094
usemtl Material.001
s off
f 1/1/1 3/2/1 4/3/1
f 5/4/2 3/2/2 2/5/2
f 8/6/3 2/5/3 7/7/3
f 9/8/4 2/5/4 1/1/4
f 10/9/5 12/10/5 13/11/5
f 11/12/6 15/13/6 12/10/6
f 16/14/7 14/15/7 11/12/7
f 18/16/8 11/12/8 10/9/8
f 19/17/9 21/18/9 15/13/9
f 20/19/10 23/20/10 21/18/10
f 24/21/11 22/22/11 20/19/11
f 26/23/12 20/19/12 19/17/12
f 27/24/13 24/21/13 26/23/13
f 28/25/14 25/26/14 24/21/14
f 30/27/15 29/28/15 28/25/15
f 32/29/16 28/25/16 27/24/16
f 33/30/17 30/27/17 32/29/17
f 35/31/18 30/27/18 34/32/18
f 37/33/19 34/32/19 36/34/19
f 38/35/20 34/32/20 33/30/20
f 39/36/21 36/34/21 38/35/21
f 41/37/22 36/34/22 40/38/22
f 42/39/23 41/37/23 40/38/23
f 44/40/24 40/38/24 39/36/24
f 45/41/25 42/39/25 44/40/25
f 46/42/26 43/43/26 42/39/26
f 49/44/27 46/42/27 48/45/27
f 50/46/28 46/42/28 45/41/28
f 51/47/29 52/48/29 53/49/29
f 54/50/30 55/51/30 52/48/30
f 51/47/31 50/46/31 54/50/31
f 51/47/32 54/50/32 52/48/32
f 56/52/33 7/7/33 9/8/33
f 58/53/34 7/7/34 57/54/34
f 59/55/35 58/53/35 57/54/35
f 61/56/36 57/54/36 56/52/36
f 12/10/37 63/57/37 13/11/37
f 62/58/38 65/59/38 63/57/38
f 21/18/39 64/60/39 62/58/39
f 15/13/40 62/58/40 12/10/40
f 66/61/41 26/23/41 19/17/41
f 68/62/42 67/63/42 66/61/42
f 17/64/43 66/61/43 14/15/43
f 14/15/44 19/17/44 15/13/44
f 70/65/45 32/29/45 27/24/45
f 72/66/46 71/67/46 70/65/46
f 69/68/47 70/65/47 67/63/47
f 67/63/48 27/24/48 26/23/48
f 74/69/49 38/35/49 33/30/49
f 74/69/50 77/70/50 75/71/50
f 71/67/51 76/72/51 74/69/51
f 71/67/52 33/30/52 32/29/52
f 78/73/53 44/40/53 39/36/53
f 80/74/54 79/75/54 78/73/54
f 75/71/55 80/74/55 78/73/55
f 75/71/56 39/36/56 38/35/56
f 82/76/57 50/46/57 45/41/57
f 82/76/58 55/51/58 54/50/58
f 81/77/59 82/76/59 79/75/59
f 79/75/60 45/41/60 44/40/60
f 51/47/61 48/45/61 50/46/61
f 84/78/62 49/44/62 48/45/62
f 51/47/63 53/49/63 84/78/63
f 51/47/64 84/78/64 48/45/64
f 85/79/65 59/55/65 61/56/65
f 86/80/66 60/81/66 59/55/66
f 89/82/67 86/80/67 88/83/67
f 90/84/68 86/80/68 85/79/68
f 92/85/69 94/86/69 91/87/69
f 95/88/70 93/89/70 92/85/70
f 98/90/71 92/85/71 97/91/71
f 97/91/72 91/87/72 99/92/72
f 101/93/73 103/94/73 100/95/73
f 104/96/74 102/97/74 101/93/74
f 107/98/75 101/93/75 106/99/75
f 106/99/76 100/95/76 98/90/76
f 109/100/77 4/3/77 108/101/77
f 111/102/78 110/103/78 109/100/78
f 105/104/79 109/100/79 102/97/79
f 102/97/80 108/101/80 103/94/80
f 113/105/81 9/8/81 1/1/81
f 113/105/82 116/106/82 114/107/82
f 110/103/83 115/108/83 113/105/83
f 110/103/84 1/1/84 4/3/84
f 117/109/85 61/56/85 56/52/85
f 119/110/86 118/111/86 117/109/86
f 114/107/87 119/110/87 117/109/87
f 114/107/88 56/52/88 9/8/88
f 121/112/89 90/84/89 85/79/89
f 121/112/90 124/113/90 122/114/90
f 120/115/91 121/112/91 118/111/91
f 118/111/92 85/79/92 61/56/92
f 125/116/93 88/83/93 90/84/93
f 126/117/94 89/82/94 88/83/94
f 125/116/95 127/118/95 126/117/95
f 125/116/96 126/117/96 88/83/96
f 125/116/97 128/119/97 127/118/97
f 122/114/98 124/113/98 128/119/98
f 125/116/99 90/84/99 122/114/99
f 125/116/100 122/114/100 128/119/100
f 129/120/101 98/90/101 97/91/101
f 130/121/102 106/99/102 129/120/102
f 132/122/103 129/120/103 131/123/103
f 131/123/104 97/91/104 99/92/104
f 100/95/105 95/88/105 98/90/105
f 133/124/106 96/125/106 95/88/106
f 135/126/107 134/127/107 133/124/107
f 103/94/108 133/124/108 100/95/108
f 108/101/109 135/126/109 103/94/109
f 137/128/110 136/129/110 135/126/110
f 3/2/111 138/130/111 137/128/111
f 4/3/112 137/128/112 108/101/112
f 1/1/113 2/5/113 3/2/113
f 5/4/114 6/131/114 3/2/114
f 8/6/115 5/4/115 2/5/115
f 9/8/116 7/7/116 2/5/116
f 10/9/117 11/12/117 12/10/117
f 11/12/118 14/15/118 15/13/118
f 16/14/119 17/64/119 14/15/119
f 18/16/120 16/14/120 11/12/120
f 19/17/121 20/19/121 21/18/121
f 20/19/122 22/22/122 23/20/122
f 24/21/123 25/26/123 22/22/123
f 26/23/124 24/21/124 20/19/124
f 27/24/125 28/25/125 24/21/125
f 28/25/126 29/28/126 25/26/126
f 30/27/127 31/132/127 29/28/127
f 32/29/128 30/27/128 28/25/128
f 33/30/129 34/32/129 30/27/129
f 35/31/130 31/132/130 30/27/130
f 37/33/131 35/31/131 34/32/131
f 38/35/132 36/34/132 34/32/132
f 39/36/133 40/38/133 36/34/133
f 41/37/134 37/33/134 36/34/134
f 42/39/135 43/43/135 41/37/135
f 44/40/136 42/39/136 40/38/136
f 45/41/137 46/42/137 42/39/137
f 46/42/138 47/133/138 43/43/138
f 49/44/139 47/133/139 46/42/139
f 50/46/140 48/45/140 46/42/140
f 56/52/141 57/54/141 7/7/141
f 58/53/142 8/6/142 7/7/142
f 59/55/143 60/81/143 58/53/143
f 61/56/144 59/55/144 57/54/144
f 12/10/145 62/58/145 63/57/145
f 62/58/146 64/60/146 65/59/146
f 21/18/147 23/20/147 64/60/147
f 15/13/148 21/18/148 62/58/148
f 66/61/149 67/63/149 26/23/149
f 68/62/150 69/68/150 67/63/150
f 17/64/151 68/62/151 66/61/151
f 14/15/152 66/61/152 19/17/152
f 70/65/153 71/67/153 32/29/153
f 72/66/154 73/134/154 71/67/154
f 69/68/155 72/66/155 70/65/155
f 67/63/156 70/65/156 27/24/156
f 74/69/157 75/71/157 38/35/157
f 74/69/158 76/72/158 77/70/158
f 71/67/159 73/134/159 76/72/159
f 71/67/160 74/69/160 33/30/160
f 78/73/161 79/75/161 44/40/161
f 80/74/162 81/77/162 79/75/162
f 75/71/163 77/70/163 80/74/163
f 75/71/164 78/73/164 39/36/164
f 82/76/165 54/50/165 50/46/165
f 82/76/166 83/135/166 55/51/166
f 81/77/167 83/135/167 82/76/167
f 79/75/168 82/76/168 45/41/168
f 85/79/169 86/80/169 59/55/169
f 86/80/170 87/136/170 60/81/170
f 89/82/171 87/136/171 86/80/171
f 90/84/172 88/83/172 86/80/172
f 92/85/173 93/89/173 94/86/173
f 95/88/174 96/125/174 93/89/174
f 98/90/175 95/88/175 92/85/175
f 97/91/176 92/85/176 91/87/176
f 101/93/177 102/97/177 103/94/177
f 104/96/178 105/104/178 102/97/178
f 107/98/179 104/96/179 101/93/179
f 106/99/180 101/93/180 100/95/180
f 109/100/181 110/103/181 4/3/181
f 111/102/182 112/137/182 110/103/182
f 105/104/183 111/102/183 109/100/183
f 102/97/184 109/100/184 108/101/184
f 113/105/185 114/107/185 9/8/185
f 113/105/186 115/108/186 116/106/186
f 110/103/187 112/137/187 115/108/187
f 110/103/188 113/105/188 1/1/188
f 117/109/189 118/111/189 61/56/189
f 119/110/190 120/115/190 118/111/190
f 114/107/191 116/106/191 119/110/191
f 114/107/192 117/109/192 56/52/192
f 121/112/193 122/114/193 90/84/193
f 121/112/194 123/138/194 124/113/194
f 120/115/195 123/138/195 121/112/195
f 118/111/196 121/112/196 85/79/196
f 129/120/197 106/99/197 98/90/197
f 130/121/198 107/98/198 106/99/198
f 132/122/199 130/121/199 129/120/199
f 131/123/200 129/120/200 97/91/200
f 100/95/201 133/124/201 95/88/201
f 133/124/202 134/127/202 96/125/202
f 135/126/203 136/129/203 134/127/203
f 103/94/204 135/126/204 133/124/204
f 108/101/205 137/128/205 135/126/205
f 137/128/206 138/130/206 136/129/206
f 3/2/207 6/131/207 138/130/207
f 4/3/208 3/2/208 137/128/208
