# Blender v2.79 (sub 0) OBJ File: ''
# www.blender.org
mtllib large_9.mtl
o Grass_20.015
v -0.000635 0.144090 0.003924
v -0.013145 0.144090 -0.007596
v -0.011795 -0.000000 -0.008406
v 0.000145 -0.000000 0.001728
v -0.025349 0.139710 -0.019908
v -0.023777 -0.000000 -0.018576
v -0.014351 0.275046 -0.006816
v -0.026765 0.267750 -0.021114
v -0.001343 0.276504 0.005958
v 0.012541 0.275046 0.016014
v 0.012595 0.388398 0.018144
v -0.002105 0.388266 0.008136
v 0.011311 0.487914 0.023526
v -0.003869 0.487050 0.013206
v 0.027523 0.384288 0.027030
v 0.026815 0.489492 0.032622
v 0.026863 0.267750 0.024408
v -0.007805 0.583998 0.024474
v -0.021773 0.585966 0.009060
v -0.017729 0.487914 -0.001122
v -0.035933 0.593412 -0.005574
v -0.031169 0.489492 -0.016590
v -0.029621 0.693408 0.030708
v -0.044111 0.706098 0.016146
v -0.015161 0.688992 0.045528
v -0.026981 0.808026 0.079338
v -0.041237 0.812520 0.063648
v -0.055589 0.819858 0.048966
v -0.056507 0.925452 0.108480
v -0.070277 0.927012 0.093276
v -0.042227 0.922320 0.122952
v -0.059549 1.011222 0.172488
v -0.073259 1.016298 0.158808
v -0.085841 1.016730 0.143220
v -0.088907 1.076382 0.208410
v -0.099965 1.078170 0.192960
v -0.076457 1.073406 0.220854
v -0.091289 1.110288 0.263280
v -0.102383 1.114152 0.253494
v -0.113597 1.113654 0.245946
v -0.117317 1.126020 0.306108
v -0.127691 1.125510 0.305640
v -0.108353 1.124574 0.312096
v -0.131021 1.119408 0.376944
v -0.136673 1.120422 0.373308
v -0.141503 1.120110 0.365982
v -0.156053 1.100232 0.440292
v -0.153809 1.105266 0.419868
v -0.152429 1.102404 0.438204
v -0.161249 1.091430 0.463410
v -0.159227 1.090782 0.463326
v -0.164321 1.084992 0.472140
v -0.151625 1.100232 0.444054
v -0.141911 1.105266 0.429966
v 0.012313 0.144090 0.014010
v 0.025447 0.139710 0.023202
v 0.012025 -0.000000 0.011814
v 0.023875 -0.000000 0.021864
v -0.015527 0.388398 -0.005730
v -0.028535 0.384288 -0.020550
v 0.008017 0.585966 0.034344
v 0.000607 0.693408 0.056364
v 0.023461 0.593412 0.044832
v 0.016183 0.706098 0.067320
v -0.010853 0.812520 0.089442
v -0.026741 0.925452 0.133746
v 0.004711 0.819858 0.100152
v -0.011207 0.927012 0.143406
v -0.044795 1.016298 0.182976
v -0.063053 1.076382 0.230352
v -0.029693 1.016730 0.190872
v -0.048851 1.078170 0.236340
v -0.080051 1.114152 0.272448
v -0.100319 1.126020 0.320532
v -0.070025 1.113654 0.282930
v -0.094565 1.125510 0.333756
v -0.126047 1.120422 0.382326
v -0.119591 1.120110 0.384588
v -0.162323 1.090782 0.460692
v -0.000635 0.144090 0.003924
v -0.013145 0.144090 -0.007596
v -0.014351 0.275046 -0.006816
v -0.001343 0.276504 0.005958
v -0.025349 0.139710 -0.019908
v -0.026765 0.267750 -0.021114
v -0.011795 -0.000000 -0.008406
v -0.023777 -0.000000 -0.018576
v 0.000145 -0.000000 0.001728
v 0.012541 0.275046 0.016014
v 0.012595 0.388398 0.018144
v 0.027523 0.384288 0.027030
v 0.026863 0.267750 0.024408
v 0.011311 0.487914 0.023526
v 0.026815 0.489492 0.032622
v -0.002105 0.388266 0.008136
v -0.003869 0.487050 0.013206
v -0.007805 0.583998 0.024474
v -0.021773 0.585966 0.009060
v -0.029621 0.693408 0.030708
v -0.015161 0.688992 0.045528
v -0.035933 0.593412 -0.005574
v -0.044111 0.706098 0.016146
v -0.017729 0.487914 -0.001122
v -0.031169 0.489492 -0.016590
v -0.026981 0.808026 0.079338
v -0.041237 0.812520 0.063648
v -0.056507 0.925452 0.108480
v -0.042227 0.922320 0.122952
v -0.055589 0.819858 0.048966
v -0.070277 0.927012 0.093276
v -0.059549 1.011222 0.172488
v -0.073259 1.016298 0.158808
v -0.088907 1.076382 0.208410
v -0.076457 1.073406 0.220854
v -0.085841 1.016730 0.143220
v -0.099965 1.078170 0.192960
v -0.091289 1.110288 0.263280
v -0.102383 1.114152 0.253494
v -0.117317 1.126020 0.306108
v -0.108353 1.124574 0.312096
v -0.113597 1.113654 0.245946
v -0.127691 1.125510 0.305640
v -0.131021 1.119408 0.376944
v -0.136673 1.120422 0.373308
v -0.156053 1.100232 0.440292
v -0.152429 1.102404 0.438204
v -0.141503 1.120110 0.365982
v -0.153809 1.105266 0.419868
v -0.161249 1.091430 0.463410
v -0.151625 1.100232 0.444054
v -0.159227 1.090782 0.463326
v -0.141911 1.105266 0.429966
v -0.164321 1.084992 0.472140
v 0.012313 0.144090 0.014010
v 0.012025 -0.000000 0.011814
v 0.025447 0.139710 0.023202
v 0.023875 -0.000000 0.021864
v -0.015527 0.388398 -0.005730
v -0.028535 0.384288 -0.020550
v 0.008017 0.585966 0.034344
v 0.023461 0.593412 0.044832
v 0.000607 0.693408 0.056364
v 0.016183 0.706098 0.067320
v -0.010853 0.812520 0.089442
v 0.004711 0.819858 0.100152
v -0.026741 0.925452 0.133746
v -0.011207 0.927012 0.143406
v -0.044795 1.016298 0.182976
v -0.029693 1.016730 0.190872
v -0.063053 1.076382 0.230352
v -0.048851 1.078170 0.236340
v -0.080051 1.114152 0.272448
v -0.070025 1.113654 0.282930
v -0.100319 1.126020 0.320532
v -0.094565 1.125510 0.333756
v -0.126047 1.120422 0.382326
v -0.119591 1.120110 0.384588
v -0.162323 1.090782 0.460692
vt 0.732163 0.069726
vt 0.498022 0.002013
vt 0.498022 0.069726
vt 0.966304 0.069726
vt 0.733176 0.002013
vt 0.964279 0.137438
vt 0.731150 0.137438
vt 0.498022 0.137438
vt 0.262113 0.181323
vt 0.259430 0.137438
vt 0.498022 0.225207
vt 0.498022 0.181323
vt 0.031570 0.225207
vt 0.026204 0.181323
vt 0.020838 0.137438
vt 0.498022 0.285232
vt 0.727540 0.225207
vt 0.727022 0.285232
vt 0.957058 0.225207
vt 0.726504 0.345256
vt 0.956023 0.285232
vt 0.498022 0.345256
vt 0.498022 0.450808
vt 0.726504 0.450808
vt 0.954987 0.345256
vt 0.726504 0.556360
vt 0.954987 0.450808
vt 0.498022 0.556360
vt 0.712592 0.619264
vt 0.498022 0.619264
vt 0.927163 0.619264
vt 0.899340 0.682167
vt 0.698681 0.682167
vt 0.498022 0.682167
vt 0.667138 0.753113
vt 0.498022 0.753113
vt 0.836255 0.753113
vt 0.773170 0.824059
vt 0.635596 0.824059
vt 0.498022 0.824059
vt 0.578270 0.897481
vt 0.498022 0.897481
vt 0.658518 0.897481
vt 0.543866 0.970902
vt 0.520944 0.970902
vt 0.498022 0.970902
vt 0.498022 0.984444
vt 0.477078 0.984444
vt 0.498022 0.997987
vt 0.477078 0.970902
vt 0.456134 0.970902
vt 0.257825 0.069726
vt 0.256221 0.002013
vt 0.017629 0.069726
vt 0.729345 0.181323
vt 0.960669 0.181323
vt 0.268157 0.285232
vt 0.038292 0.285232
vt 0.271518 0.345256
vt 0.264796 0.225207
vt 0.271518 0.450808
vt 0.045013 0.450808
vt 0.271518 0.556360
vt 0.045013 0.345256
vt 0.285429 0.619264
vt 0.072837 0.619264
vt 0.299341 0.682167
vt 0.045013 0.556360
vt 0.330884 0.753113
vt 0.163745 0.753113
vt 0.362426 0.824059
vt 0.100660 0.682167
vt 0.419752 0.897481
vt 0.226830 0.824059
vt 0.520944 0.984444
vt 0.498022 0.069726
vt 0.731150 0.137438
vt 0.498022 0.137438
vt 0.732163 0.069726
vt 0.964279 0.137438
vt 0.733176 0.002013
vt 0.966304 0.069726
vt 0.498022 0.002013
vt 0.259430 0.137438
vt 0.026204 0.181323
vt 0.020838 0.137438
vt 0.262113 0.181323
vt 0.031570 0.225207
vt 0.498022 0.225207
vt 0.498022 0.181323
vt 0.727022 0.285232
vt 0.498022 0.345256
vt 0.498022 0.285232
vt 0.956023 0.285232
vt 0.726504 0.345256
vt 0.957058 0.225207
vt 0.727540 0.225207
vt 0.498022 0.450808
vt 0.726504 0.556360
vt 0.498022 0.556360
vt 0.954987 0.450808
vt 0.726504 0.450808
vt 0.954987 0.345256
vt 0.498022 0.619264
vt 0.698681 0.682167
vt 0.498022 0.682167
vt 0.712592 0.619264
vt 0.899340 0.682167
vt 0.927163 0.619264
vt 0.498022 0.753113
vt 0.635596 0.824059
vt 0.498022 0.824059
vt 0.667138 0.753113
vt 0.773170 0.824059
vt 0.836255 0.753113
vt 0.578270 0.897481
vt 0.498022 0.970902
vt 0.498022 0.897481
vt 0.543866 0.970902
vt 0.520944 0.970902
vt 0.658518 0.897481
vt 0.498022 0.984444
vt 0.477078 0.970902
vt 0.477078 0.984444
vt 0.456134 0.970902
vt 0.498022 0.997987
vt 0.256221 0.002013
vt 0.017629 0.069726
vt 0.257825 0.069726
vt 0.729345 0.181323
vt 0.960669 0.181323
vt 0.264796 0.225207
vt 0.268157 0.285232
vt 0.271518 0.345256
vt 0.038292 0.285232
vt 0.271518 0.450808
vt 0.045013 0.345256
vt 0.271518 0.556360
vt 0.045013 0.450808
vt 0.285429 0.619264
vt 0.045013 0.556360
vt 0.299341 0.682167
vt 0.072837 0.619264
vt 0.330884 0.753113
vt 0.100660 0.682167
vt 0.362426 0.824059
vt 0.163745 0.753113
vt 0.419752 0.897481
vt 0.226830 0.824059
vt 0.520944 0.984444
vt 0.968329 0.002013
vt 0.954987 0.556360
vt 0.014420 0.002013
vt 0.341482 0.897481
vt 0.968329 0.002013
vt 0.954987 0.556360
vt 0.014420 0.002013
vt 0.341482 0.897481
vn -0.6773 -0.0149 0.7355
vn -0.7083 -0.0106 0.7058
vn -0.7523 -0.0109 0.6587
vn -0.6997 -0.0147 0.7142
vn -0.5876 -0.0149 0.8090
vn -0.5617 -0.0524 0.8257
vn -0.5208 -0.0488 0.8523
vn -0.5118 -0.0164 0.8590
vn -0.7177 -0.1091 0.6877
vn -0.7561 -0.0984 0.6470
vn -0.7514 -0.1826 0.6341
vn -0.7401 -0.1817 0.6475
vn -0.7291 -0.2530 0.6360
vn -0.7837 -0.2354 0.5748
vn -0.7522 -0.3285 0.5712
vn -0.7063 -0.3327 0.6249
vn -0.7101 -0.4432 0.5472
vn -0.7052 -0.4386 0.5570
vn -0.7079 -0.5501 0.4430
vn -0.6447 -0.5708 0.5085
vn -0.5949 -0.6979 0.3988
vn -0.3328 -0.7695 0.5452
vn 0.0374 -0.9725 0.2300
vn -0.2733 -0.9448 0.1810
vn -0.1034 -0.9880 -0.1148
vn 0.1316 -0.9903 -0.0446
vn 0.2869 -0.9370 -0.1994
vn -0.0007 -0.9635 -0.2677
vn -0.2605 -0.7310 -0.6307
vn -0.3510 -0.7786 -0.5202
vn 0.1216 -0.9249 -0.3601
vn -0.2817 -0.8129 -0.5097
vn -0.5876 -0.0156 0.8090
vn -0.5102 -0.0123 0.8599
vn -0.5759 -0.0113 0.8175
vn -0.6471 -0.0151 0.7622
vn -0.7185 -0.0184 0.6953
vn -0.7495 -0.0141 0.6618
vn -0.7564 -0.0469 0.6524
vn -0.7179 -0.0485 0.6945
vn -0.4998 -0.2038 0.8418
vn -0.4790 -0.2078 0.8529
vn -0.4944 -0.1117 0.8620
vn -0.5537 -0.1183 0.8243
vn -0.4161 -0.3721 0.8297
vn -0.3942 -0.3832 0.8353
vn -0.3883 -0.2811 0.8776
vn -0.4881 -0.2830 0.8256
vn -0.2901 -0.6354 0.7156
vn -0.3400 -0.6438 0.6855
vn -0.4223 -0.4953 0.7591
vn -0.4237 -0.5025 0.7537
vn 0.0776 -0.9492 0.3049
vn -0.2065 -0.9666 0.1516
vn -0.1653 -0.7663 0.6208
vn -0.2439 -0.7725 0.5863
vn 0.3402 -0.9300 -0.1392
vn 0.1052 -0.9572 -0.2695
vn 0.0609 -0.9960 -0.0649
vn 0.1893 -0.9818 -0.0120
vn 0.3873 -0.8872 -0.2507
vn 0.7366 -0.6711 -0.0845
vn 0.7830 -0.5994 -0.1665
vn 0.7024 -0.7032 -0.1099
vn 0.6997 0.0147 -0.7142
vn 0.7523 0.0109 -0.6587
vn 0.7083 0.0106 -0.7058
vn 0.6773 0.0149 -0.7355
vn 0.5118 0.0164 -0.8590
vn 0.5208 0.0488 -0.8523
vn 0.5617 0.0524 -0.8257
vn 0.5876 0.0149 -0.8090
vn 0.7401 0.1817 -0.6475
vn 0.7514 0.1826 -0.6341
vn 0.7561 0.0984 -0.6470
vn 0.7177 0.1091 -0.6877
vn 0.7063 0.3327 -0.6249
vn 0.7522 0.3285 -0.5712
vn 0.7837 0.2354 -0.5748
vn 0.7291 0.2530 -0.6360
vn 0.6447 0.5708 -0.5085
vn 0.7079 0.5501 -0.4430
vn 0.7052 0.4386 -0.5570
vn 0.7101 0.4432 -0.5472
vn 0.2733 0.9448 -0.1810
vn -0.0374 0.9725 -0.2300
vn 0.3328 0.7695 -0.5452
vn 0.5949 0.6979 -0.3988
vn 0.0007 0.9635 0.2677
vn -0.2869 0.9370 0.1994
vn -0.1316 0.9903 0.0446
vn 0.1034 0.9880 0.1148
vn -0.1216 0.9249 0.3601
vn 0.3510 0.7786 0.5202
vn 0.2605 0.7310 0.6307
vn 0.2817 0.8129 0.5097
vn 0.6471 0.0151 -0.7622
vn 0.5759 0.0113 -0.8175
vn 0.5102 0.0123 -0.8599
vn 0.5876 0.0156 -0.8090
vn 0.7179 0.0485 -0.6945
vn 0.7564 0.0469 -0.6524
vn 0.7495 0.0141 -0.6618
vn 0.7185 0.0184 -0.6953
vn 0.5537 0.1183 -0.8243
vn 0.4944 0.1117 -0.8620
vn 0.4790 0.2078 -0.8529
vn 0.4998 0.2038 -0.8418
vn 0.4881 0.2830 -0.8256
vn 0.3883 0.2811 -0.8776
vn 0.3942 0.3832 -0.8353
vn 0.4161 0.3721 -0.8297
vn 0.4237 0.5025 -0.7537
vn 0.4223 0.4953 -0.7591
vn 0.3400 0.6438 -0.6855
vn 0.2901 0.6354 -0.7156
vn 0.2439 0.7725 -0.5863
vn 0.1653 0.7663 -0.6208
vn 0.2065 0.9666 -0.1516
vn -0.0776 0.9492 -0.3049
vn -0.1893 0.9818 0.0120
vn -0.0609 0.9960 0.0649
vn -0.1052 0.9572 0.2695
vn -0.3402 0.9300 0.1392
vn -0.7830 0.5994 0.1665
vn -0.7366 0.6711 0.0845
vn -0.3873 0.8872 0.2507
vn -0.7024 0.7032 0.1099
vn -0.6471 -0.0103 0.7624
vn -0.6471 -0.0000 0.7624
vn -0.7100 -0.0012 0.7042
vn -0.6774 -0.0106 0.7356
vn -0.5625 -0.0199 0.8265
vn -0.5594 -0.0520 0.8272
vn -0.5013 -0.0532 0.8637
vn -0.5147 -0.0159 0.8573
vn -0.7436 -0.0993 0.6612
vn -0.7407 -0.1043 0.6637
vn -0.7697 -0.1742 0.6141
vn -0.7304 -0.1858 0.6573
vn -0.7516 -0.2429 0.6133
vn -0.7520 -0.2516 0.6093
vn -0.7120 -0.3494 0.6090
vn -0.7436 -0.3311 0.5808
vn -0.6834 -0.4461 0.5778
vn -0.6874 -0.4406 0.5773
vn -0.6510 -0.5624 0.5098
vn -0.6782 -0.5648 0.4702
vn -0.5810 -0.7010 0.4136
vn -0.5911 -0.7322 0.3383
vn -0.0756 -0.9813 0.1770
vn -0.3992 -0.9122 0.0924
vn -0.0878 -0.9903 -0.1078
vn 0.0524 -0.9956 -0.0771
vn 0.3318 -0.9261 -0.1793
vn 0.4507 -0.8823 -0.1355
vn -0.6145 -0.0110 0.7889
vn -0.5737 -0.0014 0.8191
vn -0.6468 -0.0000 0.7627
vn -0.6145 -0.0108 0.7889
vn -0.6998 -0.0141 0.7142
vn -0.7513 -0.0146 0.6598
vn -0.7448 -0.0437 0.6659
vn -0.7194 -0.0480 0.6930
vn -0.5144 -0.2061 0.8324
vn -0.4475 -0.2027 0.8710
vn -0.5190 -0.1162 0.8468
vn -0.5160 -0.1110 0.8494
vn -0.4766 -0.3784 0.7935
vn -0.4576 -0.3904 0.7989
vn -0.4463 -0.2894 0.8468
vn -0.4529 -0.2788 0.8469
vn -0.3421 -0.6437 0.6845
vn -0.2354 -0.6245 0.7447
vn -0.3923 -0.4920 0.7772
vn -0.3821 -0.4978 0.7785
vn -0.0535 -0.9745 0.2180
vn -0.2829 -0.9553 0.0863
vn -0.4562 -0.7956 0.3986
vn -0.2244 -0.7686 0.5990
vn -0.0752 -0.9381 -0.3380
vn 0.0541 -0.9566 -0.2863
vn -0.0094 -0.9939 -0.1102
vn 0.2038 -0.9790 -0.0038
vn 0.6774 0.0106 -0.7356
vn 0.7100 0.0012 -0.7042
vn 0.6471 0.0000 -0.7624
vn 0.6471 0.0103 -0.7624
vn 0.5147 0.0159 -0.8573
vn 0.5013 0.0532 -0.8637
vn 0.5594 0.0520 -0.8272
vn 0.5625 0.0199 -0.8265
vn 0.7304 0.1858 -0.6573
vn 0.7697 0.1742 -0.6141
vn 0.7407 0.1043 -0.6637
vn 0.7436 0.0993 -0.6612
vn 0.7436 0.3311 -0.5808
vn 0.7120 0.3494 -0.6090
vn 0.7520 0.2516 -0.6093
vn 0.7516 0.2429 -0.6133
vn 0.6782 0.5648 -0.4702
vn 0.6510 0.5624 -0.5098
vn 0.6874 0.4406 -0.5773
vn 0.6834 0.4461 -0.5778
vn 0.3992 0.9122 -0.0924
vn 0.0756 0.9813 -0.1770
vn 0.5911 0.7322 -0.3383
vn 0.5810 0.7010 -0.4136
vn -0.4507 0.8823 0.1355
vn -0.3318 0.9261 0.1793
vn -0.0524 0.9956 0.0771
vn 0.0878 0.9903 0.1078
vn 0.6145 0.0108 -0.7889
vn 0.6468 0.0000 -0.7627
vn 0.5737 0.0014 -0.8191
vn 0.6145 0.0110 -0.7889
vn 0.7194 0.0480 -0.6930
vn 0.7448 0.0437 -0.6659
vn 0.7513 0.0146 -0.6598
vn 0.6998 0.0141 -0.7142
vn 0.5160 0.1110 -0.8494
vn 0.5190 0.1162 -0.8468
vn 0.4475 0.2027 -0.8710
vn 0.5144 0.2061 -0.8324
vn 0.4529 0.2788 -0.8469
vn 0.4463 0.2894 -0.8468
vn 0.4576 0.3904 -0.7989
vn 0.4766 0.3784 -0.7935
vn 0.3821 0.4978 -0.7785
vn 0.3923 0.4920 -0.7772
vn 0.2354 0.6245 -0.7447
vn 0.3421 0.6437 -0.6845
vn 0.2244 0.7686 -0.5990
vn 0.4562 0.7956 -0.3986
vn 0.2829 0.9553 -0.0863
vn 0.0535 0.9745 -0.2180
vn -0.2038 0.9790 0.0038
vn 0.0094 0.9939 0.1102
vn -0.0541 0.9566 0.2863
vn 0.0752 0.9381 0.3380
usemtl Material.001
s off
f 2/1/1 4/2/1 1/3/1
f 5/4/2 3/5/2 2/1/2
f 8/6/3 2/1/3 7/7/3
f 7/7/4 1/3/4 9/8/4
f 11/9/5 9/8/5 10/10/5
f 11/9/6 14/11/6 12/12/6
f 16/13/7 11/9/7 15/14/7
f 15/14/8 10/10/8 17/15/8
f 18/16/9 20/17/9 14/11/9
f 19/18/10 22/19/10 20/17/10
f 23/20/11 21/21/11 19/18/11
f 25/22/12 19/18/12 18/16/12
f 26/23/13 23/20/13 25/22/13
f 27/24/14 24/25/14 23/20/14
f 29/26/15 28/27/15 27/24/15
f 29/26/16 26/23/16 31/28/16
f 33/29/17 31/28/17 32/30/17
f 34/31/18 29/26/18 33/29/18
f 36/32/19 33/29/19 35/33/19
f 35/33/20 32/30/20 37/34/20
f 39/35/21 37/34/21 38/36/21
f 40/37/22 35/33/22 39/35/22
f 42/38/23 39/35/23 41/39/23
f 41/39/24 38/36/24 43/40/24
f 45/41/25 43/40/25 44/42/25
f 46/43/26 41/39/26 45/41/26
f 48/44/27 45/41/27 47/45/27
f 49/46/28 45/41/28 44/42/28
f 50/47/29 51/48/29 52/49/29
f 53/50/30 54/51/30 51/48/30
f 50/47/31 49/46/31 53/50/31
f 50/47/32 53/50/32 51/48/32
f 1/3/33 10/10/33 9/8/33
f 55/52/34 17/15/34 10/10/34
f 57/53/35 56/54/35 55/52/35
f 57/53/36 1/3/36 4/2/36
f 59/55/37 9/8/37 12/12/37
f 60/56/38 7/7/38 59/55/38
f 22/19/39 59/55/39 20/17/39
f 14/11/40 59/55/40 12/12/40
f 61/57/41 25/22/41 18/16/41
f 63/58/42 62/59/42 61/57/42
f 16/13/43 61/57/43 13/60/43
f 13/60/44 18/16/44 14/11/44
f 65/61/45 31/28/45 26/23/45
f 67/62/46 66/63/46 65/61/46
f 64/64/47 65/61/47 62/59/47
f 62/59/48 26/23/48 25/22/48
f 69/65/49 37/34/49 32/30/49
f 71/66/50 70/67/50 69/65/50
f 68/68/51 69/65/51 66/63/51
f 66/63/52 32/30/52 31/28/52
f 73/69/53 43/40/53 38/36/53
f 75/70/54 74/71/54 73/69/54
f 72/72/55 73/69/55 70/67/55
f 70/67/56 38/36/56 37/34/56
f 77/73/57 49/46/57 44/42/57
f 77/73/58 54/51/58 53/50/58
f 76/74/59 77/73/59 74/71/59
f 74/71/60 44/42/60 43/40/60
f 50/47/61 47/45/61 49/46/61
f 79/75/62 48/44/62 47/45/62
f 50/47/63 52/49/63 79/75/63
f 50/47/64 79/75/64 47/45/64
f 80/76/65 82/77/65 83/78/65
f 81/79/66 85/80/66 82/77/66
f 86/81/67 84/82/67 81/79/67
f 88/83/68 81/79/68 80/76/68
f 89/84/69 91/85/69 92/86/69
f 90/87/70 94/88/70 91/85/70
f 96/89/71 90/87/71 95/90/71
f 83/78/72 90/87/72 89/84/72
f 98/91/73 100/92/73 97/93/73
f 101/94/74 99/95/74 98/91/74
f 104/96/75 98/91/75 103/97/75
f 103/97/76 97/93/76 96/89/76
f 105/98/77 107/99/77 108/100/77
f 109/101/78 107/99/78 106/102/78
f 102/103/79 106/102/79 99/95/79
f 99/95/80 105/98/80 100/92/80
f 111/104/81 113/105/81 114/106/81
f 112/107/82 116/108/82 113/105/82
f 107/99/83 115/109/83 112/107/83
f 108/100/84 112/107/84 111/104/84
f 117/110/85 119/111/85 120/112/85
f 118/113/86 122/114/86 119/111/86
f 113/105/87 121/115/87 118/113/87
f 114/106/88 118/113/88 117/110/88
f 124/116/89 126/117/89 123/118/89
f 124/116/90 128/119/90 125/120/90
f 119/111/91 127/121/91 124/116/91
f 120/112/92 124/116/92 123/118/92
f 129/122/93 130/123/93 126/117/93
f 131/124/94 132/125/94 130/123/94
f 129/122/95 133/126/95 131/124/95
f 129/122/96 131/124/96 130/123/96
f 80/76/97 135/127/97 88/83/97
f 136/128/98 135/127/98 134/129/98
f 92/86/99 134/129/99 89/84/99
f 89/84/100 80/76/100 83/78/100
f 138/130/101 96/89/101 95/90/101
f 138/130/102 104/96/102 103/97/102
f 82/77/103 139/131/103 138/130/103
f 83/78/104 138/130/104 95/90/104
f 97/93/105 93/132/105 96/89/105
f 140/133/106 94/88/106 93/132/106
f 142/134/107 141/135/107 140/133/107
f 100/92/108 140/133/108 97/93/108
f 105/98/109 142/134/109 100/92/109
f 144/136/110 143/137/110 142/134/110
f 146/138/111 145/139/111 144/136/111
f 108/100/112 144/136/112 105/98/112
f 111/104/113 146/138/113 108/100/113
f 148/140/114 147/141/114 146/138/114
f 150/142/115 149/143/115 148/140/115
f 114/106/116 148/140/116 111/104/116
f 117/110/117 150/142/117 114/106/117
f 152/144/118 151/145/118 150/142/118
f 154/146/119 153/147/119 152/144/119
f 120/112/120 152/144/120 117/110/120
f 123/118/121 154/146/121 120/112/121
f 156/148/122 155/149/122 154/146/122
f 132/125/123 156/148/123 130/123/123
f 126/117/124 156/148/124 123/118/124
f 129/122/125 158/150/125 133/126/125
f 125/120/126 128/119/126 158/150/126
f 129/122/127 126/117/127 125/120/127
f 129/122/128 125/120/128 158/150/128
f 2/1/129 3/5/129 4/2/129
f 5/4/130 6/151/130 3/5/130
f 8/6/131 5/4/131 2/1/131
f 7/7/132 2/1/132 1/3/132
f 11/9/133 12/12/133 9/8/133
f 11/9/134 13/60/134 14/11/134
f 16/13/135 13/60/135 11/9/135
f 15/14/136 11/9/136 10/10/136
f 18/16/137 19/18/137 20/17/137
f 19/18/138 21/21/138 22/19/138
f 23/20/139 24/25/139 21/21/139
f 25/22/140 23/20/140 19/18/140
f 26/23/141 27/24/141 23/20/141
f 27/24/142 28/27/142 24/25/142
f 29/26/143 30/152/143 28/27/143
f 29/26/144 27/24/144 26/23/144
f 33/29/145 29/26/145 31/28/145
f 34/31/146 30/152/146 29/26/146
f 36/32/147 34/31/147 33/29/147
f 35/33/148 33/29/148 32/30/148
f 39/35/149 35/33/149 37/34/149
f 40/37/150 36/32/150 35/33/150
f 42/38/151 40/37/151 39/35/151
f 41/39/152 39/35/152 38/36/152
f 45/41/153 41/39/153 43/40/153
f 46/43/154 42/38/154 41/39/154
f 48/44/155 46/43/155 45/41/155
f 49/46/156 47/45/156 45/41/156
f 1/3/157 55/52/157 10/10/157
f 55/52/158 56/54/158 17/15/158
f 57/53/159 58/153/159 56/54/159
f 57/53/160 55/52/160 1/3/160
f 59/55/161 7/7/161 9/8/161
f 60/56/162 8/6/162 7/7/162
f 22/19/163 60/56/163 59/55/163
f 14/11/164 20/17/164 59/55/164
f 61/57/165 62/59/165 25/22/165
f 63/58/166 64/64/166 62/59/166
f 16/13/167 63/58/167 61/57/167
f 13/60/168 61/57/168 18/16/168
f 65/61/169 66/63/169 31/28/169
f 67/62/170 68/68/170 66/63/170
f 64/64/171 67/62/171 65/61/171
f 62/59/172 65/61/172 26/23/172
f 69/65/173 70/67/173 37/34/173
f 71/66/174 72/72/174 70/67/174
f 68/68/175 71/66/175 69/65/175
f 66/63/176 69/65/176 32/30/176
f 73/69/177 74/71/177 43/40/177
f 75/70/178 76/74/178 74/71/178
f 72/72/179 75/70/179 73/69/179
f 70/67/180 73/69/180 38/36/180
f 77/73/181 53/50/181 49/46/181
f 77/73/182 78/154/182 54/51/182
f 76/74/183 78/154/183 77/73/183
f 74/71/184 77/73/184 44/42/184
f 80/76/185 81/79/185 82/77/185
f 81/79/186 84/82/186 85/80/186
f 86/81/187 87/155/187 84/82/187
f 88/83/188 86/81/188 81/79/188
f 89/84/189 90/87/189 91/85/189
f 90/87/190 93/132/190 94/88/190
f 96/89/191 93/132/191 90/87/191
f 83/78/192 95/90/192 90/87/192
f 98/91/193 99/95/193 100/92/193
f 101/94/194 102/103/194 99/95/194
f 104/96/195 101/94/195 98/91/195
f 103/97/196 98/91/196 97/93/196
f 105/98/197 106/102/197 107/99/197
f 109/101/198 110/156/198 107/99/198
f 102/103/199 109/101/199 106/102/199
f 99/95/200 106/102/200 105/98/200
f 111/104/201 112/107/201 113/105/201
f 112/107/202 115/109/202 116/108/202
f 107/99/203 110/156/203 115/109/203
f 108/100/204 107/99/204 112/107/204
f 117/110/205 118/113/205 119/111/205
f 118/113/206 121/115/206 122/114/206
f 113/105/207 116/108/207 121/115/207
f 114/106/208 113/105/208 118/113/208
f 124/116/209 125/120/209 126/117/209
f 124/116/210 127/121/210 128/119/210
f 119/111/211 122/114/211 127/121/211
f 120/112/212 119/111/212 124/116/212
f 80/76/213 134/129/213 135/127/213
f 136/128/214 137/157/214 135/127/214
f 92/86/215 136/128/215 134/129/215
f 89/84/216 134/129/216 80/76/216
f 138/130/217 103/97/217 96/89/217
f 138/130/218 139/131/218 104/96/218
f 82/77/219 85/80/219 139/131/219
f 83/78/220 82/77/220 138/130/220
f 97/93/221 140/133/221 93/132/221
f 140/133/222 141/135/222 94/88/222
f 142/134/223 143/137/223 141/135/223
f 100/92/224 142/134/224 140/133/224
f 105/98/225 144/136/225 142/134/225
f 144/136/226 145/139/226 143/137/226
f 146/138/227 147/141/227 145/139/227
f 108/100/228 146/138/228 144/136/228
f 111/104/229 148/140/229 146/138/229
f 148/140/230 149/143/230 147/141/230
f 150/142/231 151/145/231 149/143/231
f 114/106/232 150/142/232 148/140/232
f 117/110/233 152/144/233 150/142/233
f 152/144/234 153/147/234 151/145/234
f 154/146/235 155/149/235 153/147/235
f 120/112/236 154/146/236 152/144/236
f 123/118/237 156/148/237 154/146/237
f 156/148/238 157/158/238 155/149/238
f 132/125/239 157/158/239 156/148/239
f 126/117/240 130/123/240 156/148/240
