# Blender v2.79 (sub 0) OBJ File: ''
# www.blender.org
mtllib large_8.mtl
o Grass_20.013
v 0.002831 0.152946 0.001682
v -0.010693 0.152946 0.012008
v -0.011257 0.000000 0.010544
v 0.000833 0.000000 0.000512
v -0.024937 0.148302 0.021890
v -0.023353 0.000000 0.020576
v -0.010129 0.291954 0.013334
v -0.026371 0.284214 0.023078
v 0.004703 0.293502 0.002738
v 0.017021 0.291954 -0.009190
v 0.019127 0.412278 -0.008872
v 0.006719 0.412134 0.003866
v 0.024203 0.517908 -0.006670
v 0.011405 0.516996 0.006488
v 0.030467 0.407910 -0.022024
v 0.035849 0.519582 -0.020356
v 0.027773 0.284214 -0.021832
v 0.021815 0.619896 0.012320
v 0.004211 0.621990 0.023402
v -0.005113 0.517908 0.017648
v -0.012661 0.629892 0.034802
v -0.022681 0.519582 0.028196
v 0.024167 0.736038 0.034886
v 0.007313 0.749502 0.046628
v 0.041273 0.731352 0.023222
v 0.072515 0.857700 0.040730
v 0.054593 0.862470 0.052046
v 0.037643 0.870258 0.063632
v 0.096089 0.982344 0.074870
v 0.078725 0.984006 0.085790
v 0.112817 0.979020 0.063320
v 0.158597 1.073388 0.088976
v 0.142745 1.078782 0.100113
v 0.125207 1.079238 0.109791
v 0.188879 1.142556 0.124130
v 0.171737 1.144458 0.132339
v 0.203291 1.139400 0.114033
v 0.242501 1.178550 0.136005
v 0.230933 1.182648 0.145233
v 0.221555 1.182120 0.154965
v 0.280157 1.195248 0.169077
v 0.277895 1.194702 0.179211
v 0.287609 1.193712 0.161288
v 0.347537 1.188228 0.194865
v 0.342971 1.189302 0.199803
v 0.334919 1.188972 0.203295
v 0.405575 1.167870 0.230523
v 0.385853 1.173216 0.224769
v 0.404147 1.170174 0.226592
v 0.427439 1.158528 0.239654
v 0.427709 1.157838 0.237651
v 0.435503 1.151694 0.244197
v 0.410051 1.167870 0.226809
v 0.397865 1.173216 0.214802
v 0.015005 0.152946 -0.009310
v 0.026339 0.148302 -0.020644
v 0.012791 0.000000 -0.009406
v 0.024749 0.000000 -0.019330
v -0.009265 0.412278 0.014684
v -0.026125 0.407910 0.024920
v 0.034283 0.621990 -0.001552
v 0.054683 0.736038 0.009572
v 0.047297 0.629892 -0.014932
v 0.068177 0.749502 -0.003862
v 0.085265 0.862470 0.026600
v 0.126137 0.982344 0.049946
v 0.098519 0.870258 0.013136
v 0.138353 0.984006 0.036326
v 0.171485 1.078782 0.076268
v 0.214973 1.142556 0.102483
v 0.181889 1.079238 0.062775
v 0.223337 1.144458 0.089535
v 0.253475 1.182648 0.126530
v 0.297311 1.195248 0.154838
v 0.265541 1.182120 0.118473
v 0.311339 1.194702 0.151467
v 0.353699 1.189302 0.190911
v 0.357047 1.188972 0.184941
v 0.424577 1.157838 0.240243
v 0.002831 0.152946 0.001682
v -0.010693 0.152946 0.012008
v -0.010129 0.291954 0.013334
v 0.004703 0.293502 0.002738
v -0.024937 0.148302 0.021890
v -0.026371 0.284214 0.023078
v -0.011257 0.000000 0.010544
v -0.023353 0.000000 0.020576
v 0.000833 0.000000 0.000512
v 0.017021 0.291954 -0.009190
v 0.019127 0.412278 -0.008872
v 0.030467 0.407910 -0.022024
v 0.027773 0.284214 -0.021832
v 0.024203 0.517908 -0.006670
v 0.035849 0.519582 -0.020356
v 0.006719 0.412134 0.003866
v 0.011405 0.516996 0.006488
v 0.021815 0.619896 0.012320
v 0.004211 0.621990 0.023402
v 0.024167 0.736038 0.034886
v 0.041273 0.731352 0.023222
v -0.012661 0.629892 0.034802
v 0.007313 0.749502 0.046628
v -0.005113 0.517908 0.017648
v -0.022681 0.519582 0.028196
v 0.072515 0.857700 0.040730
v 0.054593 0.862470 0.052046
v 0.096089 0.982344 0.074870
v 0.112817 0.979020 0.063320
v 0.037643 0.870258 0.063632
v 0.078725 0.984006 0.085790
v 0.158597 1.073388 0.088976
v 0.142745 1.078782 0.100113
v 0.188879 1.142556 0.124130
v 0.203291 1.139400 0.114033
v 0.125207 1.079238 0.109791
v 0.171737 1.144458 0.132339
v 0.242501 1.178550 0.136005
v 0.230933 1.182648 0.145233
v 0.280157 1.195248 0.169077
v 0.287609 1.193712 0.161288
v 0.221555 1.182120 0.154965
v 0.277895 1.194702 0.179211
v 0.347537 1.188228 0.194865
v 0.342971 1.189302 0.199803
v 0.405575 1.167870 0.230523
v 0.404147 1.170174 0.226592
v 0.334919 1.188972 0.203295
v 0.385853 1.173216 0.224769
v 0.427439 1.158528 0.239654
v 0.410051 1.167870 0.226809
v 0.427709 1.157838 0.237651
v 0.397865 1.173216 0.214802
v 0.435503 1.151694 0.244197
v 0.015005 0.152946 -0.009310
v 0.012791 0.000000 -0.009406
v 0.026339 0.148302 -0.020644
v 0.024749 0.000000 -0.019330
v -0.009265 0.412278 0.014684
v -0.026125 0.407910 0.024920
v 0.034283 0.621990 -0.001552
v 0.047297 0.629892 -0.014932
v 0.054683 0.736038 0.009572
v 0.068177 0.749502 -0.003862
v 0.085265 0.862470 0.026600
v 0.098519 0.870258 0.013136
v 0.126137 0.982344 0.049946
v 0.138353 0.984006 0.036326
v 0.171485 1.078782 0.076268
v 0.181889 1.079238 0.062775
v 0.214973 1.142556 0.102483
v 0.223337 1.144458 0.089535
v 0.253475 1.182648 0.126530
v 0.265541 1.182120 0.118473
v 0.297311 1.195248 0.154838
v 0.311339 1.194702 0.151467
v 0.353699 1.189302 0.190911
v 0.357047 1.188972 0.184941
v 0.424577 1.157838 0.240243
vt 0.732163 0.069726
vt 0.498022 0.002013
vt 0.498022 0.069726
vt 0.966304 0.069726
vt 0.733176 0.002013
vt 0.964279 0.137438
vt 0.731150 0.137438
vt 0.498022 0.137438
vt 0.262113 0.181323
vt 0.259430 0.137438
vt 0.498022 0.225207
vt 0.498022 0.181323
vt 0.031570 0.225207
vt 0.026204 0.181323
vt 0.020838 0.137438
vt 0.498022 0.285232
vt 0.727540 0.225207
vt 0.727022 0.285232
vt 0.957058 0.225207
vt 0.726504 0.345256
vt 0.956023 0.285232
vt 0.498022 0.345256
vt 0.498022 0.450808
vt 0.726504 0.450808
vt 0.954987 0.345256
vt 0.726504 0.556360
vt 0.954987 0.450808
vt 0.498022 0.556360
vt 0.712592 0.619264
vt 0.498022 0.619264
vt 0.927163 0.619264
vt 0.899340 0.682167
vt 0.698681 0.682167
vt 0.498022 0.682167
vt 0.667138 0.753113
vt 0.498022 0.753113
vt 0.836255 0.753113
vt 0.773170 0.824059
vt 0.635596 0.824059
vt 0.498022 0.824059
vt 0.578270 0.897481
vt 0.498022 0.897481
vt 0.658518 0.897481
vt 0.543866 0.970902
vt 0.520944 0.970902
vt 0.498022 0.970902
vt 0.498022 0.984444
vt 0.477078 0.984444
vt 0.498022 0.997987
vt 0.477078 0.970902
vt 0.456134 0.970902
vt 0.257825 0.069726
vt 0.256221 0.002013
vt 0.017629 0.069726
vt 0.729345 0.181323
vt 0.960669 0.181323
vt 0.268157 0.285232
vt 0.038292 0.285232
vt 0.271518 0.345256
vt 0.264796 0.225207
vt 0.271518 0.450808
vt 0.045013 0.450808
vt 0.271518 0.556360
vt 0.045013 0.345256
vt 0.285429 0.619264
vt 0.072837 0.619264
vt 0.299341 0.682167
vt 0.045013 0.556360
vt 0.330884 0.753113
vt 0.163745 0.753113
vt 0.362426 0.824059
vt 0.100660 0.682167
vt 0.419752 0.897481
vt 0.226830 0.824059
vt 0.520944 0.984444
vt 0.498022 0.069726
vt 0.731150 0.137438
vt 0.498022 0.137438
vt 0.732163 0.069726
vt 0.964279 0.137438
vt 0.733176 0.002013
vt 0.966304 0.069726
vt 0.498022 0.002013
vt 0.259430 0.137438
vt 0.026204 0.181323
vt 0.020838 0.137438
vt 0.262113 0.181323
vt 0.031570 0.225207
vt 0.498022 0.225207
vt 0.498022 0.181323
vt 0.727022 0.285232
vt 0.498022 0.345256
vt 0.498022 0.285232
vt 0.956023 0.285232
vt 0.726504 0.345256
vt 0.957058 0.225207
vt 0.727540 0.225207
vt 0.726504 0.450808
vt 0.498022 0.556360
vt 0.498022 0.450808
vt 0.954987 0.450808
vt 0.726504 0.556360
vt 0.954987 0.345256
vt 0.498022 0.619264
vt 0.698681 0.682167
vt 0.498022 0.682167
vt 0.712592 0.619264
vt 0.899340 0.682167
vt 0.927163 0.619264
vt 0.498022 0.753113
vt 0.635596 0.824059
vt 0.498022 0.824059
vt 0.667138 0.753113
vt 0.773170 0.824059
vt 0.836255 0.753113
vt 0.578270 0.897481
vt 0.498022 0.970902
vt 0.498022 0.897481
vt 0.543866 0.970902
vt 0.520944 0.970902
vt 0.658518 0.897481
vt 0.498022 0.984444
vt 0.477078 0.970902
vt 0.477078 0.984444
vt 0.456134 0.970902
vt 0.498022 0.997987
vt 0.256221 0.002013
vt 0.017629 0.069726
vt 0.257825 0.069726
vt 0.729345 0.181323
vt 0.960669 0.181323
vt 0.264796 0.225207
vt 0.268157 0.285232
vt 0.271518 0.345256
vt 0.038292 0.285232
vt 0.271518 0.450808
vt 0.045013 0.345256
vt 0.271518 0.556360
vt 0.045013 0.450808
vt 0.285429 0.619264
vt 0.045013 0.556360
vt 0.299341 0.682167
vt 0.072837 0.619264
vt 0.330884 0.753113
vt 0.100660 0.682167
vt 0.362426 0.824059
vt 0.163745 0.753113
vt 0.419752 0.897481
vt 0.226830 0.824059
vt 0.520944 0.984444
vt 0.968329 0.002013
vt 0.954987 0.556360
vt 0.014420 0.002013
vt 0.341482 0.897481
vt 0.968329 0.002013
vt 0.954987 0.556360
vt 0.014420 0.002013
vt 0.341482 0.897481
vn 0.6068 -0.0140 0.7947
vn 0.5722 -0.0100 0.8201
vn 0.5180 -0.0103 0.8553
vn 0.5822 -0.0139 0.8129
vn 0.6947 -0.0141 0.7192
vn 0.7157 -0.0494 0.6966
vn 0.7489 -0.0460 0.6610
vn 0.7570 -0.0155 0.6533
vn 0.5530 -0.1028 0.8268
vn 0.5060 -0.0927 0.8575
vn 0.4948 -0.1723 0.8518
vn 0.5102 -0.1715 0.8428
vn 0.5014 -0.2392 0.8315
vn 0.4314 -0.2225 0.8743
vn 0.4346 -0.3113 0.8451
vn 0.4489 -0.3055 0.8397
vn 0.4204 -0.4223 0.8030
vn 0.4306 -0.4177 0.8000
vn 0.3187 -0.5272 0.7877
vn 0.3962 -0.5479 0.7367
vn 0.2978 -0.6764 0.6737
vn 0.4959 -0.7503 0.4372
vn 0.2467 -0.9691 0.0028
vn 0.1378 -0.9384 0.3169
vn -0.1387 -0.9866 0.0864
vn -0.0225 -0.9891 -0.1454
vn -0.1549 -0.9300 -0.3332
vn -0.2785 -0.9592 -0.0489
vn -0.6874 -0.7102 0.1519
vn -0.5941 -0.7595 0.2648
vn -0.3507 -0.9166 -0.1919
vn -0.5729 -0.7957 0.1967
vn 0.6946 -0.0147 0.7192
vn 0.7582 -0.0116 0.6519
vn 0.7049 -0.0106 0.7092
vn 0.6383 -0.0142 0.7696
vn 0.5603 -0.0174 0.8281
vn 0.5214 -0.0133 0.8532
vn 0.5112 -0.0442 0.8584
vn 0.5596 -0.0457 0.8275
vn 0.7441 -0.1925 0.6397
vn 0.7583 -0.1963 0.6216
vn 0.7637 -0.1053 0.6370
vn 0.7162 -0.1115 0.6889
vn 0.7507 -0.3533 0.5582
vn 0.7603 -0.3640 0.5379
vn 0.8003 -0.2660 0.5374
vn 0.7317 -0.2678 0.6269
vn 0.6699 -0.6127 0.4193
vn 0.6306 -0.6212 0.4652
vn 0.6837 -0.4731 0.5555
vn 0.6783 -0.4802 0.5562
vn 0.3309 -0.9433 -0.0247
vn 0.1200 -0.9627 0.2427
vn 0.6031 -0.7470 0.2798
vn 0.5538 -0.7535 0.3543
vn -0.0820 -0.9220 -0.3783
vn -0.2605 -0.9522 -0.1596
vn -0.0568 -0.9955 -0.0752
vn 0.0223 -0.9796 -0.1998
vn -0.1883 -0.8756 -0.4449
vn 0.0454 -0.6494 -0.7591
vn -0.0287 -0.5766 -0.8165
vn 0.0141 -0.6818 -0.7314
vn -0.5822 0.0139 -0.8129
vn -0.5180 0.0103 -0.8553
vn -0.5722 0.0100 -0.8201
vn -0.6068 0.0140 -0.7947
vn -0.7570 0.0155 -0.6533
vn -0.7489 0.0460 -0.6610
vn -0.7157 0.0494 -0.6966
vn -0.6947 0.0141 -0.7192
vn -0.5102 0.1715 -0.8428
vn -0.4948 0.1723 -0.8518
vn -0.5060 0.0927 -0.8575
vn -0.5530 0.1028 -0.8268
vn -0.4489 0.3055 -0.8397
vn -0.4346 0.3113 -0.8451
vn -0.4314 0.2225 -0.8743
vn -0.5014 0.2392 -0.8315
vn -0.3962 0.5479 -0.7367
vn -0.3187 0.5272 -0.7877
vn -0.4306 0.4177 -0.8000
vn -0.4205 0.4223 -0.8030
vn -0.1378 0.9384 -0.3169
vn -0.2467 0.9691 -0.0028
vn -0.4959 0.7503 -0.4372
vn -0.2978 0.6764 -0.6737
vn 0.2785 0.9592 0.0489
vn 0.1549 0.9300 0.3332
vn 0.0225 0.9891 0.1454
vn 0.1387 0.9866 -0.0864
vn 0.3507 0.9166 0.1919
vn 0.5941 0.7595 -0.2648
vn 0.6874 0.7102 -0.1519
vn 0.5729 0.7957 -0.1967
vn -0.6383 0.0142 -0.7696
vn -0.7049 0.0106 -0.7092
vn -0.7582 0.0116 -0.6519
vn -0.6946 0.0147 -0.7192
vn -0.5596 0.0457 -0.8275
vn -0.5112 0.0442 -0.8584
vn -0.5214 0.0133 -0.8532
vn -0.5603 0.0174 -0.8281
vn -0.7162 0.1115 -0.6889
vn -0.7637 0.1053 -0.6370
vn -0.7583 0.1963 -0.6216
vn -0.7441 0.1925 -0.6397
vn -0.7317 0.2678 -0.6269
vn -0.8003 0.2660 -0.5374
vn -0.7603 0.3640 -0.5379
vn -0.7507 0.3533 -0.5582
vn -0.6783 0.4802 -0.5562
vn -0.6838 0.4731 -0.5555
vn -0.6306 0.6212 -0.4652
vn -0.6699 0.6127 -0.4193
vn -0.5538 0.7535 -0.3543
vn -0.6031 0.7470 -0.2798
vn -0.1200 0.9627 -0.2427
vn -0.3309 0.9433 0.0247
vn -0.0223 0.9796 0.1998
vn 0.0568 0.9955 0.0753
vn 0.2605 0.9522 0.1596
vn 0.0820 0.9220 0.3783
vn 0.0287 0.5766 0.8165
vn -0.0454 0.6494 0.7591
vn 0.1883 0.8756 0.4449
vn -0.0141 0.6818 0.7314
vn 0.6385 -0.0097 0.7695
vn 0.6384 -0.0000 0.7697
vn 0.5703 -0.0012 0.8215
vn 0.6068 -0.0100 0.7948
vn 0.7163 -0.0188 0.6975
vn 0.7177 -0.0490 0.6946
vn 0.7636 -0.0501 0.6437
vn 0.7548 -0.0149 0.6558
vn 0.5224 -0.0937 0.8475
vn 0.5251 -0.0983 0.8453
vn 0.4720 -0.1645 0.8661
vn 0.5214 -0.1753 0.8351
vn 0.4752 -0.2296 0.8494
vn 0.4712 -0.2379 0.8493
vn 0.4793 -0.3314 0.8126
vn 0.4930 -0.3244 0.8073
vn 0.4556 -0.4251 0.7821
vn 0.4541 -0.4197 0.7859
vn 0.3960 -0.5394 0.7431
vn 0.3518 -0.5419 0.7633
vn 0.3154 -0.6795 0.6625
vn 0.2376 -0.7116 0.6612
vn 0.1707 -0.9790 0.1114
vn 0.0230 -0.9027 0.4296
vn -0.1288 -0.9891 0.0719
vn -0.0707 -0.9951 -0.0694
vn -0.1255 -0.9181 -0.3760
vn -0.0579 -0.8703 -0.4892
vn 0.6701 -0.0104 0.7422
vn 0.7068 -0.0013 0.7074
vn 0.6386 -0.0000 0.7695
vn 0.6701 -0.0102 0.7422
vn 0.5822 -0.0133 0.8130
vn 0.5192 -0.0138 0.8545
vn 0.5263 -0.0411 0.8493
vn 0.5575 -0.0452 0.8289
vn 0.7323 -0.1946 0.6526
vn 0.7818 -0.1914 0.5935
vn 0.7441 -0.1096 0.6590
vn 0.7475 -0.1046 0.6560
vn 0.7043 -0.3594 0.6122
vn 0.7133 -0.3710 0.5945
vn 0.7599 -0.2739 0.5896
vn 0.7587 -0.2637 0.5956
vn 0.6294 -0.6211 0.4669
vn 0.7083 -0.6016 0.3692
vn 0.7067 -0.4700 0.5289
vn 0.7105 -0.4756 0.5186
vn 0.2174 -0.9714 0.0957
vn 0.0376 -0.9500 0.3101
vn 0.3252 -0.7777 0.5379
vn 0.5703 -0.7494 0.3364
vn -0.3640 -0.9313 0.0154
vn -0.2877 -0.9515 -0.1088
vn -0.1167 -0.9931 -0.0106
vn 0.0334 -0.9764 -0.2132
vn -0.6068 0.0100 -0.7948
vn -0.5703 0.0012 -0.8215
vn -0.6384 0.0000 -0.7697
vn -0.6385 0.0097 -0.7695
vn -0.7548 0.0149 -0.6558
vn -0.7636 0.0501 -0.6437
vn -0.7177 0.0490 -0.6946
vn -0.7163 0.0188 -0.6975
vn -0.5214 0.1753 -0.8351
vn -0.4720 0.1645 -0.8661
vn -0.5251 0.0983 -0.8453
vn -0.5224 0.0937 -0.8475
vn -0.4930 0.3244 -0.8073
vn -0.4793 0.3314 -0.8126
vn -0.4712 0.2379 -0.8493
vn -0.4752 0.2296 -0.8494
vn -0.3518 0.5419 -0.7633
vn -0.3960 0.5394 -0.7431
vn -0.4541 0.4197 -0.7859
vn -0.4556 0.4251 -0.7821
vn -0.0230 0.9027 -0.4296
vn -0.1707 0.9790 -0.1114
vn -0.2376 0.7116 -0.6612
vn -0.3154 0.6795 -0.6625
vn 0.0579 0.8703 0.4892
vn 0.1255 0.9181 0.3760
vn 0.0707 0.9951 0.0694
vn 0.1288 0.9891 -0.0719
vn -0.6701 0.0102 -0.7422
vn -0.6386 0.0000 -0.7695
vn -0.7068 0.0013 -0.7074
vn -0.6701 0.0104 -0.7422
vn -0.5575 0.0452 -0.8289
vn -0.5263 0.0411 -0.8493
vn -0.5192 0.0138 -0.8545
vn -0.5822 0.0133 -0.8130
vn -0.7475 0.1046 -0.6560
vn -0.7441 0.1096 -0.6590
vn -0.7818 0.1914 -0.5935
vn -0.7323 0.1946 -0.6526
vn -0.7587 0.2637 -0.5956
vn -0.7599 0.2739 -0.5896
vn -0.7133 0.3710 -0.5945
vn -0.7043 0.3594 -0.6122
vn -0.7105 0.4756 -0.5186
vn -0.7067 0.4700 -0.5289
vn -0.7083 0.6016 -0.3692
vn -0.6294 0.6211 -0.4669
vn -0.5703 0.7494 -0.3364
vn -0.3252 0.7777 -0.5379
vn -0.0376 0.9500 -0.3101
vn -0.2174 0.9714 -0.0957
vn -0.0334 0.9764 0.2132
vn 0.1167 0.9931 0.0106
vn 0.2877 0.9515 0.1088
vn 0.3640 0.9313 -0.0154
usemtl Material.001
s off
f 2/1/1 4/2/1 1/3/1
f 5/4/2 3/5/2 2/1/2
f 8/6/3 2/1/3 7/7/3
f 7/7/4 1/3/4 9/8/4
f 11/9/5 9/8/5 10/10/5
f 11/9/6 14/11/6 12/12/6
f 16/13/7 11/9/7 15/14/7
f 15/14/8 10/10/8 17/15/8
f 18/16/9 20/17/9 14/11/9
f 19/18/10 22/19/10 20/17/10
f 23/20/11 21/21/11 19/18/11
f 25/22/12 19/18/12 18/16/12
f 26/23/13 23/20/13 25/22/13
f 27/24/14 24/25/14 23/20/14
f 29/26/15 28/27/15 27/24/15
f 31/28/16 27/24/16 26/23/16
f 33/29/17 31/28/17 32/30/17
f 34/31/18 29/26/18 33/29/18
f 36/32/19 33/29/19 35/33/19
f 35/33/20 32/30/20 37/34/20
f 39/35/21 37/34/21 38/36/21
f 40/37/22 35/33/22 39/35/22
f 42/38/23 39/35/23 41/39/23
f 41/39/24 38/36/24 43/40/24
f 45/41/25 43/40/25 44/42/25
f 46/43/26 41/39/26 45/41/26
f 48/44/27 45/41/27 47/45/27
f 49/46/28 45/41/28 44/42/28
f 50/47/29 51/48/29 52/49/29
f 53/50/30 54/51/30 51/48/30
f 50/47/31 49/46/31 53/50/31
f 50/47/32 53/50/32 51/48/32
f 1/3/33 10/10/33 9/8/33
f 55/52/34 17/15/34 10/10/34
f 57/53/35 56/54/35 55/52/35
f 57/53/36 1/3/36 4/2/36
f 59/55/37 9/8/37 12/12/37
f 60/56/38 7/7/38 59/55/38
f 22/19/39 59/55/39 20/17/39
f 14/11/40 59/55/40 12/12/40
f 61/57/41 25/22/41 18/16/41
f 63/58/42 62/59/42 61/57/42
f 16/13/43 61/57/43 13/60/43
f 13/60/44 18/16/44 14/11/44
f 65/61/45 31/28/45 26/23/45
f 67/62/46 66/63/46 65/61/46
f 64/64/47 65/61/47 62/59/47
f 62/59/48 26/23/48 25/22/48
f 69/65/49 37/34/49 32/30/49
f 71/66/50 70/67/50 69/65/50
f 68/68/51 69/65/51 66/63/51
f 66/63/52 32/30/52 31/28/52
f 73/69/53 43/40/53 38/36/53
f 75/70/54 74/71/54 73/69/54
f 72/72/55 73/69/55 70/67/55
f 70/67/56 38/36/56 37/34/56
f 77/73/57 49/46/57 44/42/57
f 77/73/58 54/51/58 53/50/58
f 76/74/59 77/73/59 74/71/59
f 74/71/60 44/42/60 43/40/60
f 50/47/61 47/45/61 49/46/61
f 79/75/62 48/44/62 47/45/62
f 50/47/63 52/49/63 79/75/63
f 50/47/64 79/75/64 47/45/64
f 80/76/65 82/77/65 83/78/65
f 81/79/66 85/80/66 82/77/66
f 86/81/67 84/82/67 81/79/67
f 88/83/68 81/79/68 80/76/68
f 89/84/69 91/85/69 92/86/69
f 90/87/70 94/88/70 91/85/70
f 96/89/71 90/87/71 95/90/71
f 83/78/72 90/87/72 89/84/72
f 98/91/73 100/92/73 97/93/73
f 101/94/74 99/95/74 98/91/74
f 104/96/75 98/91/75 103/97/75
f 103/97/76 97/93/76 96/89/76
f 106/98/77 108/99/77 105/100/77
f 109/101/78 107/102/78 106/98/78
f 102/103/79 106/98/79 99/95/79
f 99/95/80 105/100/80 100/92/80
f 111/104/81 113/105/81 114/106/81
f 112/107/82 116/108/82 113/105/82
f 107/102/83 115/109/83 112/107/83
f 108/99/84 112/107/84 111/104/84
f 117/110/85 119/111/85 120/112/85
f 118/113/86 122/114/86 119/111/86
f 113/105/87 121/115/87 118/113/87
f 114/106/88 118/113/88 117/110/88
f 124/116/89 126/117/89 123/118/89
f 124/116/90 128/119/90 125/120/90
f 119/111/91 127/121/91 124/116/91
f 120/112/92 124/116/92 123/118/92
f 129/122/93 130/123/93 126/117/93
f 131/124/94 132/125/94 130/123/94
f 129/122/95 133/126/95 131/124/95
f 129/122/96 131/124/96 130/123/96
f 80/76/97 135/127/97 88/83/97
f 136/128/98 135/127/98 134/129/98
f 92/86/99 134/129/99 89/84/99
f 89/84/100 80/76/100 83/78/100
f 138/130/101 96/89/101 95/90/101
f 138/130/102 104/96/102 103/97/102
f 82/77/103 139/131/103 138/130/103
f 83/78/104 138/130/104 95/90/104
f 97/93/105 93/132/105 96/89/105
f 140/133/106 94/88/106 93/132/106
f 142/134/107 141/135/107 140/133/107
f 100/92/108 140/133/108 97/93/108
f 105/100/109 142/134/109 100/92/109
f 144/136/110 143/137/110 142/134/110
f 146/138/111 145/139/111 144/136/111
f 108/99/112 144/136/112 105/100/112
f 111/104/113 146/138/113 108/99/113
f 148/140/114 147/141/114 146/138/114
f 150/142/115 149/143/115 148/140/115
f 114/106/116 148/140/116 111/104/116
f 117/110/117 150/142/117 114/106/117
f 152/144/118 151/145/118 150/142/118
f 154/146/119 153/147/119 152/144/119
f 120/112/120 152/144/120 117/110/120
f 123/118/121 154/146/121 120/112/121
f 156/148/122 155/149/122 154/146/122
f 132/125/123 156/148/123 130/123/123
f 126/117/124 156/148/124 123/118/124
f 129/122/125 158/150/125 133/126/125
f 125/120/126 128/119/126 158/150/126
f 129/122/127 126/117/127 125/120/127
f 129/122/128 125/120/128 158/150/128
f 2/1/129 3/5/129 4/2/129
f 5/4/130 6/151/130 3/5/130
f 8/6/131 5/4/131 2/1/131
f 7/7/132 2/1/132 1/3/132
f 11/9/133 12/12/133 9/8/133
f 11/9/134 13/60/134 14/11/134
f 16/13/135 13/60/135 11/9/135
f 15/14/136 11/9/136 10/10/136
f 18/16/137 19/18/137 20/17/137
f 19/18/138 21/21/138 22/19/138
f 23/20/139 24/25/139 21/21/139
f 25/22/140 23/20/140 19/18/140
f 26/23/141 27/24/141 23/20/141
f 27/24/142 28/27/142 24/25/142
f 29/26/143 30/152/143 28/27/143
f 31/28/144 29/26/144 27/24/144
f 33/29/145 29/26/145 31/28/145
f 34/31/146 30/152/146 29/26/146
f 36/32/147 34/31/147 33/29/147
f 35/33/148 33/29/148 32/30/148
f 39/35/149 35/33/149 37/34/149
f 40/37/150 36/32/150 35/33/150
f 42/38/151 40/37/151 39/35/151
f 41/39/152 39/35/152 38/36/152
f 45/41/153 41/39/153 43/40/153
f 46/43/154 42/38/154 41/39/154
f 48/44/155 46/43/155 45/41/155
f 49/46/156 47/45/156 45/41/156
f 1/3/157 55/52/157 10/10/157
f 55/52/158 56/54/158 17/15/158
f 57/53/159 58/153/159 56/54/159
f 57/53/160 55/52/160 1/3/160
f 59/55/161 7/7/161 9/8/161
f 60/56/162 8/6/162 7/7/162
f 22/19/163 60/56/163 59/55/163
f 14/11/164 20/17/164 59/55/164
f 61/57/165 62/59/165 25/22/165
f 63/58/166 64/64/166 62/59/166
f 16/13/167 63/58/167 61/57/167
f 13/60/168 61/57/168 18/16/168
f 65/61/169 66/63/169 31/28/169
f 67/62/170 68/68/170 66/63/170
f 64/64/171 67/62/171 65/61/171
f 62/59/172 65/61/172 26/23/172
f 69/65/173 70/67/173 37/34/173
f 71/66/174 72/72/174 70/67/174
f 68/68/175 71/66/175 69/65/175
f 66/63/176 69/65/176 32/30/176
f 73/69/177 74/71/177 43/40/177
f 75/70/178 76/74/178 74/71/178
f 72/72/179 75/70/179 73/69/179
f 70/67/180 73/69/180 38/36/180
f 77/73/181 53/50/181 49/46/181
f 77/73/182 78/154/182 54/51/182
f 76/74/183 78/154/183 77/73/183
f 74/71/184 77/73/184 44/42/184
f 80/76/185 81/79/185 82/77/185
f 81/79/186 84/82/186 85/80/186
f 86/81/187 87/155/187 84/82/187
f 88/83/188 86/81/188 81/79/188
f 89/84/189 90/87/189 91/85/189
f 90/87/190 93/132/190 94/88/190
f 96/89/191 93/132/191 90/87/191
f 83/78/192 95/90/192 90/87/192
f 98/91/193 99/95/193 100/92/193
f 101/94/194 102/103/194 99/95/194
f 104/96/195 101/94/195 98/91/195
f 103/97/196 98/91/196 97/93/196
f 106/98/197 107/102/197 108/99/197
f 109/101/198 110/156/198 107/102/198
f 102/103/199 109/101/199 106/98/199
f 99/95/200 106/98/200 105/100/200
f 111/104/201 112/107/201 113/105/201
f 112/107/202 115/109/202 116/108/202
f 107/102/203 110/156/203 115/109/203
f 108/99/204 107/102/204 112/107/204
f 117/110/205 118/113/205 119/111/205
f 118/113/206 121/115/206 122/114/206
f 113/105/207 116/108/207 121/115/207
f 114/106/208 113/105/208 118/113/208
f 124/116/209 125/120/209 126/117/209
f 124/116/210 127/121/210 128/119/210
f 119/111/211 122/114/211 127/121/211
f 120/112/212 119/111/212 124/116/212
f 80/76/213 134/129/213 135/127/213
f 136/128/214 137/157/214 135/127/214
f 92/86/215 136/128/215 134/129/215
f 89/84/216 134/129/216 80/76/216
f 138/130/217 103/97/217 96/89/217
f 138/130/218 139/131/218 104/96/218
f 82/77/219 85/80/219 139/131/219
f 83/78/220 82/77/220 138/130/220
f 97/93/221 140/133/221 93/132/221
f 140/133/222 141/135/222 94/88/222
f 142/134/223 143/137/223 141/135/223
f 100/92/224 142/134/224 140/133/224
f 105/100/225 144/136/225 142/134/225
f 144/136/226 145/139/226 143/137/226
f 146/138/227 147/141/227 145/139/227
f 108/99/228 146/138/228 144/136/228
f 111/104/229 148/140/229 146/138/229
f 148/140/230 149/143/230 147/141/230
f 150/142/231 151/145/231 149/143/231
f 114/106/232 150/142/232 148/140/232
f 117/110/233 152/144/233 150/142/233
f 152/144/234 153/147/234 151/145/234
f 154/146/235 155/149/235 153/147/235
f 120/112/236 154/146/236 152/144/236
f 123/118/237 156/148/237 154/146/237
f 156/148/238 157/158/238 155/149/238
f 132/125/239 157/158/239 156/148/239
f 126/117/240 130/123/240 156/148/240
