# Blender v2.79 (sub 0) OBJ File: ''
# www.blender.org
mtllib large_1.mtl
o Grass_20.006
v -0.344988 0.789858 0.081025
v -0.343986 0.789972 0.098179
v -0.276108 0.694266 0.087145
v -0.277560 0.694374 0.069223
v -0.338568 0.788358 0.114835
v -0.271338 0.697026 0.105493
v -0.406032 0.870252 0.106141
v -0.400872 0.865782 0.120829
v -0.407076 0.871704 0.090829
v -0.002130 -0.000000 0.015283
v -0.018654 0.101256 0.025657
v -0.018648 0.101850 0.009025
v -0.001212 -0.000000 -0.000599
v -0.045084 0.215880 0.036961
v -0.044646 0.215274 0.019573
v -0.019596 0.105864 0.042955
v -0.047280 0.223896 0.055183
v -0.001302 -0.000000 0.031429
v -0.087498 0.347604 0.031537
v -0.082962 0.352176 0.014797
v -0.041514 0.220014 0.003253
v -0.080412 0.358674 -0.000947
v -0.040338 0.231750 -0.012107
v -0.140064 0.484026 0.027325
v -0.134850 0.485040 0.011203
v -0.143934 0.480006 0.044221
v -0.208980 0.593508 0.056833
v -0.204714 0.599634 0.039937
v -0.198534 0.604074 0.023983
v -0.273588 0.700320 0.052645
v -0.266334 0.709026 0.037027
v -0.277560 0.694374 0.069223
v -0.344988 0.789858 0.081025
v -0.341574 0.795756 0.065179
v -0.333810 0.799770 0.049753
v -0.403842 0.875502 0.076171
v -0.396540 0.876168 0.061579
v -0.407076 0.871704 0.090829
v -0.462534 0.931398 0.097237
v -0.460668 0.936012 0.084739
v -0.460446 0.937164 0.072127
v -0.525678 0.978456 0.090625
v -0.531444 0.981696 0.081013
v -0.525360 0.975396 0.100351
v -0.606420 1.010706 0.100681
v -0.607140 1.013130 0.094675
v -0.603678 1.012200 0.088069
v -0.690582 1.036338 0.097105
v -0.669216 1.031166 0.093265
v -0.684756 1.034646 0.099697
v -0.719166 1.042566 0.099199
v -0.718290 1.041336 0.101023
v -0.732552 1.044072 0.098953
v -0.690960 1.035438 0.102241
v -0.670230 1.028748 0.107059
v -0.462534 0.931398 0.097237
v -0.462558 0.931470 0.110623
v -0.464136 0.928314 0.122635
v -0.527118 0.975000 0.110329
v -0.534252 0.974964 0.119413
v -0.525360 0.975396 0.100351
v -0.014952 0.103584 -0.007019
v 0.001452 0.000000 -0.016211
v -0.012342 0.110202 -0.022307
v 0.005868 0.000000 -0.031565
v -0.086178 0.346776 0.049363
v -0.142884 0.478104 0.062371
v -0.086814 0.348324 0.067951
v -0.140652 0.473376 0.081115
v -0.207312 0.593478 0.075163
v -0.276108 0.694266 0.087145
v -0.203820 0.591972 0.093889
v -0.271338 0.697026 0.105493
v -0.343986 0.789972 0.098179
v -0.406032 0.870252 0.106141
v -0.338568 0.788358 0.114835
v -0.400872 0.865782 0.120829
v -0.462558 0.931470 0.110623
v -0.527118 0.975000 0.110329
v -0.464136 0.928314 0.122635
v -0.534252 0.974964 0.119413
v -0.608040 1.010976 0.106987
v -0.605532 1.007748 0.113473
v -0.718026 1.041966 0.097435
v -0.606420 1.010706 0.100681
v -0.608040 1.010976 0.106987
v -0.605532 1.007748 0.113473
v -0.690960 1.035438 0.102241
v -0.670230 1.028748 0.107059
v -0.684756 1.034646 0.099697
v -0.002130 -0.000000 0.015283
v -0.018654 0.101256 0.025657
v -0.019596 0.105864 0.042955
v -0.001302 -0.000000 0.031429
v -0.045084 0.215880 0.036961
v -0.047280 0.223896 0.055183
v -0.018648 0.101850 0.009025
v -0.044646 0.215274 0.019573
v -0.001212 -0.000000 -0.000599
v -0.087498 0.347604 0.031537
v -0.082962 0.352176 0.014797
v -0.140064 0.484026 0.027325
v -0.143934 0.480006 0.044221
v -0.080412 0.358674 -0.000947
v -0.134850 0.485040 0.011203
v -0.041514 0.220014 0.003253
v -0.040338 0.231750 -0.012107
v -0.208980 0.593508 0.056833
v -0.204714 0.599634 0.039937
v -0.273588 0.700320 0.052645
v -0.198534 0.604074 0.023983
v -0.266334 0.709026 0.037027
v -0.341574 0.795756 0.065179
v -0.403842 0.875502 0.076171
v -0.333810 0.799770 0.049753
v -0.396540 0.876168 0.061579
v -0.460668 0.936012 0.084739
v -0.525678 0.978456 0.090625
v -0.460446 0.937164 0.072127
v -0.531444 0.981696 0.081013
v -0.607140 1.013130 0.094675
v -0.690582 1.036338 0.097105
v -0.603678 1.012200 0.088069
v -0.669216 1.031166 0.093265
v -0.719166 1.042566 0.099199
v -0.718290 1.041336 0.101023
v -0.732552 1.044072 0.098953
v -0.718026 1.041966 0.097435
v -0.014952 0.103584 -0.007019
v -0.012342 0.110202 -0.022307
v 0.001452 0.000000 -0.016211
v 0.005868 0.000000 -0.031565
v -0.086178 0.346776 0.049363
v -0.086814 0.348324 0.067951
v -0.142884 0.478104 0.062371
v -0.140652 0.473376 0.081115
v -0.207312 0.593478 0.075163
v -0.203820 0.591972 0.093889
vt 0.498022 0.619264
vt 0.271518 0.556360
vt 0.498022 0.556360
vt 0.072837 0.619264
vt 0.285429 0.619264
vt 0.100660 0.682167
vt 0.299341 0.682167
vt 0.498022 0.682167
vt 0.259430 0.137438
vt 0.498022 0.181323
vt 0.498022 0.137438
vt 0.262113 0.181323
vt 0.498022 0.225207
vt 0.026204 0.181323
vt 0.264796 0.225207
vt 0.020838 0.137438
vt 0.498022 0.285232
vt 0.727540 0.225207
vt 0.727022 0.285232
vt 0.957058 0.225207
vt 0.726504 0.345256
vt 0.956023 0.285232
vt 0.498022 0.345256
vt 0.498022 0.450808
vt 0.954987 0.450808
vt 0.726504 0.450808
vt 0.726504 0.556360
vt 0.498022 0.556360
vt 0.498022 0.619264
vt 0.927163 0.619264
vt 0.712592 0.619264
vt 0.899340 0.682167
vt 0.698681 0.682167
vt 0.498022 0.682167
vt 0.498022 0.753113
vt 0.836255 0.753113
vt 0.667138 0.753113
vt 0.635596 0.824059
vt 0.498022 0.824059
vt 0.498022 0.897481
vt 0.658518 0.897481
vt 0.578270 0.897481
vt 0.543866 0.970902
vt 0.520944 0.970902
vt 0.498022 0.970902
vt 0.498022 0.984444
vt 0.477078 0.984444
vt 0.498022 0.997987
vt 0.477078 0.970902
vt 0.456134 0.970902
vt 0.498022 0.753113
vt 0.163745 0.753113
vt 0.330884 0.753113
vt 0.362426 0.824059
vt 0.498022 0.824059
vt 0.729345 0.181323
vt 0.964279 0.137438
vt 0.731150 0.137438
vt 0.960669 0.181323
vt 0.271518 0.345256
vt 0.038292 0.285232
vt 0.268157 0.285232
vt 0.031570 0.225207
vt 0.271518 0.450808
vt 0.045013 0.450808
vt 0.271518 0.556360
vt 0.285429 0.619264
vt 0.100660 0.682167
vt 0.299341 0.682167
vt 0.072837 0.619264
vt 0.330884 0.753113
vt 0.163745 0.753113
vt 0.362426 0.824059
vt 0.419752 0.897481
vt 0.341482 0.897481
vt 0.520944 0.984444
vt 0.498022 0.897481
vt 0.341482 0.897481
vt 0.419752 0.897481
vt 0.456134 0.970902
vt 0.477078 0.970902
vt 0.498022 0.970902
vt 0.262113 0.181323
vt 0.020838 0.137438
vt 0.259430 0.137438
vt 0.264796 0.225207
vt 0.026204 0.181323
vt 0.498022 0.225207
vt 0.498022 0.181323
vt 0.498022 0.137438
vt 0.727022 0.285232
vt 0.498022 0.345256
vt 0.498022 0.285232
vt 0.956023 0.285232
vt 0.726504 0.345256
vt 0.957058 0.225207
vt 0.727540 0.225207
vt 0.726504 0.450808
vt 0.498022 0.450808
vt 0.954987 0.450808
vt 0.726504 0.556360
vt 0.712592 0.619264
vt 0.899340 0.682167
vt 0.698681 0.682167
vt 0.927163 0.619264
vt 0.667138 0.753113
vt 0.836255 0.753113
vt 0.635596 0.824059
vt 0.578270 0.897481
vt 0.543866 0.970902
vt 0.520944 0.970902
vt 0.658518 0.897481
vt 0.498022 0.984444
vt 0.477078 0.984444
vt 0.498022 0.997987
vt 0.520944 0.984444
vt 0.729345 0.181323
vt 0.960669 0.181323
vt 0.964279 0.137438
vt 0.731150 0.137438
vt 0.268157 0.285232
vt 0.031570 0.225207
vt 0.271518 0.345256
vt 0.038292 0.285232
vt 0.045013 0.450808
vt 0.271518 0.450808
vt 0.045013 0.556360
vt 0.954987 0.345256
vt 0.954987 0.556360
vt 0.773170 0.824059
vt 0.226830 0.824059
vt 0.045013 0.345256
vt 0.045013 0.556360
vt 0.226830 0.824059
vt 0.954987 0.345256
vt 0.954987 0.556360
vt 0.773170 0.824059
vt 0.045013 0.345256
vn 0.8116 0.5808 -0.0623
vn 0.7882 0.5821 -0.2000
vn 0.7839 0.6146 -0.0883
vn 0.7928 0.6074 -0.0503
vn -0.9849 -0.1632 -0.0569
vn -0.9749 -0.2227 -0.0083
vn -0.9743 -0.2253 0.0070
vn -0.9848 -0.1659 0.0505
vn -0.9258 -0.2765 -0.2580
vn -0.9242 -0.2659 -0.2739
vn -0.8877 -0.3568 -0.2910
vn -0.8789 -0.3428 -0.3318
vn -0.8417 -0.4491 -0.2997
vn -0.8086 -0.4057 -0.4261
vn -0.7697 -0.4723 -0.4296
vn -0.7871 -0.4890 -0.3760
vn -0.7803 -0.5055 -0.3683
vn -0.7384 -0.4615 -0.4917
vn -0.7487 -0.5296 -0.3988
vn -0.7627 -0.5350 -0.3635
vn -0.7111 -0.6264 -0.3192
vn -0.7322 -0.6770 -0.0747
vn -0.5501 -0.8307 -0.0856
vn -0.5470 -0.7555 -0.3606
vn -0.3859 -0.8835 -0.2654
vn -0.3937 -0.9160 -0.0774
vn -0.2672 -0.9372 -0.2244
vn -0.2719 -0.9033 -0.3320
vn -0.0853 -0.8446 -0.5285
vn -0.1633 -0.8574 -0.4880
vn -0.2152 -0.9493 -0.2292
vn -0.1618 -0.8525 -0.4970
vn 0.7333 0.6797 0.0145
vn 0.7183 0.6439 0.2635
vn 0.5359 0.7966 0.2797
vn 0.5735 0.8192 -0.0034
vn -0.9611 -0.1422 -0.2368
vn -0.9533 -0.1266 -0.2742
vn -0.9494 -0.1948 -0.2464
vn -0.9508 -0.1956 -0.2402
vn -0.9194 -0.3931 0.0120
vn -0.9180 -0.3965 0.0016
vn -0.9535 -0.3010 0.0175
vn -0.9516 -0.3070 -0.0133
vn -0.8205 -0.5669 0.0737
vn -0.8153 -0.5692 0.1063
vn -0.8609 -0.4942 0.1208
vn -0.8677 -0.4971 -0.0019
vn -0.7928 -0.6074 0.0503
vn -0.7839 -0.6146 0.0883
vn -0.7882 -0.5821 0.2000
vn -0.8116 -0.5808 0.0623
vn -0.5735 -0.8192 0.0034
vn -0.5359 -0.7966 -0.2797
vn -0.7183 -0.6439 -0.2635
vn -0.7333 -0.6797 -0.0145
vn -0.2917 -0.9559 -0.0340
vn -0.2718 -0.9505 -0.1504
vn -0.3786 -0.8787 -0.2909
vn -0.3975 -0.9115 -0.1062
vn -0.2204 -0.9660 -0.1352
vn -0.1939 -0.9580 0.2112
vn -0.1128 -0.9606 0.2539
vn -0.1945 -0.9601 0.2009
vn 0.3975 0.9115 0.1062
vn 0.3786 0.8787 0.2909
vn 0.2718 0.9505 0.1504
vn 0.2917 0.9559 0.0340
vn 0.9848 0.1659 -0.0505
vn 0.9743 0.2253 -0.0070
vn 0.9749 0.2227 0.0083
vn 0.9849 0.1632 0.0569
vn 0.8789 0.3428 0.3318
vn 0.8877 0.3568 0.2910
vn 0.9242 0.2659 0.2739
vn 0.9258 0.2765 0.2580
vn 0.7871 0.4890 0.3760
vn 0.7697 0.4723 0.4296
vn 0.8086 0.4057 0.4261
vn 0.8417 0.4491 0.2997
vn 0.7627 0.5350 0.3635
vn 0.7487 0.5296 0.3988
vn 0.7384 0.4615 0.4917
vn 0.7803 0.5055 0.3683
vn 0.5470 0.7555 0.3606
vn 0.5501 0.8307 0.0856
vn 0.7322 0.6770 0.0747
vn 0.7111 0.6264 0.3192
vn 0.2719 0.9033 0.3320
vn 0.2672 0.9372 0.2244
vn 0.3937 0.9160 0.0774
vn 0.3859 0.8835 0.2654
vn 0.2152 0.9493 0.2292
vn 0.1633 0.8574 0.4880
vn 0.0853 0.8446 0.5285
vn 0.1618 0.8525 0.4970
vn 0.1128 0.9606 -0.2539
vn 0.1939 0.9580 -0.2112
vn 0.2204 0.9660 0.1352
vn 0.1945 0.9601 -0.2009
vn 0.9508 0.1956 0.2402
vn 0.9494 0.1948 0.2464
vn 0.9533 0.1266 0.2742
vn 0.9611 0.1422 0.2368
vn 0.9516 0.3070 0.0133
vn 0.9535 0.3010 -0.0175
vn 0.9180 0.3965 -0.0016
vn 0.9194 0.3931 -0.0120
vn 0.8677 0.4971 0.0019
vn 0.8609 0.4942 -0.1208
vn 0.8153 0.5692 -0.1063
vn 0.8205 0.5669 -0.0737
vn 0.8118 0.5817 -0.0513
vn 0.7577 0.5869 -0.2853
vn 0.7584 0.6247 -0.1862
vn 0.7914 0.6113 0.0040
vn -0.9870 -0.1604 -0.0061
vn -0.9747 -0.2231 -0.0168
vn -0.9738 -0.2266 -0.0177
vn -0.9855 -0.1694 -0.0086
vn -0.9123 -0.2584 -0.3178
vn -0.9268 -0.2696 -0.2614
vn -0.8842 -0.3513 -0.3080
vn -0.8883 -0.3573 -0.2885
vn -0.8295 -0.4242 -0.3633
vn -0.8535 -0.4241 -0.3027
vn -0.7260 -0.3994 -0.5598
vn -0.7890 -0.4935 -0.3660
vn -0.7820 -0.5100 -0.3583
vn -0.6966 -0.4384 -0.5679
vn -0.7097 -0.5070 -0.4891
vn -0.7688 -0.5571 -0.3140
vn -0.7101 -0.6195 -0.3347
vn -0.6734 -0.6422 -0.3663
vn -0.5283 -0.8485 0.0309
vn -0.5462 -0.8040 -0.2351
vn -0.3858 -0.8707 -0.3051
vn -0.3940 -0.9162 -0.0725
vn -0.2788 -0.9603 -0.0109
vn -0.2686 -0.9629 -0.0250
vn 0.7346 0.6785 -0.0023
vn 0.7022 0.7113 -0.0302
vn 0.4967 0.7737 0.3932
vn 0.5539 0.8223 0.1302
vn -0.9761 -0.1398 -0.1666
vn -0.9641 -0.1404 -0.2254
vn -0.9532 -0.2006 -0.2262
vn -0.9510 -0.1958 -0.2394
vn -0.9152 -0.4000 0.0492
vn -0.9181 -0.3962 0.0094
vn -0.9532 -0.3021 -0.0075
vn -0.9510 -0.3039 0.0563
vn -0.8208 -0.5677 0.0631
vn -0.7911 -0.5402 0.2869
vn -0.8831 -0.4690 -0.0131
vn -0.8667 -0.4927 0.0781
vn -0.7914 -0.6113 -0.0040
vn -0.7584 -0.6247 0.1862
vn -0.7577 -0.5869 0.2853
vn -0.8118 -0.5817 0.0513
vn -0.5539 -0.8223 -0.1302
vn -0.4967 -0.7737 -0.3932
vn -0.7022 -0.7113 0.0302
vn -0.7346 -0.6785 0.0023
vn -0.2502 -0.9115 -0.3264
vn -0.2579 -0.9011 -0.3487
vn -0.3778 -0.8759 -0.3002
vn -0.4032 -0.9129 -0.0645
vn 0.4032 0.9129 0.0645
vn 0.3778 0.8759 0.3002
vn 0.2579 0.9011 0.3487
vn 0.2502 0.9115 0.3264
vn 0.9855 0.1694 0.0086
vn 0.9738 0.2266 0.0177
vn 0.9747 0.2231 0.0168
vn 0.9870 0.1604 0.0061
vn 0.8883 0.3573 0.2885
vn 0.8842 0.3513 0.3080
vn 0.9268 0.2696 0.2614
vn 0.9123 0.2584 0.3178
vn 0.7890 0.4935 0.3660
vn 0.7260 0.3994 0.5598
vn 0.8535 0.4241 0.3027
vn 0.8295 0.4242 0.3633
vn 0.7688 0.5571 0.3140
vn 0.7097 0.5070 0.4891
vn 0.6966 0.4384 0.5679
vn 0.7820 0.5100 0.3583
vn 0.5462 0.8040 0.2351
vn 0.5283 0.8485 -0.0309
vn 0.6734 0.6422 0.3663
vn 0.7101 0.6195 0.3347
vn 0.2686 0.9629 0.0250
vn 0.2788 0.9603 0.0109
vn 0.3940 0.9162 0.0725
vn 0.3858 0.8707 0.3052
vn 0.9510 0.1958 0.2394
vn 0.9532 0.2006 0.2262
vn 0.9641 0.1404 0.2254
vn 0.9761 0.1398 0.1666
vn 0.9510 0.3039 -0.0563
vn 0.9532 0.3021 0.0075
vn 0.9181 0.3962 -0.0094
vn 0.9152 0.4000 -0.0492
vn 0.8667 0.4927 -0.0781
vn 0.8831 0.4690 0.0131
vn 0.7911 0.5402 -0.2869
vn 0.8208 0.5677 -0.0631
usemtl Material.001
s off
f 1/1/1 3/2/1 4/3/1
f 5/4/2 3/2/2 2/5/2
f 8/6/3 2/5/3 7/7/3
f 9/8/4 2/5/4 1/1/4
f 10/9/5 12/10/5 13/11/5
f 11/12/6 15/13/6 12/10/6
f 16/14/7 14/15/7 11/12/7
f 18/16/8 11/12/8 10/9/8
f 19/17/9 21/18/9 15/13/9
f 20/19/10 23/20/10 21/18/10
f 24/21/11 22/22/11 20/19/11
f 26/23/12 20/19/12 19/17/12
f 27/24/13 24/21/13 26/23/13
f 29/25/14 24/21/14 28/26/14
f 30/27/15 29/25/15 28/26/15
f 32/28/16 28/26/16 27/24/16
f 33/29/17 30/27/17 32/28/17
f 35/30/18 30/27/18 34/31/18
f 37/32/19 34/31/19 36/33/19
f 38/34/20 34/31/20 33/29/20
f 39/35/21 36/33/21 38/34/21
f 41/36/22 36/33/22 40/37/22
f 42/38/23 41/36/23 40/37/23
f 44/39/24 40/37/24 39/35/24
f 45/40/25 42/38/25 44/39/25
f 47/41/26 42/38/26 46/42/26
f 49/43/27 46/42/27 48/44/27
f 50/45/28 46/42/28 45/40/28
f 51/46/29 52/47/29 53/48/29
f 54/49/30 55/50/30 52/47/30
f 51/46/31 50/45/31 54/49/31
f 51/46/32 54/49/32 52/47/32
f 56/51/33 7/7/33 9/8/33
f 58/52/34 7/7/34 57/53/34
f 59/54/35 58/52/35 57/53/35
f 61/55/36 57/53/36 56/51/36
f 62/56/37 13/11/37 12/10/37
f 62/56/38 65/57/38 63/58/38
f 21/18/39 64/59/39 62/56/39
f 15/13/40 62/56/40 12/10/40
f 19/17/41 67/60/41 26/23/41
f 68/61/42 67/60/42 66/62/42
f 17/63/43 66/62/43 14/15/43
f 14/15/44 19/17/44 15/13/44
f 70/64/45 32/28/45 27/24/45
f 72/65/46 71/66/46 70/64/46
f 67/60/47 72/65/47 70/64/47
f 67/60/48 27/24/48 26/23/48
f 74/67/49 38/34/49 33/29/49
f 74/67/50 77/68/50 75/69/50
f 71/66/51 76/70/51 74/67/51
f 71/66/52 33/29/52 32/28/52
f 78/71/53 44/39/53 39/35/53
f 80/72/54 79/73/54 78/71/54
f 75/69/55 80/72/55 78/71/55
f 75/69/56 39/35/56 38/34/56
f 82/74/57 50/45/57 45/40/57
f 82/74/58 55/50/58 54/49/58
f 79/73/59 83/75/59 82/74/59
f 79/73/60 45/40/60 44/39/60
f 51/46/61 48/44/61 50/45/61
f 84/76/62 49/43/62 48/44/62
f 51/46/63 53/48/63 84/76/63
f 51/46/64 84/76/64 48/44/64
f 85/77/65 59/54/65 61/55/65
f 87/78/66 59/54/66 86/79/66
f 89/80/67 86/79/67 88/81/67
f 90/82/68 86/79/68 85/77/68
f 92/83/69 94/84/69 91/85/69
f 95/86/70 93/87/70 92/83/70
f 98/88/71 92/83/71 97/89/71
f 97/89/72 91/85/72 99/90/72
f 101/91/73 103/92/73 100/93/73
f 104/94/74 102/95/74 101/91/74
f 107/96/75 101/91/75 106/97/75
f 106/97/76 100/93/76 98/88/76
f 109/98/77 4/3/77 108/99/77
f 111/100/78 110/101/78 109/98/78
f 102/95/79 111/100/79 109/98/79
f 102/95/80 108/99/80 103/92/80
f 113/102/81 9/8/81 1/1/81
f 113/102/82 116/103/82 114/104/82
f 110/101/83 115/105/83 113/102/83
f 110/101/84 1/1/84 4/3/84
f 117/106/85 61/55/85 56/51/85
f 119/107/86 118/108/86 117/106/86
f 114/104/87 119/107/87 117/106/87
f 114/104/88 56/51/88 9/8/88
f 121/109/89 90/82/89 85/77/89
f 121/109/90 124/110/90 122/111/90
f 118/108/91 123/112/91 121/109/91
f 118/108/92 85/77/92 61/55/92
f 125/113/93 88/81/93 90/82/93
f 126/114/94 89/80/94 88/81/94
f 125/113/95 127/115/95 126/114/95
f 125/113/96 126/114/96 88/81/96
f 125/113/97 128/116/97 127/115/97
f 122/111/98 124/110/98 128/116/98
f 125/113/99 90/82/99 122/111/99
f 125/113/100 122/111/100 128/116/100
f 129/117/101 98/88/101 97/89/101
f 130/118/102 106/97/102 129/117/102
f 132/119/103 129/117/103 131/120/103
f 99/90/104 129/117/104 97/89/104
f 100/93/105 95/86/105 98/88/105
f 133/121/106 96/122/106 95/86/106
f 135/123/107 134/124/107 133/121/107
f 135/123/108 100/93/108 103/92/108
f 108/99/109 135/123/109 103/92/109
f 138/125/110 135/123/110 137/126/110
f 3/2/111 138/125/111 137/126/111
f 4/3/112 137/126/112 108/99/112
f 1/1/113 2/5/113 3/2/113
f 5/4/114 6/127/114 3/2/114
f 8/6/115 5/4/115 2/5/115
f 9/8/116 7/7/116 2/5/116
f 10/9/117 11/12/117 12/10/117
f 11/12/118 14/15/118 15/13/118
f 16/14/119 17/63/119 14/15/119
f 18/16/120 16/14/120 11/12/120
f 19/17/121 20/19/121 21/18/121
f 20/19/122 22/22/122 23/20/122
f 24/21/123 25/128/123 22/22/123
f 26/23/124 24/21/124 20/19/124
f 27/24/125 28/26/125 24/21/125
f 29/25/126 25/128/126 24/21/126
f 30/27/127 31/129/127 29/25/127
f 32/28/128 30/27/128 28/26/128
f 33/29/129 34/31/129 30/27/129
f 35/30/130 31/129/130 30/27/130
f 37/32/131 35/30/131 34/31/131
f 38/34/132 36/33/132 34/31/132
f 39/35/133 40/37/133 36/33/133
f 41/36/134 37/32/134 36/33/134
f 42/38/135 43/130/135 41/36/135
f 44/39/136 42/38/136 40/37/136
f 45/40/137 46/42/137 42/38/137
f 47/41/138 43/130/138 42/38/138
f 49/43/139 47/41/139 46/42/139
f 50/45/140 48/44/140 46/42/140
f 56/51/141 57/53/141 7/7/141
f 58/52/142 8/6/142 7/7/142
f 59/54/143 60/131/143 58/52/143
f 61/55/144 59/54/144 57/53/144
f 62/56/145 63/58/145 13/11/145
f 62/56/146 64/59/146 65/57/146
f 21/18/147 23/20/147 64/59/147
f 15/13/148 21/18/148 62/56/148
f 19/17/149 66/62/149 67/60/149
f 68/61/150 69/132/150 67/60/150
f 17/63/151 68/61/151 66/62/151
f 14/15/152 66/62/152 19/17/152
f 70/64/153 71/66/153 32/28/153
f 72/65/154 73/133/154 71/66/154
f 67/60/155 69/132/155 72/65/155
f 67/60/156 70/64/156 27/24/156
f 74/67/157 75/69/157 38/34/157
f 74/67/158 76/70/158 77/68/158
f 71/66/159 73/133/159 76/70/159
f 71/66/160 74/67/160 33/29/160
f 78/71/161 79/73/161 44/39/161
f 80/72/162 81/134/162 79/73/162
f 75/69/163 77/68/163 80/72/163
f 75/69/164 78/71/164 39/35/164
f 82/74/165 54/49/165 50/45/165
f 82/74/166 83/75/166 55/50/166
f 79/73/167 81/134/167 83/75/167
f 79/73/168 82/74/168 45/40/168
f 85/77/169 86/79/169 59/54/169
f 87/78/170 60/131/170 59/54/170
f 89/80/171 87/78/171 86/79/171
f 90/82/172 88/81/172 86/79/172
f 92/83/173 93/87/173 94/84/173
f 95/86/174 96/122/174 93/87/174
f 98/88/175 95/86/175 92/83/175
f 97/89/176 92/83/176 91/85/176
f 101/91/177 102/95/177 103/92/177
f 104/94/178 105/135/178 102/95/178
f 107/96/179 104/94/179 101/91/179
f 106/97/180 101/91/180 100/93/180
f 109/98/181 110/101/181 4/3/181
f 111/100/182 112/136/182 110/101/182
f 102/95/183 105/135/183 111/100/183
f 102/95/184 109/98/184 108/99/184
f 113/102/185 114/104/185 9/8/185
f 113/102/186 115/105/186 116/103/186
f 110/101/187 112/136/187 115/105/187
f 110/101/188 113/102/188 1/1/188
f 117/106/189 118/108/189 61/55/189
f 119/107/190 120/137/190 118/108/190
f 114/104/191 116/103/191 119/107/191
f 114/104/192 117/106/192 56/51/192
f 121/109/193 122/111/193 90/82/193
f 121/109/194 123/112/194 124/110/194
f 118/108/195 120/137/195 123/112/195
f 118/108/196 121/109/196 85/77/196
f 129/117/197 106/97/197 98/88/197
f 130/118/198 107/96/198 106/97/198
f 132/119/199 130/118/199 129/117/199
f 99/90/200 131/120/200 129/117/200
f 100/93/201 133/121/201 95/86/201
f 133/121/202 134/124/202 96/122/202
f 135/123/203 136/138/203 134/124/203
f 135/123/204 133/121/204 100/93/204
f 108/99/205 137/126/205 135/123/205
f 138/125/206 136/138/206 135/123/206
f 3/2/207 6/127/207 138/125/207
f 4/3/208 3/2/208 137/126/208
