# Blender v2.79 (sub 0) OBJ File: ''
# www.blender.org
mtllib large_3_low.mtl
o Grass_20.025
v -0.115985 0.799225 0.045348
v 0.001249 -0.000191 0.001173
v -0.031860 0.626950 0.102611
v -0.406748 1.186883 0.256400
v -0.302939 1.171528 0.282517
v -0.631346 1.109590 0.429225
v 0.001249 -0.000191 0.001173
v -0.031860 0.626950 0.102611
v -0.115985 0.799225 0.045348
v -0.406748 1.186883 0.256400
v -0.631346 1.109590 0.429225
v -0.302939 1.171528 0.282517
vt 0.499358 1.003165
vt 0.794002 0.754255
vt 0.143816 0.701819
vt 0.491895 0.002013
vt 0.041015 0.267860
vt 0.856324 0.378081
vt 0.794002 0.754255
vt 0.499358 1.003165
vt 0.143816 0.701819
vt 0.041015 0.267860
vt 0.491895 0.002013
vt 0.856324 0.378081
vn -0.0240 -0.9006 -0.4340
vn -0.1277 -0.9891 -0.0740
vn -0.2489 -0.8279 0.5027
vn -0.7423 -0.1450 0.6542
vn -0.8058 -0.2070 0.5549
vn -0.9060 -0.4111 0.1005
vn -0.2769 -0.6113 0.7413
vn 0.1277 0.9891 0.0740
vn 0.0240 0.9006 0.4340
vn 0.2489 0.8279 -0.5027
vn 0.8055 0.2090 -0.5545
vn 0.7423 0.1450 -0.6542
vn 0.9068 0.4092 -0.1010
vn 0.2769 0.6113 -0.7413
vn -0.8968 -0.4422 -0.0128
vn 0.8968 0.4422 0.0128
usemtl Material.001
s 1
f 6/1/1 4/2/2 5/3/3
f 2/4/4 3/5/5 1/6/6
f 5/3/3 4/2/2 1/6/7
f 10/7/8 11/8/9 12/9/10
f 8/10/11 7/11/12 9/12/13
f 10/7/8 12/9/10 9/12/14
f 3/5/5 5/3/15 1/6/6
f 9/12/13 12/9/16 8/10/11
