# Blender v2.79 (sub 0) OBJ File: ''
# www.blender.org
mtllib large_11_low.mtl
o Grass_20.033
v -0.013166 0.001077 -0.006713
v 0.043367 0.406024 -0.035856
v 0.227511 0.934373 -0.287816
v 0.286886 0.978737 -0.279889
v 0.534724 1.174433 -0.529674
v -0.013166 0.001077 -0.006713
v 0.227511 0.934373 -0.287816
v 0.218632 0.855700 -0.212132
v 0.043367 0.406024 -0.035856
v 0.386353 1.110669 -0.386093
v 0.534724 1.174433 -0.529674
vt 0.899693 0.602261
vt 0.096621 0.565463
vt 0.404448 0.939486
vt 0.931480 0.197772
vt 0.096621 0.565463
vt 0.836234 0.745304
vt 0.404448 0.939486
vt 0.950062 0.488724
vt 0.931480 0.197772
vt 0.125401 0.001812
vt 0.125401 0.001812
vn 0.6035 -0.7723 -0.1982
vn 0.5297 -0.6023 -0.5972
vn 0.6008 -0.7988 -0.0297
vn 0.4756 -0.5082 -0.7181
vn -0.7265 0.3137 -0.6114
vn -0.7470 0.5028 0.4350
vn -0.4071 0.6567 0.6348
vn -0.7974 0.4627 0.3874
vn 0.8853 -0.0879 0.4566
vn 0.8850 -0.0907 0.4566
vn 0.8860 -0.0886 0.4551
vn -0.8863 0.0899 -0.4543
vn -0.8850 0.0907 -0.4566
vn -0.8842 0.0889 -0.4586
vn -0.3382 0.6720 0.6588
usemtl Material.001
s 1
f 4/1/1 3/2/2 5/3/3
f 3/2/2 4/1/1 2/4/4
f 7/5/5 10/6/5 11/7/5
f 8/8/6 7/5/7 9/9/8
f 1/10/9 3/2/10 2/4/11
f 9/9/12 7/5/13 6/11/14
f 7/5/7 8/8/6 10/6/15
