# Blender v2.79 (sub 0) OBJ File: ''
# www.blender.org
mtllib large_7.mtl
o Grass_20.012
v -0.003451 0.101802 -0.003855
v 0.006149 0.101988 -0.012243
v 0.002855 0.192918 -0.016503
v -0.007820 0.193794 -0.008163
v 0.016366 0.098700 -0.019989
v 0.014807 0.187542 -0.023511
v 0.009040 0.000000 -0.008247
v 0.017416 0.000000 -0.016749
v 0.000659 0.000000 0.000255
v -0.015961 0.192918 0.002583
v -0.021068 0.269856 -0.001587
v -0.028267 0.269490 0.010767
v -0.022712 0.187542 0.014553
v -0.030416 0.342372 -0.010161
v -0.037568 0.347484 0.002949
v -0.013112 0.269340 -0.013377
v -0.022237 0.340962 -0.022377
v -0.037766 0.421800 -0.037683
v -0.024415 0.422646 -0.045411
v -0.044287 0.510990 -0.065295
v -0.057926 0.509700 -0.057549
v -0.009667 0.427176 -0.051663
v -0.027637 0.514206 -0.070011
v -0.010099 0.342372 -0.030771
v 0.002992 0.347484 -0.038199
v -0.080545 0.600402 -0.079845
v -0.066530 0.601812 -0.087339
v -0.090500 0.692664 -0.110529
v -0.104048 0.691302 -0.103016
v -0.049430 0.604794 -0.091503
v -0.073525 0.695160 -0.114393
v -0.127603 0.779016 -0.126243
v -0.114883 0.780582 -0.133664
v -0.140089 0.855642 -0.156686
v -0.151249 0.855384 -0.149559
v -0.099475 0.779634 -0.137937
v -0.126811 0.852540 -0.161367
v -0.176684 0.913878 -0.174633
v -0.167359 0.915318 -0.181106
v -0.207541 0.964266 -0.216986
v -0.213091 0.963018 -0.210530
v -0.160759 0.914772 -0.189555
v -0.206533 0.967194 -0.227373
v -0.266575 1.010538 -0.263246
v -0.263108 1.011624 -0.267308
v -0.319873 1.047714 -0.318909
v -0.318373 1.046358 -0.314312
v -0.256435 1.008468 -0.268707
v -0.301933 1.037400 -0.306513
v -0.339409 1.058016 -0.335061
v -0.322969 1.047714 -0.315764
v -0.339115 1.056342 -0.332618
v -0.310261 1.037400 -0.298070
v -0.346543 1.060080 -0.342117
v -0.011660 0.101988 0.005823
v -0.007627 0.000000 0.008661
v -0.019172 0.098700 0.016059
v -0.015914 0.000000 0.017067
v -0.001393 0.269856 -0.021543
v 0.010949 0.269490 -0.029013
v -0.045259 0.422646 -0.024267
v -0.051217 0.427176 -0.009519
v -0.065431 0.510990 -0.043851
v -0.069818 0.514206 -0.027231
v -0.087787 0.601812 -0.065775
v -0.091615 0.604794 -0.048711
v -0.111325 0.692664 -0.089409
v -0.114848 0.695160 -0.072477
v -0.134804 0.780582 -0.113463
v -0.138757 0.779634 -0.098091
v -0.158173 0.855642 -0.138338
v -0.162572 0.852540 -0.125091
v -0.182984 0.915318 -0.165261
v -0.191245 0.914772 -0.158630
v -0.219427 0.964266 -0.204926
v -0.229712 0.967194 -0.203858
v -0.270542 1.011624 -0.259767
v -0.271766 1.008468 -0.253155
v -0.336949 1.056342 -0.334814
v -0.003451 0.101802 -0.003855
v 0.006149 0.101988 -0.012243
v 0.009040 0.000000 -0.008247
v 0.000659 0.000000 0.000255
v 0.016366 0.098700 -0.019989
v 0.017416 0.000000 -0.016749
v 0.002855 0.192918 -0.016503
v 0.014807 0.187542 -0.023511
v -0.007820 0.193794 -0.008163
v -0.015961 0.192918 0.002583
v -0.021068 0.269856 -0.001587
v -0.013112 0.269340 -0.013377
v -0.030416 0.342372 -0.010161
v -0.022237 0.340962 -0.022377
v -0.028267 0.269490 0.010767
v -0.037568 0.347484 0.002949
v -0.022712 0.187542 0.014553
v -0.037766 0.421800 -0.037683
v -0.024415 0.422646 -0.045411
v -0.010099 0.342372 -0.030771
v -0.009667 0.427176 -0.051663
v 0.002992 0.347484 -0.038199
v -0.044287 0.510990 -0.065295
v -0.027637 0.514206 -0.070011
v -0.057926 0.509700 -0.057549
v -0.080545 0.600402 -0.079845
v -0.066530 0.601812 -0.087339
v -0.049430 0.604794 -0.091503
v -0.090500 0.692664 -0.110529
v -0.073525 0.695160 -0.114393
v -0.104048 0.691302 -0.103016
v -0.127603 0.779016 -0.126243
v -0.114883 0.780582 -0.133664
v -0.099475 0.779634 -0.137937
v -0.140089 0.855642 -0.156686
v -0.126811 0.852540 -0.161367
v -0.151249 0.855384 -0.149559
v -0.176684 0.913878 -0.174633
v -0.167359 0.915318 -0.181106
v -0.160759 0.914772 -0.189555
v -0.207541 0.964266 -0.216986
v -0.206533 0.967194 -0.227373
v -0.213091 0.963018 -0.210530
v -0.266575 1.010538 -0.263246
v -0.263108 1.011624 -0.267308
v -0.256435 1.008468 -0.268707
v -0.319873 1.047714 -0.318909
v -0.301933 1.037400 -0.306513
v -0.318373 1.046358 -0.314312
v -0.339409 1.058016 -0.335061
v -0.339115 1.056342 -0.332618
v -0.346543 1.060080 -0.342117
v -0.322969 1.047714 -0.315764
v -0.310261 1.037400 -0.298070
v -0.011660 0.101988 0.005823
v -0.019172 0.098700 0.016059
v -0.007627 0.000000 0.008661
v -0.015914 0.000000 0.017067
v -0.001393 0.269856 -0.021543
v 0.010949 0.269490 -0.029013
v -0.045259 0.422646 -0.024267
v -0.065431 0.510990 -0.043851
v -0.051217 0.427176 -0.009519
v -0.069818 0.514206 -0.027231
v -0.087787 0.601812 -0.065775
v -0.111325 0.692664 -0.089409
v -0.091615 0.604794 -0.048711
v -0.114848 0.695160 -0.072477
v -0.134804 0.780582 -0.113463
v -0.158173 0.855642 -0.138338
v -0.138757 0.779634 -0.098091
v -0.162572 0.852540 -0.125091
v -0.182984 0.915318 -0.165261
v -0.219427 0.964266 -0.204926
v -0.191245 0.914772 -0.158630
v -0.229712 0.967194 -0.203858
v -0.270542 1.011624 -0.259767
v -0.271766 1.008468 -0.253155
v -0.336949 1.056342 -0.334814
vt 0.498022 0.069726
vt 0.731150 0.137438
vt 0.498022 0.137438
vt 0.732163 0.069726
vt 0.964279 0.137438
vt 0.733176 0.002013
vt 0.966304 0.069726
vt 0.498022 0.002013
vt 0.259430 0.137438
vt 0.026204 0.181323
vt 0.020838 0.137438
vt 0.264796 0.225207
vt 0.262113 0.181323
vt 0.498022 0.225207
vt 0.498022 0.181323
vt 0.498022 0.285232
vt 0.726504 0.345256
vt 0.498022 0.345256
vt 0.956023 0.285232
vt 0.727022 0.285232
vt 0.957058 0.225207
vt 0.727540 0.225207
vt 0.498022 0.450808
vt 0.726504 0.556360
vt 0.498022 0.556360
vt 0.726504 0.450808
vt 0.954987 0.556360
vt 0.954987 0.345256
vt 0.498022 0.619264
vt 0.698681 0.682167
vt 0.498022 0.682167
vt 0.712592 0.619264
vt 0.899340 0.682167
vt 0.927163 0.619264
vt 0.667138 0.753113
vt 0.498022 0.824059
vt 0.498022 0.753113
vt 0.836255 0.753113
vt 0.635596 0.824059
vt 0.578270 0.897481
vt 0.498022 0.970902
vt 0.498022 0.897481
vt 0.543866 0.970902
vt 0.520944 0.970902
vt 0.658518 0.897481
vt 0.498022 0.984444
vt 0.477078 0.970902
vt 0.477078 0.984444
vt 0.456134 0.970902
vt 0.498022 0.997987
vt 0.256221 0.002013
vt 0.017629 0.069726
vt 0.257825 0.069726
vt 0.729345 0.181323
vt 0.960669 0.181323
vt 0.268157 0.285232
vt 0.031570 0.225207
vt 0.271518 0.345256
vt 0.038292 0.285232
vt 0.271518 0.450808
vt 0.045013 0.345256
vt 0.045013 0.556360
vt 0.271518 0.556360
vt 0.285429 0.619264
vt 0.072837 0.619264
vt 0.100660 0.682167
vt 0.299341 0.682167
vt 0.330884 0.753113
vt 0.163745 0.753113
vt 0.362426 0.824059
vt 0.341482 0.897481
vt 0.419752 0.897481
vt 0.520944 0.984444
vt 0.498022 0.069726
vt 0.733176 0.002013
vt 0.498022 0.002013
vt 0.966304 0.069726
vt 0.732163 0.069726
vt 0.964279 0.137438
vt 0.731150 0.137438
vt 0.498022 0.137438
vt 0.262113 0.181323
vt 0.259430 0.137438
vt 0.498022 0.225207
vt 0.498022 0.181323
vt 0.026204 0.181323
vt 0.264796 0.225207
vt 0.020838 0.137438
vt 0.498022 0.285232
vt 0.727540 0.225207
vt 0.727022 0.285232
vt 0.957058 0.225207
vt 0.726504 0.345256
vt 0.956023 0.285232
vt 0.498022 0.345256
vt 0.726504 0.450808
vt 0.498022 0.450808
vt 0.954987 0.345256
vt 0.954987 0.556360
vt 0.726504 0.556360
vt 0.498022 0.556360
vt 0.712592 0.619264
vt 0.498022 0.619264
vt 0.927163 0.619264
vt 0.899340 0.682167
vt 0.698681 0.682167
vt 0.498022 0.682167
vt 0.667138 0.753113
vt 0.498022 0.753113
vt 0.836255 0.753113
vt 0.635596 0.824059
vt 0.498022 0.824059
vt 0.498022 0.897481
vt 0.658518 0.897481
vt 0.578270 0.897481
vt 0.543866 0.970902
vt 0.520944 0.970902
vt 0.498022 0.970902
vt 0.498022 0.984444
vt 0.477078 0.984444
vt 0.498022 0.997987
vt 0.477078 0.970902
vt 0.456134 0.970902
vt 0.257825 0.069726
vt 0.256221 0.002013
vt 0.017629 0.069726
vt 0.729345 0.181323
vt 0.960669 0.181323
vt 0.271518 0.345256
vt 0.038292 0.285232
vt 0.268157 0.285232
vt 0.031570 0.225207
vt 0.271518 0.556360
vt 0.271518 0.450808
vt 0.045013 0.556360
vt 0.045013 0.345256
vt 0.299341 0.682167
vt 0.285429 0.619264
vt 0.100660 0.682167
vt 0.072837 0.619264
vt 0.330884 0.753113
vt 0.163745 0.753113
vt 0.362426 0.824059
vt 0.419752 0.897481
vt 0.341482 0.897481
vt 0.520944 0.984444
vt 0.968329 0.002013
vt 0.954987 0.450808
vt 0.773170 0.824059
vt 0.014420 0.002013
vt 0.045013 0.450808
vt 0.226830 0.824059
vt 0.968329 0.002013
vt 0.954987 0.450808
vt 0.773170 0.824059
vt 0.014420 0.002013
vt 0.045013 0.450808
vt 0.226830 0.824059
vn 0.6177 0.0660 0.7836
vn 0.5245 0.0588 0.8494
vn 0.6132 0.0483 0.7884
vn 0.7110 0.0570 0.7009
vn 0.8520 0.0817 0.5171
vn 0.8494 0.1686 0.5000
vn 0.8199 0.1730 0.5457
vn 0.7908 0.0853 0.6061
vn 0.4509 0.2939 0.8428
vn 0.3030 0.2736 0.9129
vn 0.4091 0.2338 0.8820
vn 0.5298 0.2549 0.8089
vn 0.4331 0.3262 0.8403
vn 0.1725 0.2861 0.9425
vn 0.2114 0.2791 0.9367
vn 0.4228 0.3144 0.8499
vn 0.4893 0.3897 0.7802
vn 0.3856 0.3865 0.8378
vn 0.2715 0.3147 0.9095
vn 0.4427 0.3387 0.8302
vn 0.3287 0.7037 0.6299
vn 0.5544 0.7376 0.3854
vn 0.6886 0.5210 0.5043
vn 0.4369 0.5081 0.7422
vn 0.2061 0.8870 0.4131
vn 0.3454 0.9039 0.2523
vn 0.4581 0.8416 0.2862
vn 0.3180 0.8418 0.4362
vn 0.1592 0.9208 0.3560
vn -0.2257 0.7624 0.6065
vn -0.3345 0.7581 0.5599
vn -0.1666 0.8038 0.5711
vn 0.7978 0.0483 0.6010
vn 0.8580 0.0588 0.5102
vn 0.7927 0.0660 0.6060
vn 0.5580 0.1731 0.8116
vn 0.5140 0.1687 0.8410
vn 0.5178 0.0844 0.8513
vn 0.5662 0.0962 0.8186
vn 0.8169 0.2549 0.5174
vn 0.8890 0.2336 0.3939
vn 0.9181 0.2733 0.2870
vn 0.8497 0.2938 0.4379
vn 0.8565 0.3142 0.4094
vn 0.9406 0.2784 0.1943
vn 0.9459 0.2853 0.1547
vn 0.8468 0.3261 0.4203
vn 0.8369 0.3386 0.4300
vn 0.9147 0.3139 0.2546
vn 0.8447 0.3859 0.3708
vn 0.7877 0.3896 0.4772
vn 0.7490 0.5080 0.4254
vn 0.5130 0.5210 0.6822
vn 0.3923 0.7375 0.5497
vn 0.6351 0.7035 0.3189
vn 0.4411 0.8418 0.3112
vn 0.2909 0.8414 0.4555
vn 0.2553 0.9038 0.3435
vn 0.4172 0.8868 0.1988
vn 0.5527 0.7628 -0.3356
vn 0.5971 0.7705 -0.2231
vn 0.3575 0.9210 0.1551
vn 0.5660 0.8067 -0.1701
vn -0.7110 -0.0570 -0.7009
vn -0.6132 -0.0483 -0.7884
vn -0.5245 -0.0588 -0.8494
vn -0.6177 -0.0660 -0.7836
vn -0.7908 -0.0853 -0.6061
vn -0.8199 -0.1730 -0.5457
vn -0.8494 -0.1686 -0.5000
vn -0.8520 -0.0817 -0.5171
vn -0.5298 -0.2549 -0.8089
vn -0.4091 -0.2338 -0.8820
vn -0.3030 -0.2736 -0.9129
vn -0.4509 -0.2939 -0.8428
vn -0.4228 -0.3144 -0.8499
vn -0.2114 -0.2791 -0.9367
vn -0.1725 -0.2861 -0.9425
vn -0.4331 -0.3262 -0.8403
vn -0.4427 -0.3387 -0.8302
vn -0.2715 -0.3147 -0.9095
vn -0.3856 -0.3865 -0.8378
vn -0.4893 -0.3897 -0.7802
vn -0.4369 -0.5081 -0.7422
vn -0.6886 -0.5210 -0.5043
vn -0.5544 -0.7376 -0.3854
vn -0.3287 -0.7037 -0.6299
vn -0.3180 -0.8418 -0.4362
vn -0.4581 -0.8416 -0.2862
vn -0.3454 -0.9039 -0.2523
vn -0.2061 -0.8870 -0.4131
vn 0.3345 -0.7581 -0.5599
vn 0.2257 -0.7624 -0.6065
vn -0.1592 -0.9208 -0.3560
vn 0.1666 -0.8038 -0.5711
vn -0.7927 -0.0660 -0.6060
vn -0.8580 -0.0588 -0.5102
vn -0.7978 -0.0483 -0.6010
vn -0.5662 -0.0962 -0.8186
vn -0.5178 -0.0844 -0.8513
vn -0.5140 -0.1687 -0.8410
vn -0.5580 -0.1731 -0.8116
vn -0.8497 -0.2938 -0.4379
vn -0.9181 -0.2733 -0.2870
vn -0.8890 -0.2336 -0.3939
vn -0.8169 -0.2549 -0.5174
vn -0.8468 -0.3261 -0.4203
vn -0.9459 -0.2853 -0.1547
vn -0.9406 -0.2784 -0.1943
vn -0.8565 -0.3142 -0.4094
vn -0.7877 -0.3896 -0.4772
vn -0.8447 -0.3859 -0.3708
vn -0.9147 -0.3139 -0.2546
vn -0.8369 -0.3386 -0.4300
vn -0.6351 -0.7035 -0.3189
vn -0.3923 -0.7375 -0.5497
vn -0.5130 -0.5210 -0.6822
vn -0.7490 -0.5080 -0.4254
vn -0.4172 -0.8868 -0.1988
vn -0.2553 -0.9038 -0.3435
vn -0.2909 -0.8414 -0.4554
vn -0.4411 -0.8418 -0.3112
vn -0.3575 -0.9210 -0.1551
vn -0.5971 -0.7705 0.2231
vn -0.5527 -0.7628 0.3356
vn -0.5660 -0.8067 0.1701
vn 0.6562 0.0590 0.7523
vn 0.6121 0.0421 0.7896
vn 0.7120 0.0306 0.7015
vn 0.6567 0.0481 0.7526
vn 0.8598 0.0844 0.5036
vn 0.8913 0.1492 0.4281
vn 0.8278 0.1699 0.5346
vn 0.8270 0.0962 0.5539
vn 0.4651 0.2927 0.8355
vn 0.2202 0.2446 0.9443
vn 0.3270 0.2077 0.9219
vn 0.4751 0.2392 0.8468
vn 0.4198 0.3269 0.8467
vn 0.1793 0.2862 0.9412
vn 0.1835 0.2685 0.9457
vn 0.4465 0.3128 0.8383
vn 0.4268 0.3931 0.8144
vn 0.2685 0.3845 0.8832
vn 0.1670 0.3120 0.9353
vn 0.4298 0.3394 0.8367
vn 0.4358 0.7367 0.5170
vn 0.6217 0.7361 0.2678
vn 0.3890 0.5477 0.7407
vn 0.4555 0.5075 0.7315
vn 0.4604 0.8809 0.1097
vn 0.4470 0.8838 0.1383
vn 0.4620 0.8409 0.2819
vn 0.2874 0.8353 0.4687
vn 0.7622 0.0481 0.6455
vn 0.7118 0.0307 0.7017
vn 0.7990 0.0420 0.5999
vn 0.7619 0.0590 0.6450
vn 0.5471 0.1700 0.8196
vn 0.4432 0.1493 0.8839
vn 0.5312 0.0816 0.8433
vn 0.6178 0.0853 0.7817
vn 0.8541 0.2391 0.4620
vn 0.9275 0.2075 0.3110
vn 0.9483 0.2440 0.2030
vn 0.8426 0.2926 0.4522
vn 0.8451 0.3127 0.4336
vn 0.9491 0.2678 0.1661
vn 0.9446 0.2855 0.1620
vn 0.8532 0.3268 0.4064
vn 0.8432 0.3393 0.4170
vn 0.9386 0.3110 0.1494
vn 0.8884 0.3836 0.2522
vn 0.8209 0.3929 0.4144
vn 0.7385 0.5074 0.4441
vn 0.7476 0.5473 0.3763
vn 0.2738 0.7355 0.6197
vn 0.5236 0.7367 0.4280
vn 0.4739 0.8351 0.2795
vn 0.2870 0.8407 0.4591
vn 0.1413 0.8830 0.4476
vn 0.1143 0.8804 0.4603
vn -0.6567 -0.0481 -0.7526
vn -0.7120 -0.0306 -0.7015
vn -0.6121 -0.0421 -0.7896
vn -0.6562 -0.0590 -0.7523
vn -0.8270 -0.0962 -0.5539
vn -0.8278 -0.1699 -0.5346
vn -0.8913 -0.1492 -0.4281
vn -0.8598 -0.0844 -0.5036
vn -0.4751 -0.2392 -0.8468
vn -0.3270 -0.2077 -0.9219
vn -0.2202 -0.2446 -0.9443
vn -0.4651 -0.2927 -0.8355
vn -0.4465 -0.3128 -0.8383
vn -0.1835 -0.2685 -0.9457
vn -0.1793 -0.2862 -0.9412
vn -0.4198 -0.3269 -0.8467
vn -0.4298 -0.3394 -0.8367
vn -0.1670 -0.3120 -0.9353
vn -0.2685 -0.3845 -0.8832
vn -0.4268 -0.3931 -0.8144
vn -0.4555 -0.5075 -0.7315
vn -0.3890 -0.5477 -0.7407
vn -0.6217 -0.7361 -0.2678
vn -0.4358 -0.7367 -0.5170
vn -0.2874 -0.8353 -0.4687
vn -0.4620 -0.8409 -0.2819
vn -0.4470 -0.8838 -0.1383
vn -0.4604 -0.8809 -0.1097
vn -0.7619 -0.0590 -0.6450
vn -0.7990 -0.0420 -0.5999
vn -0.7118 -0.0307 -0.7017
vn -0.7622 -0.0481 -0.6455
vn -0.6178 -0.0853 -0.7817
vn -0.5312 -0.0816 -0.8433
vn -0.4432 -0.1493 -0.8839
vn -0.5471 -0.1700 -0.8196
vn -0.8426 -0.2926 -0.4522
vn -0.9483 -0.2440 -0.2030
vn -0.9275 -0.2075 -0.3110
vn -0.8541 -0.2391 -0.4620
vn -0.8532 -0.3268 -0.4064
vn -0.9446 -0.2855 -0.1620
vn -0.9491 -0.2678 -0.1661
vn -0.8451 -0.3127 -0.4336
vn -0.8209 -0.3929 -0.4144
vn -0.8884 -0.3836 -0.2522
vn -0.9386 -0.3110 -0.1494
vn -0.8432 -0.3393 -0.4170
vn -0.5236 -0.7367 -0.4280
vn -0.2738 -0.7355 -0.6197
vn -0.7476 -0.5473 -0.3763
vn -0.7385 -0.5074 -0.4441
vn -0.1143 -0.8804 -0.4603
vn -0.1413 -0.8830 -0.4476
vn -0.2870 -0.8408 -0.4591
vn -0.4739 -0.8351 -0.2795
usemtl Material.001
s off
f 1/1/1 3/2/1 4/3/1
f 2/4/2 6/5/2 3/2/2
f 7/6/3 5/7/3 2/4/3
f 7/6/4 1/1/4 9/8/4
f 10/9/5 12/10/5 13/11/5
f 14/12/6 12/10/6 11/13/6
f 17/14/7 11/13/7 16/15/7
f 4/3/8 11/13/8 10/9/8
f 18/16/9 20/17/9 21/18/9
f 22/19/10 20/17/10 19/20/10
f 25/21/11 19/20/11 24/22/11
f 24/22/12 18/16/12 17/14/12
f 26/23/13 28/24/13 29/25/13
f 27/26/14 31/27/14 28/24/14
f 23/28/15 27/26/15 20/17/15
f 21/18/16 27/26/16 26/23/16
f 32/29/17 34/30/17 35/31/17
f 33/32/18 37/33/18 34/30/18
f 28/24/19 36/34/19 33/32/19
f 29/25/20 33/32/20 32/29/20
f 39/35/21 41/36/21 38/37/21
f 42/38/22 40/39/22 39/35/22
f 34/30/23 42/38/23 39/35/23
f 35/31/24 39/35/24 38/37/24
f 45/40/25 47/41/25 44/42/25
f 45/40/26 49/43/26 46/44/26
f 40/39/27 48/45/27 45/40/27
f 40/39/28 44/42/28 41/36/28
f 50/46/29 51/47/29 47/41/29
f 52/48/30 53/49/30 51/47/30
f 50/46/31 54/50/31 52/48/31
f 50/46/32 52/48/32 51/47/32
f 1/1/4 56/51/4 9/8/4
f 57/52/33 56/51/33 55/53/33
f 13/11/34 55/53/34 10/9/34
f 10/9/35 1/1/35 4/3/35
f 59/54/36 17/14/36 16/15/36
f 60/55/37 24/22/37 59/54/37
f 3/2/38 60/55/38 59/54/38
f 4/3/39 59/54/39 16/15/39
f 18/16/40 14/12/40 17/14/40
f 61/56/41 15/57/41 14/12/41
f 63/58/42 62/59/42 61/56/42
f 63/58/43 18/16/43 21/18/43
f 65/60/44 21/18/44 26/23/44
f 65/60/45 64/61/45 63/58/45
f 68/62/46 65/60/46 67/63/46
f 67/63/47 26/23/47 29/25/47
f 69/64/48 29/25/48 32/29/48
f 70/65/49 67/63/49 69/64/49
f 72/66/50 69/64/50 71/67/50
f 71/67/51 32/29/51 35/31/51
f 73/68/52 35/31/52 38/37/52
f 74/69/53 71/67/53 73/68/53
f 75/70/54 74/69/54 73/68/54
f 41/36/55 73/68/55 38/37/55
f 44/42/56 75/70/56 41/36/56
f 78/71/57 75/70/57 77/72/57
f 53/49/58 77/72/58 51/47/58
f 47/41/59 77/72/59 44/42/59
f 50/46/60 79/73/60 54/50/60
f 46/44/61 49/43/61 79/73/61
f 50/46/62 47/41/62 46/44/62
f 50/46/63 46/44/63 79/73/63
f 80/74/64 82/75/64 83/76/64
f 84/77/65 82/75/65 81/78/65
f 87/79/66 81/78/66 86/80/66
f 86/80/67 80/74/67 88/81/67
f 90/82/68 88/81/68 89/83/68
f 90/82/69 93/84/69 91/85/69
f 94/86/70 92/87/70 90/82/70
f 94/86/71 89/83/71 96/88/71
f 97/89/72 99/90/72 93/84/72
f 98/91/73 101/92/73 99/90/73
f 102/93/74 100/94/74 98/91/74
f 102/93/75 97/89/75 104/95/75
f 106/96/76 104/95/76 105/97/76
f 106/96/77 103/98/77 102/93/77
f 109/99/78 106/96/78 108/100/78
f 108/100/79 105/97/79 110/101/79
f 112/102/80 110/101/80 111/103/80
f 113/104/81 108/100/81 112/102/81
f 115/105/82 112/102/82 114/106/82
f 114/106/83 111/103/83 116/107/83
f 118/108/84 116/107/84 117/109/84
f 119/110/85 114/106/85 118/108/85
f 120/111/86 119/110/86 118/108/86
f 122/112/87 118/108/87 117/109/87
f 123/113/88 120/111/88 122/112/88
f 125/114/89 120/111/89 124/115/89
f 127/116/90 124/115/90 126/117/90
f 128/118/91 124/115/91 123/113/91
f 129/119/92 130/120/92 131/121/92
f 132/122/93 133/123/93 130/120/93
f 129/119/94 128/118/94 132/122/94
f 129/119/95 132/122/95 130/120/95
f 80/74/96 89/83/96 88/81/96
f 134/124/97 96/88/97 89/83/97
f 136/125/98 135/126/98 134/124/98
f 136/125/64 80/74/64 83/76/64
f 138/127/99 88/81/99 91/85/99
f 139/128/100 86/80/100 138/127/100
f 99/90/101 139/128/101 138/127/101
f 93/84/102 138/127/102 91/85/102
f 97/89/103 141/129/103 104/95/103
f 142/130/104 141/129/104 140/131/104
f 95/132/105 140/131/105 92/87/105
f 92/87/106 97/89/106 93/84/106
f 105/97/107 145/133/107 110/101/107
f 144/134/108 147/135/108 145/133/108
f 143/136/109 144/134/109 141/129/109
f 104/95/110 144/134/110 105/97/110
f 111/103/111 149/137/111 116/107/111
f 148/138/112 151/139/112 149/137/112
f 145/133/113 150/140/113 148/138/113
f 110/101/114 148/138/114 111/103/114
f 152/141/115 122/112/115 117/109/115
f 154/142/116 153/143/116 152/141/116
f 149/137/117 154/142/117 152/141/117
f 116/107/118 152/141/118 117/109/118
f 156/144/119 128/118/119 123/113/119
f 156/144/120 133/123/120 132/122/120
f 153/143/121 157/145/121 156/144/121
f 153/143/122 123/113/122 122/112/122
f 129/119/123 126/117/123 128/118/123
f 158/146/124 127/116/124 126/117/124
f 129/119/125 131/121/125 158/146/125
f 129/119/126 158/146/126 126/117/126
f 1/1/127 2/4/127 3/2/127
f 2/4/128 5/7/128 6/5/128
f 7/6/129 8/147/129 5/7/129
f 7/6/130 2/4/130 1/1/130
f 10/9/131 11/13/131 12/10/131
f 14/12/132 15/57/132 12/10/132
f 17/14/133 14/12/133 11/13/133
f 4/3/134 16/15/134 11/13/134
f 18/16/135 19/20/135 20/17/135
f 22/19/136 23/28/136 20/17/136
f 25/21/137 22/19/137 19/20/137
f 24/22/138 19/20/138 18/16/138
f 26/23/139 27/26/139 28/24/139
f 27/26/140 30/148/140 31/27/140
f 23/28/141 30/148/141 27/26/141
f 21/18/142 20/17/142 27/26/142
f 32/29/143 33/32/143 34/30/143
f 33/32/144 36/34/144 37/33/144
f 28/24/145 31/27/145 36/34/145
f 29/25/146 28/24/146 33/32/146
f 39/35/147 40/39/147 41/36/147
f 42/38/148 43/149/148 40/39/148
f 34/30/149 37/33/149 42/38/149
f 35/31/150 34/30/150 39/35/150
f 45/40/151 46/44/151 47/41/151
f 45/40/152 48/45/152 49/43/152
f 40/39/153 43/149/153 48/45/153
f 40/39/154 45/40/154 44/42/154
f 1/1/155 55/53/155 56/51/155
f 57/52/156 58/150/156 56/51/156
f 13/11/157 57/52/157 55/53/157
f 10/9/158 55/53/158 1/1/158
f 59/54/159 24/22/159 17/14/159
f 60/55/160 25/21/160 24/22/160
f 3/2/161 6/5/161 60/55/161
f 4/3/162 3/2/162 59/54/162
f 18/16/163 61/56/163 14/12/163
f 61/56/164 62/59/164 15/57/164
f 63/58/165 64/61/165 62/59/165
f 63/58/166 61/56/166 18/16/166
f 65/60/167 63/58/167 21/18/167
f 65/60/168 66/151/168 64/61/168
f 68/62/169 66/151/169 65/60/169
f 67/63/170 65/60/170 26/23/170
f 69/64/171 67/63/171 29/25/171
f 70/65/172 68/62/172 67/63/172
f 72/66/173 70/65/173 69/64/173
f 71/67/174 69/64/174 32/29/174
f 73/68/175 71/67/175 35/31/175
f 74/69/176 72/66/176 71/67/176
f 75/70/177 76/152/177 74/69/177
f 41/36/178 75/70/178 73/68/178
f 44/42/179 77/72/179 75/70/179
f 78/71/180 76/152/180 75/70/180
f 53/49/181 78/71/181 77/72/181
f 47/41/182 51/47/182 77/72/182
f 80/74/183 81/78/183 82/75/183
f 84/77/184 85/153/184 82/75/184
f 87/79/185 84/77/185 81/78/185
f 86/80/186 81/78/186 80/74/186
f 90/82/187 91/85/187 88/81/187
f 90/82/188 92/87/188 93/84/188
f 94/86/189 95/132/189 92/87/189
f 94/86/190 90/82/190 89/83/190
f 97/89/191 98/91/191 99/90/191
f 98/91/192 100/94/192 101/92/192
f 102/93/193 103/98/193 100/94/193
f 102/93/194 98/91/194 97/89/194
f 106/96/195 102/93/195 104/95/195
f 106/96/196 107/154/196 103/98/196
f 109/99/197 107/154/197 106/96/197
f 108/100/198 106/96/198 105/97/198
f 112/102/199 108/100/199 110/101/199
f 113/104/200 109/99/200 108/100/200
f 115/105/201 113/104/201 112/102/201
f 114/106/202 112/102/202 111/103/202
f 118/108/203 114/106/203 116/107/203
f 119/110/204 115/105/204 114/106/204
f 120/111/205 121/155/205 119/110/205
f 122/112/206 120/111/206 118/108/206
f 123/113/207 124/115/207 120/111/207
f 125/114/208 121/155/208 120/111/208
f 127/116/209 125/114/209 124/115/209
f 128/118/210 126/117/210 124/115/210
f 80/74/211 134/124/211 89/83/211
f 134/124/212 135/126/212 96/88/212
f 136/125/213 137/156/213 135/126/213
f 136/125/214 134/124/214 80/74/214
f 138/127/215 86/80/215 88/81/215
f 139/128/216 87/79/216 86/80/216
f 99/90/217 101/92/217 139/128/217
f 93/84/218 99/90/218 138/127/218
f 97/89/219 140/131/219 141/129/219
f 142/130/220 143/136/220 141/129/220
f 95/132/221 142/130/221 140/131/221
f 92/87/222 140/131/222 97/89/222
f 105/97/223 144/134/223 145/133/223
f 144/134/224 146/157/224 147/135/224
f 143/136/225 146/157/225 144/134/225
f 104/95/226 141/129/226 144/134/226
f 111/103/227 148/138/227 149/137/227
f 148/138/228 150/140/228 151/139/228
f 145/133/229 147/135/229 150/140/229
f 110/101/230 145/133/230 148/138/230
f 152/141/231 153/143/231 122/112/231
f 154/142/232 155/158/232 153/143/232
f 149/137/233 151/139/233 154/142/233
f 116/107/234 149/137/234 152/141/234
f 156/144/235 132/122/235 128/118/235
f 156/144/236 157/145/236 133/123/236
f 153/143/237 155/158/237 157/145/237
f 153/143/238 156/144/238 123/113/238
