# Blender v2.79 (sub 0) OBJ File: ''
# www.blender.org
mtllib medium_2_low.mtl
o Grass_20.037
v -0.019160 0.339205 0.022585
v 0.016817 0.000389 -0.016249
v -0.106868 0.713199 -0.052055
v -0.302138 0.935286 -0.071921
v -0.145821 0.803476 -0.013936
v -0.019160 0.339205 0.022585
v 0.016817 0.000389 -0.016249
v -0.106868 0.713199 -0.052055
v -0.302138 0.935286 -0.071921
v -0.145821 0.803476 -0.013936
vt 0.888415 0.628797
vt 0.166583 0.728705
vt 0.167774 0.254020
vt 0.836320 0.002026
vt 0.566824 0.959344
vt 0.166583 0.728705
vt 0.888415 0.628797
vt 0.167774 0.254020
vt 0.836320 0.002026
vt 0.566823 0.959344
vn 0.9357 0.3292 0.1267
vn 0.7349 0.5072 -0.4503
vn 0.9251 0.1471 -0.3501
vn 0.9166 0.1402 -0.3744
vn 0.6445 0.5162 -0.5640
vn -0.7349 -0.5072 0.4503
vn -0.9357 -0.3292 -0.1267
vn -0.9251 -0.1471 0.3501
vn -0.9166 -0.1402 0.3744
vn -0.6445 -0.5162 0.5640
usemtl Material.001
s 1
f 3/1/1 5/2/2 1/3/3
f 2/4/4 3/1/1 1/3/3
f 5/2/2 3/1/1 4/5/5
f 10/6/6 8/7/7 6/8/8
f 8/7/7 7/9/9 6/8/8
f 8/7/7 10/6/6 9/10/10
