# Blender v2.79 (sub 0) OBJ File: ''
# www.blender.org
mtllib medium_5_low.mtl
o Grass_20.040
v 0.126376 0.637169 0.216818
v 0.193780 0.647815 0.167226
v 0.396059 0.624569 0.472211
v -0.072707 0.021772 -0.084974
v 0.126376 0.637169 0.216818
v 0.396059 0.624569 0.472211
v 0.193780 0.647815 0.167226
v -0.072707 0.021772 -0.084974
vt 0.499370 1.003216
vt 0.861959 0.693752
vt 0.144361 0.701430
vt 0.861959 0.693752
vt 0.499370 1.003216
vt 0.144361 0.701430
vt 0.461264 0.225208
vt 0.461264 0.225208
vn 0.0678 -0.9904 -0.1205
vn 0.3927 -0.8500 0.3513
vn 0.3544 -0.8887 0.2910
vn -0.3927 0.8500 -0.3513
vn -0.0678 0.9904 0.1205
vn -0.3544 0.8887 -0.2910
vn -0.5622 0.5036 -0.6560
vn 0.5622 -0.5036 0.6560
usemtl Material.001
s 1
f 6/1/1 5/2/2 7/3/3
f 1/4/4 3/5/5 2/6/6
f 1/4/4 2/6/6 8/7/7
f 4/8/8 7/3/3 5/2/2
