# Blender v2.79 (sub 0) OBJ File: ''
# www.blender.org
mtllib medium_0.mtl
o Grass_20.002
v 0.102871 0.546438 -0.197558
v 0.081721 0.551826 -0.206030
v 0.050593 0.455394 -0.147458
v 0.072811 0.452070 -0.138800
v 0.059833 0.552288 -0.211550
v 0.028207 0.457056 -0.154844
v 0.113005 0.615606 -0.262592
v 0.092293 0.617502 -0.266186
v 0.132223 0.612444 -0.254924
v 0.279397 0.631578 -0.542606
v 0.280771 0.630888 -0.539822
v 0.284719 0.624744 -0.552962
v 0.269677 0.640920 -0.515810
v 0.264601 0.646266 -0.492638
v 0.264091 0.643224 -0.512708
v 0.012631 0.097362 -0.021140
v 0.032401 0.099312 -0.007424
v 0.022621 0.000000 0.010660
v 0.002689 0.000000 -0.001616
v 0.051649 0.107310 0.007240
v 0.040909 0.000000 0.026272
v 0.046177 0.210474 -0.033626
v 0.066595 0.224574 -0.020576
v 0.025837 0.205662 -0.046976
v 0.046345 0.330876 -0.087074
v 0.066319 0.335646 -0.072722
v 0.086521 0.343812 -0.059504
v 0.092923 0.455394 -0.125804
v 0.112201 0.457056 -0.111878
v 0.072811 0.452070 -0.138800
v 0.102871 0.546438 -0.197558
v 0.122203 0.551826 -0.185318
v 0.139681 0.552288 -0.170708
v 0.149773 0.615606 -0.243782
v 0.164983 0.617502 -0.228998
v 0.132223 0.612444 -0.254924
v 0.157969 0.651594 -0.305246
v 0.173713 0.655692 -0.296756
v 0.189829 0.655170 -0.290792
v 0.200467 0.668292 -0.358418
v 0.215929 0.667752 -0.360134
v 0.187585 0.666756 -0.363140
v 0.226927 0.661272 -0.440054
v 0.235063 0.662346 -0.437228
v 0.241669 0.662022 -0.430136
v 0.269677 0.640920 -0.515810
v 0.264601 0.646266 -0.492638
v 0.264091 0.643224 -0.512708
v 0.279397 0.631578 -0.542606
v 0.276367 0.630888 -0.542072
v 0.284719 0.624744 -0.552962
v 0.263377 0.640920 -0.519032
v 0.247681 0.646266 -0.501296
v 0.157969 0.651594 -0.305246
v 0.141955 0.655692 -0.313004
v 0.127861 0.655170 -0.322490
v 0.176299 0.668292 -0.370784
v 0.168817 0.667752 -0.384230
v 0.187585 0.666756 -0.363140
v 0.046345 0.330876 -0.087074
v 0.023107 0.335646 -0.094826
v 0.003199 0.210474 -0.055616
v 0.025837 0.205662 -0.046976
v 0.000763 0.343812 -0.103370
v -0.019145 0.224574 -0.064436
v -0.009983 0.099312 -0.029108
v 0.003199 0.210474 -0.055616
v -0.032951 0.107310 -0.036038
v -0.019145 0.224574 -0.064436
v -0.018881 0.000000 -0.010568
v -0.042101 0.000000 -0.016190
v 0.023107 0.335646 -0.094826
v 0.050593 0.455394 -0.147458
v 0.000763 0.343812 -0.103370
v 0.028207 0.457056 -0.154844
v 0.081721 0.551826 -0.206030
v 0.113005 0.615606 -0.262592
v 0.059833 0.552288 -0.211550
v 0.092293 0.617502 -0.266186
v 0.141955 0.655692 -0.313004
v 0.176299 0.668292 -0.370784
v 0.127861 0.655170 -0.322490
v 0.168817 0.667752 -0.384230
v 0.219955 0.662346 -0.444956
v 0.210499 0.662022 -0.446078
v 0.280771 0.630888 -0.539822
v 0.226927 0.661272 -0.440054
v 0.219955 0.662346 -0.444956
v 0.210499 0.662022 -0.446078
v 0.263377 0.640920 -0.519032
v 0.247681 0.646266 -0.501296
v 0.012631 0.097362 -0.021140
v -0.009983 0.099312 -0.029108
v -0.018881 0.000000 -0.010568
v 0.002689 0.000000 -0.001616
v -0.032951 0.107310 -0.036038
v -0.042101 0.000000 -0.016190
v 0.032401 0.099312 -0.007424
v 0.046177 0.210474 -0.033626
v 0.051649 0.107310 0.007240
v 0.066595 0.224574 -0.020576
v 0.022621 0.000000 0.010660
v 0.040909 0.000000 0.026272
v 0.066319 0.335646 -0.072722
v 0.092923 0.455394 -0.125804
v 0.086521 0.343812 -0.059504
v 0.112201 0.457056 -0.111878
v 0.122203 0.551826 -0.185318
v 0.149773 0.615606 -0.243782
v 0.139681 0.552288 -0.170708
v 0.164983 0.617502 -0.228998
v 0.173713 0.655692 -0.296756
v 0.200467 0.668292 -0.358418
v 0.189829 0.655170 -0.290792
v 0.215929 0.667752 -0.360134
v 0.235063 0.662346 -0.437228
v 0.241669 0.662022 -0.430136
v 0.276367 0.630888 -0.542072
vt 0.498022 0.619264
vt 0.271518 0.556360
vt 0.498022 0.556360
vt 0.072837 0.619264
vt 0.285429 0.619264
vt 0.100660 0.682167
vt 0.299341 0.682167
vt 0.498022 0.682167
vt 0.498022 0.984444
vt 0.520944 0.984444
vt 0.498022 0.997987
vt 0.520944 0.970902
vt 0.543866 0.970902
vt 0.498022 0.970902
vt 0.498022 0.285232
vt 0.727540 0.225207
vt 0.498022 0.225207
vt 0.727022 0.285232
vt 0.957058 0.225207
vt 0.726504 0.345256
vt 0.956023 0.285232
vt 0.498022 0.345256
vt 0.498022 0.450808
vt 0.726504 0.450808
vt 0.954987 0.345256
vt 0.726504 0.556360
vt 0.954987 0.450808
vt 0.498022 0.556360
vt 0.498022 0.619264
vt 0.927163 0.619264
vt 0.712592 0.619264
vt 0.899340 0.682167
vt 0.698681 0.682167
vt 0.498022 0.682167
vt 0.498022 0.753113
vt 0.836255 0.753113
vt 0.667138 0.753113
vt 0.635596 0.824059
vt 0.498022 0.824059
vt 0.498022 0.897481
vt 0.578270 0.897481
vt 0.773170 0.824059
vt 0.543866 0.970902
vt 0.520944 0.970902
vt 0.498022 0.970902
vt 0.498022 0.984444
vt 0.477078 0.984444
vt 0.498022 0.997987
vt 0.477078 0.970902
vt 0.456134 0.970902
vt 0.498022 0.753113
vt 0.163745 0.753113
vt 0.330884 0.753113
vt 0.362426 0.824059
vt 0.498022 0.824059
vt 0.498022 0.450808
vt 0.271518 0.345256
vt 0.498022 0.345256
vt 0.271518 0.450808
vt 0.045013 0.345256
vt 0.045013 0.450808
vt 0.268157 0.285232
vt 0.038292 0.285232
vt 0.271518 0.345256
vt 0.031570 0.225207
vt 0.264796 0.225207
vt 0.271518 0.450808
vt 0.045013 0.450808
vt 0.271518 0.556360
vt 0.045013 0.345256
vt 0.285429 0.619264
vt 0.100660 0.682167
vt 0.299341 0.682167
vt 0.072837 0.619264
vt 0.330884 0.753113
vt 0.163745 0.753113
vt 0.362426 0.824059
vt 0.419752 0.897481
vt 0.226830 0.824059
vt 0.520944 0.984444
vt 0.498022 0.897481
vt 0.419752 0.897481
vt 0.226830 0.824059
vt 0.456134 0.970902
vt 0.477078 0.970902
vt 0.498022 0.285232
vt 0.264796 0.225207
vt 0.498022 0.225207
vt 0.268157 0.285232
vt 0.031570 0.225207
vt 0.038292 0.285232
vt 0.727022 0.285232
vt 0.956023 0.285232
vt 0.726504 0.345256
vt 0.957058 0.225207
vt 0.727540 0.225207
vt 0.726504 0.450808
vt 0.954987 0.450808
vt 0.726504 0.556360
vt 0.954987 0.345256
vt 0.712592 0.619264
vt 0.899340 0.682167
vt 0.698681 0.682167
vt 0.927163 0.619264
vt 0.667138 0.753113
vt 0.836255 0.753113
vt 0.635596 0.824059
vt 0.578270 0.897481
vt 0.773170 0.824059
vt 0.477078 0.984444
vt 0.045013 0.556360
vt 0.954987 0.556360
vt 0.658518 0.897481
vt 0.045013 0.556360
vt 0.341482 0.897481
vt 0.341482 0.897481
vt 0.954987 0.556360
vt 0.658518 0.897481
vn -0.2246 0.5656 0.7935
vn -0.1926 0.5541 0.8099
vn -0.0646 0.6797 0.7307
vn -0.1164 0.6805 0.7234
vn 0.6624 0.7351 -0.1447
vn 0.6094 0.7914 -0.0491
vn 0.2570 0.9377 -0.2337
vn 0.5698 0.8180 -0.0785
vn 0.5117 -0.2189 -0.8308
vn 0.6364 -0.1984 -0.7454
vn 0.6503 -0.2497 -0.7174
vn 0.5680 -0.2559 -0.7823
vn 0.5712 -0.3337 -0.7499
vn 0.6569 -0.3191 -0.6831
vn 0.6096 -0.4305 -0.6657
vn 0.5933 -0.4221 -0.6854
vn 0.5115 -0.5657 -0.6468
vn 0.5424 -0.5543 -0.6313
vn 0.5527 -0.6802 -0.4814
vn 0.5178 -0.6807 -0.5182
vn 0.4118 -0.8093 -0.4189
vn 0.1743 -0.8215 -0.5429
vn 0.0366 -0.9821 -0.1848
vn 0.2988 -0.9495 -0.0958
vn 0.0777 -0.9908 0.1104
vn -0.0278 -0.9976 0.0630
vn -0.1830 -0.9660 0.1828
vn 0.0375 -0.9652 0.2589
vn 0.2764 -0.7307 0.6242
vn 0.3274 -0.7848 0.5263
vn -0.0378 -0.9375 0.3458
vn 0.2755 -0.8148 0.5101
vn -0.0980 0.8092 0.5794
vn -0.3390 0.8215 0.4585
vn -0.1289 0.9821 0.1375
vn 0.0982 0.9493 0.2988
vn -0.2734 0.3337 0.9022
vn -0.1671 0.3188 0.9330
vn -0.1809 0.4302 0.8844
vn -0.2078 0.4220 0.8825
vn 0.3016 -0.2559 -0.9185
vn 0.1990 -0.2496 -0.9477
vn 0.2306 -0.1985 -0.9526
vn 0.3740 -0.2189 -0.9012
vn 0.2078 -0.4220 -0.8825
vn 0.1809 -0.4302 -0.8844
vn 0.1671 -0.3188 -0.9330
vn 0.2734 -0.3337 -0.9022
vn 0.1164 -0.6805 -0.7234
vn 0.0646 -0.6797 -0.7307
vn 0.1926 -0.5541 -0.8099
vn 0.2246 -0.5656 -0.7935
vn -0.0982 -0.9493 -0.2988
vn 0.1289 -0.9821 -0.1375
vn 0.3390 -0.8215 -0.4585
vn 0.0980 -0.8092 -0.5794
vn -0.2333 -0.9649 0.1204
vn -0.0394 -0.9658 0.2563
vn -0.0349 -0.9976 0.0595
vn -0.1357 -0.9908 0.0012
vn -0.2570 -0.9377 0.2337
vn -0.6094 -0.7914 0.0491
vn -0.6624 -0.7351 0.1447
vn -0.5698 -0.8180 0.0785
vn 0.1357 0.9908 -0.0012
vn 0.0349 0.9976 -0.0595
vn 0.0394 0.9658 -0.2563
vn 0.2333 0.9649 -0.1204
vn -0.3740 0.2189 0.9012
vn -0.2306 0.1985 0.9526
vn -0.1990 0.2496 0.9477
vn -0.3016 0.2559 0.9185
vn -0.5680 0.2559 0.7823
vn -0.6503 0.2497 0.7174
vn -0.6364 0.1984 0.7454
vn -0.5117 0.2189 0.8308
vn -0.5933 0.4221 0.6854
vn -0.6096 0.4305 0.6657
vn -0.6569 0.3191 0.6831
vn -0.5712 0.3337 0.7499
vn -0.5178 0.6807 0.5182
vn -0.5527 0.6802 0.4814
vn -0.5424 0.5543 0.6313
vn -0.5115 0.5657 0.6468
vn -0.2988 0.9495 0.0958
vn -0.0366 0.9821 0.1848
vn -0.1743 0.8215 0.5429
vn -0.4118 0.8093 0.4189
vn -0.0375 0.9652 -0.2589
vn 0.1830 0.9660 -0.1828
vn 0.0278 0.9976 -0.0630
vn -0.0777 0.9908 -0.1104
vn 0.0378 0.9375 -0.3458
vn -0.3274 0.7848 -0.5263
vn -0.2764 0.7307 -0.6242
vn -0.2755 0.8148 -0.5101
vn -0.1846 0.5530 0.8125
vn -0.2239 0.5524 0.8029
vn -0.1657 0.6805 0.7138
vn -0.1632 0.6982 0.6970
vn 0.5717 -0.2011 -0.7954
vn 0.6444 -0.1956 -0.7392
vn 0.6392 -0.2537 -0.7260
vn 0.5720 -0.2547 -0.7797
vn 0.6018 -0.3247 -0.7296
vn 0.6070 -0.3365 -0.7199
vn 0.5480 -0.4503 -0.7049
vn 0.5378 -0.4386 -0.7200
vn 0.5502 -0.5531 -0.6255
vn 0.5188 -0.5526 -0.6522
vn 0.4803 -0.6807 -0.5531
vn 0.4691 -0.6983 -0.5406
vn 0.4312 -0.8025 -0.4124
vn 0.4315 -0.8369 -0.3367
vn -0.0562 -0.9784 -0.1987
vn 0.1638 -0.9780 -0.1288
vn 0.0908 -0.9893 0.1145
vn -0.0976 -0.9942 0.0455
vn -0.2206 -0.9619 0.1615
vn -0.3245 -0.9391 0.1131
vn -0.0812 0.8023 0.5914
vn -0.0185 0.8364 0.5479
vn -0.1956 0.9782 0.0696
vn -0.0081 0.9780 0.2085
vn -0.2387 0.3247 0.9152
vn -0.2266 0.3363 0.9141
vn -0.2495 0.4502 0.8574
vn -0.2686 0.4386 0.8576
vn 0.2971 -0.2547 -0.9203
vn 0.2125 -0.2536 -0.9437
vn 0.2203 -0.1955 -0.9556
vn 0.3100 -0.2012 -0.9292
vn 0.2686 -0.4386 -0.8576
vn 0.2495 -0.4502 -0.8574
vn 0.2266 -0.3363 -0.9141
vn 0.2387 -0.3247 -0.9152
vn 0.1632 -0.6982 -0.6970
vn 0.1657 -0.6805 -0.7138
vn 0.2239 -0.5524 -0.8029
vn 0.1846 -0.5530 -0.8125
vn 0.0081 -0.9780 -0.2085
vn 0.1956 -0.9782 -0.0696
vn 0.0185 -0.8364 -0.5479
vn 0.0812 -0.8023 -0.5914
vn 0.1008 -0.9384 0.3305
vn 0.0004 -0.9616 0.2746
vn 0.0214 -0.9941 0.1065
vn -0.1472 -0.9891 -0.0073
vn 0.1472 0.9891 0.0073
vn -0.0214 0.9941 -0.1065
vn -0.0004 0.9616 -0.2746
vn -0.1008 0.9384 -0.3305
vn -0.3100 0.2012 0.9292
vn -0.2203 0.1955 0.9556
vn -0.2125 0.2536 0.9437
vn -0.2971 0.2547 0.9203
vn -0.5720 0.2547 0.7797
vn -0.6392 0.2537 0.7260
vn -0.6444 0.1956 0.7392
vn -0.5717 0.2011 0.7954
vn -0.5378 0.4386 0.7200
vn -0.5480 0.4503 0.7049
vn -0.6070 0.3365 0.7199
vn -0.6018 0.3247 0.7296
vn -0.4691 0.6983 0.5406
vn -0.4803 0.6807 0.5531
vn -0.5188 0.5526 0.6522
vn -0.5502 0.5531 0.6255
vn -0.1638 0.9780 0.1288
vn 0.0562 0.9784 0.1987
vn -0.4315 0.8369 0.3367
vn -0.4312 0.8025 0.4124
vn 0.3245 0.9391 -0.1131
vn 0.2206 0.9619 -0.1615
vn 0.0976 0.9942 -0.0455
vn -0.0908 0.9893 -0.1145
usemtl Material.001
s off
f 1/1/1 3/2/1 4/3/1
f 5/4/2 3/2/2 2/5/2
f 8/6/3 2/5/3 7/7/3
f 9/8/4 2/5/4 1/1/4
f 10/9/5 11/10/5 12/11/5
f 13/12/6 14/13/6 11/10/6
f 10/9/7 15/14/7 13/12/7
f 10/9/8 13/12/8 11/10/8
f 16/15/9 18/16/9 19/17/9
f 17/18/10 21/19/10 18/16/10
f 22/20/11 20/21/11 17/18/11
f 24/22/12 17/18/12 16/15/12
f 25/23/13 22/20/13 24/22/13
f 26/24/14 23/25/14 22/20/14
f 28/26/15 27/27/15 26/24/15
f 30/28/16 26/24/16 25/23/16
f 31/29/17 28/26/17 30/28/17
f 33/30/18 28/26/18 32/31/18
f 35/32/19 32/31/19 34/33/19
f 36/34/20 32/31/20 31/29/20
f 37/35/21 34/33/21 36/34/21
f 39/36/22 34/33/22 38/37/22
f 40/38/23 39/36/23 38/37/23
f 42/39/24 38/37/24 37/35/24
f 43/40/25 40/38/25 42/39/25
f 44/41/26 41/42/26 40/38/26
f 47/43/27 44/41/27 46/44/27
f 48/45/28 44/41/28 43/40/28
f 49/46/29 50/47/29 51/48/29
f 52/49/30 53/50/30 50/47/30
f 49/46/31 48/45/31 52/49/31
f 49/46/32 52/49/32 50/47/32
f 54/51/33 7/7/33 9/8/33
f 56/52/34 7/7/34 55/53/34
f 57/54/35 56/52/35 55/53/35
f 59/55/36 55/53/36 54/51/36
f 60/56/37 62/57/37 63/58/37
f 61/59/38 65/60/38 62/57/38
f 3/2/39 64/61/39 61/59/39
f 4/3/40 61/59/40 60/56/40
f 66/62/41 24/22/41 16/15/41
f 68/63/42 67/64/42 66/62/42
f 71/65/43 66/62/43 70/66/43
f 70/66/44 16/15/44 19/17/44
f 72/67/45 30/28/45 25/23/45
f 74/68/46 73/69/46 72/67/46
f 69/70/47 72/67/47 67/64/47
f 67/64/48 25/23/48 24/22/48
f 76/71/49 36/34/49 31/29/49
f 76/71/50 79/72/50 77/73/50
f 73/69/51 78/74/51 76/71/51
f 73/69/52 31/29/52 30/28/52
f 80/75/53 42/39/53 37/35/53
f 82/76/54 81/77/54 80/75/54
f 77/73/55 82/76/55 80/75/55
f 77/73/56 37/35/56 36/34/56
f 84/78/57 48/45/57 43/40/57
f 84/78/58 53/50/58 52/49/58
f 83/79/59 84/78/59 81/77/59
f 81/77/60 43/40/60 42/39/60
f 49/46/61 46/44/61 48/45/61
f 86/80/62 47/43/62 46/44/62
f 49/46/63 51/48/63 86/80/63
f 49/46/64 86/80/64 46/44/64
f 87/81/65 57/54/65 59/55/65
f 88/82/66 58/83/66 57/54/66
f 91/84/67 88/82/67 90/85/67
f 15/14/68 88/82/68 87/81/68
f 92/86/69 94/87/69 95/88/69
f 93/89/70 97/90/70 94/87/70
f 62/57/71 96/91/71 93/89/71
f 63/58/72 93/89/72 92/86/72
f 98/92/73 63/58/73 92/86/73
f 100/93/74 99/94/74 98/92/74
f 103/95/75 98/92/75 102/96/75
f 102/96/76 92/86/76 95/88/76
f 104/97/77 4/3/77 60/56/77
f 106/98/78 105/99/78 104/97/78
f 101/100/79 104/97/79 99/94/79
f 99/94/80 60/56/80 63/58/80
f 108/101/81 9/8/81 1/1/81
f 108/101/82 111/102/82 109/103/82
f 105/99/83 110/104/83 108/101/83
f 105/99/84 1/1/84 4/3/84
f 112/105/85 59/55/85 54/51/85
f 114/106/86 113/107/86 112/105/86
f 109/103/87 114/106/87 112/105/87
f 109/103/88 54/51/88 9/8/88
f 116/108/89 15/14/89 87/81/89
f 116/108/90 14/13/90 13/12/90
f 115/109/91 116/108/91 113/107/91
f 113/107/92 87/81/92 59/55/92
f 10/9/93 90/85/93 15/14/93
f 118/110/94 91/84/94 90/85/94
f 10/9/95 12/11/95 118/110/95
f 10/9/96 118/110/96 90/85/96
f 1/1/97 2/5/97 3/2/97
f 5/4/98 6/111/98 3/2/98
f 8/6/99 5/4/99 2/5/99
f 9/8/100 7/7/100 2/5/100
f 16/15/101 17/18/101 18/16/101
f 17/18/102 20/21/102 21/19/102
f 22/20/103 23/25/103 20/21/103
f 24/22/104 22/20/104 17/18/104
f 25/23/105 26/24/105 22/20/105
f 26/24/106 27/27/106 23/25/106
f 28/26/107 29/112/107 27/27/107
f 30/28/108 28/26/108 26/24/108
f 31/29/109 32/31/109 28/26/109
f 33/30/110 29/112/110 28/26/110
f 35/32/111 33/30/111 32/31/111
f 36/34/112 34/33/112 32/31/112
f 37/35/113 38/37/113 34/33/113
f 39/36/114 35/32/114 34/33/114
f 40/38/115 41/42/115 39/36/115
f 42/39/116 40/38/116 38/37/116
f 43/40/117 44/41/117 40/38/117
f 44/41/118 45/113/118 41/42/118
f 47/43/119 45/113/119 44/41/119
f 48/45/120 46/44/120 44/41/120
f 54/51/121 55/53/121 7/7/121
f 56/52/122 8/6/122 7/7/122
f 57/54/123 58/83/123 56/52/123
f 59/55/124 57/54/124 55/53/124
f 60/56/125 61/59/125 62/57/125
f 61/59/126 64/61/126 65/60/126
f 3/2/127 6/111/127 64/61/127
f 4/3/128 3/2/128 61/59/128
f 66/62/129 67/64/129 24/22/129
f 68/63/130 69/70/130 67/64/130
f 71/65/131 68/63/131 66/62/131
f 70/66/132 66/62/132 16/15/132
f 72/67/133 73/69/133 30/28/133
f 74/68/134 75/114/134 73/69/134
f 69/70/135 74/68/135 72/67/135
f 67/64/136 72/67/136 25/23/136
f 76/71/137 77/73/137 36/34/137
f 76/71/138 78/74/138 79/72/138
f 73/69/139 75/114/139 78/74/139
f 73/69/140 76/71/140 31/29/140
f 80/75/141 81/77/141 42/39/141
f 82/76/142 83/79/142 81/77/142
f 77/73/143 79/72/143 82/76/143
f 77/73/144 80/75/144 37/35/144
f 84/78/145 52/49/145 48/45/145
f 84/78/146 85/115/146 53/50/146
f 83/79/147 85/115/147 84/78/147
f 81/77/148 84/78/148 43/40/148
f 87/81/149 88/82/149 57/54/149
f 88/82/150 89/116/150 58/83/150
f 91/84/151 89/116/151 88/82/151
f 15/14/152 90/85/152 88/82/152
f 92/86/153 93/89/153 94/87/153
f 93/89/154 96/91/154 97/90/154
f 62/57/155 65/60/155 96/91/155
f 63/58/156 62/57/156 93/89/156
f 98/92/157 99/94/157 63/58/157
f 100/93/158 101/100/158 99/94/158
f 103/95/159 100/93/159 98/92/159
f 102/96/160 98/92/160 92/86/160
f 104/97/161 105/99/161 4/3/161
f 106/98/162 107/117/162 105/99/162
f 101/100/163 106/98/163 104/97/163
f 99/94/164 104/97/164 60/56/164
f 108/101/165 109/103/165 9/8/165
f 108/101/166 110/104/166 111/102/166
f 105/99/167 107/117/167 110/104/167
f 105/99/168 108/101/168 1/1/168
f 112/105/169 113/107/169 59/55/169
f 114/106/170 115/109/170 113/107/170
f 109/103/171 111/102/171 114/106/171
f 109/103/172 112/105/172 54/51/172
f 116/108/173 13/12/173 15/14/173
f 116/108/174 117/118/174 14/13/174
f 115/109/175 117/118/175 116/108/175
f 113/107/176 116/108/176 87/81/176
