# Blender v2.79 (sub 0) OBJ File: ''
# www.blender.org
mtllib medium_4_low.mtl
o Grass_20.039
v 0.018530 0.376778 -0.026349
v -0.001294 0.000046 0.018733
v -0.001083 0.000007 -0.024100
v 0.094924 0.766730 0.045907
v 0.299094 1.039037 0.069604
v 0.146080 0.895318 0.011239
v 0.018530 0.376778 -0.026349
v -0.009112 0.000139 0.011288
v 0.094924 0.766730 0.045907
v 0.299094 1.039037 0.069604
v 0.146080 0.895318 0.011239
vt 0.968310 0.002012
vt 0.154887 0.254725
vt 0.014442 0.002013
vt 0.892726 0.606128
vt 0.171934 0.732874
vt 0.574136 0.956308
vt 0.171934 0.732874
vt 0.892726 0.606128
vt 0.154887 0.254725
vt 0.574137 0.956308
vt 0.803382 0.002012
vn -0.9975 0.0573 0.0403
vn -0.9186 0.1038 0.3814
vn -0.9986 0.0520 -0.0050
vn -0.9278 0.2839 -0.2419
vn -0.7190 0.4327 0.5440
vn -0.6435 0.4272 0.6351
vn 0.7190 -0.4327 -0.5440
vn 0.9266 -0.2845 0.2458
vn 0.9240 -0.1133 -0.3653
vn 0.6435 -0.4272 -0.6351
vn 0.9136 -0.1063 -0.3924
usemtl Material.001
s 1
f 2/1/1 1/2/2 3/3/3
f 4/4/4 6/5/5 1/2/2
f 6/5/5 4/4/4 5/6/6
f 11/7/7 9/8/8 7/9/9
f 9/8/8 11/7/7 10/10/10
f 1/2/2 2/1/1 4/4/4
f 9/8/8 8/11/11 7/9/9
