# Blender v2.79 (sub 0) OBJ File: ''
# www.blender.org
mtllib medium_3.mtl
o Grass_20.005
v -0.003272 0.101802 0.002994
v -0.014433 0.101988 0.000786
v -0.016533 0.192918 0.004110
v -0.004953 0.193794 0.006924
v -0.025316 0.098700 -0.001992
v -0.027566 0.187542 0.000120
v -0.012369 -0.000000 -0.002227
v -0.023085 -0.000000 -0.003732
v -0.001653 -0.000000 -0.000721
v 0.007528 0.192918 0.007494
v 0.006285 0.269856 0.011772
v 0.019695 0.269490 0.011250
v 0.020416 0.187542 0.006864
v 0.003232 0.342372 0.019950
v 0.017242 0.347484 0.019128
v -0.006981 0.269340 0.011682
v -0.010485 0.340962 0.019890
v -0.016437 0.421800 0.033852
v -0.028677 0.422646 0.029358
v -0.036548 0.510990 0.047334
v -0.024170 0.509700 0.051978
v -0.040304 0.427176 0.023574
v -0.047721 0.514206 0.039966
v -0.022749 0.342372 0.016296
v -0.034622 0.347484 0.011838
v -0.032841 0.600402 0.072312
v -0.045176 0.601812 0.067374
v -0.054009 0.692664 0.088770
v -0.041864 0.691302 0.093450
v -0.056091 0.604794 0.059562
v -0.064617 0.695160 0.080916
v -0.050907 0.779016 0.114630
v -0.062613 0.780582 0.110376
v -0.070767 0.855642 0.132378
v -0.059978 0.855384 0.135894
v -0.072873 0.779634 0.103518
v -0.080439 0.852540 0.126834
v -0.069740 0.913878 0.158766
v -0.079185 0.915318 0.156018
v -0.091496 0.964266 0.190800
v -0.083709 0.963018 0.191508
v -0.089072 0.914772 0.155460
v -0.100562 0.967194 0.193992
v -0.104223 1.010538 0.239592
v -0.109107 1.011624 0.239166
v -0.127263 1.047714 0.288642
v -0.124100 1.046358 0.286170
v -0.113180 1.008468 0.236034
v -0.124779 1.037400 0.274410
v -0.132177 1.058016 0.305088
v -0.123303 1.047714 0.289194
v -0.130275 1.056342 0.304050
v -0.114135 1.037400 0.275910
v -0.134930 1.060080 0.311514
v 0.008343 0.101988 0.003984
v 0.008943 -0.000000 0.000767
v 0.020127 0.098700 0.004392
v 0.019545 -0.000000 0.002255
v -0.018873 0.269856 0.008238
v -0.030458 0.269490 0.004200
v -0.002025 0.422646 0.033108
v 0.012825 0.427176 0.031044
v -0.009506 0.510990 0.051138
v 0.006213 0.514206 0.047544
v -0.017990 0.601812 0.071196
v -0.002145 0.604794 0.067146
v -0.027381 0.692664 0.092514
v -0.011775 0.695160 0.088344
v -0.037149 0.780582 0.113952
v -0.022647 0.779634 0.110580
v -0.047637 0.855642 0.135630
v -0.034707 0.852540 0.133260
v -0.059205 0.915318 0.158826
v -0.050091 0.914772 0.160938
v -0.076293 0.964266 0.192942
v -0.070929 0.967194 0.198156
v -0.099603 1.011624 0.240504
v -0.093573 1.008468 0.238788
v -0.133047 1.056342 0.303660
v -0.003272 0.101802 0.002994
v -0.014433 0.101988 0.000786
v -0.012369 -0.000000 -0.002227
v -0.001653 -0.000000 -0.000721
v -0.025316 0.098700 -0.001992
v -0.023085 -0.000000 -0.003732
v -0.016533 0.192918 0.004110
v -0.027566 0.187542 0.000120
v -0.004953 0.193794 0.006924
v 0.007528 0.192918 0.007494
v 0.006285 0.269856 0.011772
v -0.006981 0.269340 0.011682
v 0.003232 0.342372 0.019950
v -0.010485 0.340962 0.019890
v 0.019695 0.269490 0.011250
v 0.017242 0.347484 0.019128
v 0.020416 0.187542 0.006864
v -0.016437 0.421800 0.033852
v -0.028677 0.422646 0.029358
v -0.022749 0.342372 0.016296
v -0.040304 0.427176 0.023574
v -0.034622 0.347484 0.011838
v -0.036548 0.510990 0.047334
v -0.047721 0.514206 0.039966
v -0.024170 0.509700 0.051978
v -0.032841 0.600402 0.072312
v -0.045176 0.601812 0.067374
v -0.056091 0.604794 0.059562
v -0.054009 0.692664 0.088770
v -0.064617 0.695160 0.080916
v -0.041864 0.691302 0.093450
v -0.050907 0.779016 0.114630
v -0.062613 0.780582 0.110376
v -0.072873 0.779634 0.103518
v -0.070767 0.855642 0.132378
v -0.080439 0.852540 0.126834
v -0.059978 0.855384 0.135894
v -0.069740 0.913878 0.158766
v -0.079185 0.915318 0.156018
v -0.089072 0.914772 0.155460
v -0.091496 0.964266 0.190800
v -0.100562 0.967194 0.193992
v -0.083709 0.963018 0.191508
v -0.104223 1.010538 0.239592
v -0.109107 1.011624 0.239166
v -0.113180 1.008468 0.236034
v -0.127263 1.047714 0.288642
v -0.124779 1.037400 0.274410
v -0.124100 1.046358 0.286170
v -0.132177 1.058016 0.305088
v -0.130275 1.056342 0.304050
v -0.134930 1.060080 0.311514
v -0.123303 1.047714 0.289194
v -0.114135 1.037400 0.275910
v 0.008343 0.101988 0.003984
v 0.020127 0.098700 0.004392
v 0.008943 -0.000000 0.000767
v 0.019545 -0.000000 0.002255
v -0.018873 0.269856 0.008238
v -0.030458 0.269490 0.004200
v -0.002025 0.422646 0.033108
v -0.009506 0.510990 0.051138
v 0.012825 0.427176 0.031044
v 0.006213 0.514206 0.047544
v -0.017990 0.601812 0.071196
v -0.027381 0.692664 0.092514
v -0.002145 0.604794 0.067146
v -0.011775 0.695160 0.088344
v -0.037149 0.780582 0.113952
v -0.047637 0.855642 0.135630
v -0.022647 0.779634 0.110580
v -0.034707 0.852540 0.133260
v -0.059205 0.915318 0.158826
v -0.076293 0.964266 0.192942
v -0.050091 0.914772 0.160938
v -0.070929 0.967194 0.198156
v -0.099603 1.011624 0.240504
v -0.093573 1.008468 0.238788
v -0.133047 1.056342 0.303660
vt 0.498022 0.069726
vt 0.731150 0.137438
vt 0.498022 0.137438
vt 0.732163 0.069726
vt 0.964279 0.137438
vt 0.733176 0.002013
vt 0.966304 0.069726
vt 0.498022 0.002013
vt 0.259430 0.137438
vt 0.026204 0.181323
vt 0.020838 0.137438
vt 0.264796 0.225207
vt 0.262113 0.181323
vt 0.498022 0.225207
vt 0.498022 0.181323
vt 0.727022 0.285232
vt 0.498022 0.345256
vt 0.498022 0.285232
vt 0.956023 0.285232
vt 0.726504 0.345256
vt 0.957058 0.225207
vt 0.727540 0.225207
vt 0.726504 0.450808
vt 0.498022 0.556360
vt 0.498022 0.450808
vt 0.954987 0.450808
vt 0.726504 0.556360
vt 0.954987 0.345256
vt 0.712592 0.619264
vt 0.498022 0.682167
vt 0.498022 0.619264
vt 0.899340 0.682167
vt 0.698681 0.682167
vt 0.927163 0.619264
vt 0.667138 0.753113
vt 0.498022 0.824059
vt 0.498022 0.753113
vt 0.836255 0.753113
vt 0.635596 0.824059
vt 0.578270 0.897481
vt 0.498022 0.970902
vt 0.498022 0.897481
vt 0.543866 0.970902
vt 0.520944 0.970902
vt 0.773170 0.824059
vt 0.498022 0.984444
vt 0.477078 0.970902
vt 0.477078 0.984444
vt 0.456134 0.970902
vt 0.498022 0.997987
vt 0.256221 0.002013
vt 0.017629 0.069726
vt 0.257825 0.069726
vt 0.729345 0.181323
vt 0.960669 0.181323
vt 0.268157 0.285232
vt 0.031570 0.225207
vt 0.271518 0.345256
vt 0.038292 0.285232
vt 0.271518 0.450808
vt 0.045013 0.345256
vt 0.271518 0.556360
vt 0.045013 0.450808
vt 0.285429 0.619264
vt 0.072837 0.619264
vt 0.100660 0.682167
vt 0.299341 0.682167
vt 0.330884 0.753113
vt 0.163745 0.753113
vt 0.362426 0.824059
vt 0.419752 0.897481
vt 0.341482 0.897481
vt 0.520944 0.984444
vt 0.498022 0.069726
vt 0.733176 0.002013
vt 0.498022 0.002013
vt 0.966304 0.069726
vt 0.732163 0.069726
vt 0.964279 0.137438
vt 0.731150 0.137438
vt 0.498022 0.137438
vt 0.262113 0.181323
vt 0.259430 0.137438
vt 0.498022 0.225207
vt 0.498022 0.181323
vt 0.026204 0.181323
vt 0.264796 0.225207
vt 0.020838 0.137438
vt 0.498022 0.285232
vt 0.727540 0.225207
vt 0.727022 0.285232
vt 0.957058 0.225207
vt 0.726504 0.345256
vt 0.956023 0.285232
vt 0.498022 0.345256
vt 0.498022 0.450808
vt 0.726504 0.450808
vt 0.954987 0.345256
vt 0.726504 0.556360
vt 0.954987 0.450808
vt 0.498022 0.556360
vt 0.498022 0.619264
vt 0.927163 0.619264
vt 0.712592 0.619264
vt 0.899340 0.682167
vt 0.698681 0.682167
vt 0.498022 0.682167
vt 0.498022 0.753113
vt 0.836255 0.753113
vt 0.667138 0.753113
vt 0.635596 0.824059
vt 0.498022 0.824059
vt 0.498022 0.897481
vt 0.578270 0.897481
vt 0.773170 0.824059
vt 0.543866 0.970902
vt 0.520944 0.970902
vt 0.498022 0.970902
vt 0.498022 0.984444
vt 0.477078 0.984444
vt 0.498022 0.997987
vt 0.477078 0.970902
vt 0.456134 0.970902
vt 0.257825 0.069726
vt 0.256221 0.002013
vt 0.017629 0.069726
vt 0.729345 0.181323
vt 0.960669 0.181323
vt 0.271518 0.345256
vt 0.038292 0.285232
vt 0.268157 0.285232
vt 0.031570 0.225207
vt 0.271518 0.556360
vt 0.045013 0.450808
vt 0.271518 0.450808
vt 0.045013 0.345256
vt 0.299341 0.682167
vt 0.285429 0.619264
vt 0.100660 0.682167
vt 0.072837 0.619264
vt 0.362426 0.824059
vt 0.163745 0.753113
vt 0.330884 0.753113
vt 0.419752 0.897481
vt 0.341482 0.897481
vt 0.520944 0.984444
vt 0.968329 0.002013
vt 0.954987 0.556360
vt 0.658518 0.897481
vt 0.014420 0.002013
vt 0.045013 0.556360
vt 0.226830 0.824059
vt 0.968329 0.002013
vt 0.954987 0.556360
vt 0.658518 0.897481
vt 0.014420 0.002013
vt 0.045013 0.556360
vt 0.226830 0.824059
vn 0.2326 0.0458 -0.9715
vn 0.3216 0.0420 -0.9459
vn 0.2377 0.0335 -0.9708
vn 0.1391 0.0383 -0.9895
vn -0.0266 0.0532 -0.9982
vn -0.0356 0.1105 -0.9932
vn 0.0023 0.1140 -0.9935
vn 0.0495 0.0562 -0.9972
vn 0.3496 0.2186 -0.9110
vn 0.5009 0.2152 -0.8383
vn 0.4115 0.1759 -0.8943
vn 0.2958 0.1837 -0.9374
vn 0.3843 0.2451 -0.8901
vn 0.6075 0.2376 -0.7580
vn 0.5809 0.2276 -0.7815
vn 0.3628 0.2367 -0.9013
vn 0.3609 0.2897 -0.8865
vn 0.4012 0.2975 -0.8663
vn 0.5217 0.2514 -0.8152
vn 0.3725 0.2539 -0.8926
vn 0.3075 0.5866 -0.7492
vn 0.0138 0.5815 -0.8134
vn 0.0318 0.3720 -0.9277
vn 0.2937 0.3902 -0.8726
vn 0.2278 0.8164 -0.5306
vn 0.0200 0.8112 -0.5844
vn -0.0178 0.7112 -0.7028
vn 0.1774 0.7368 -0.6525
vn 0.2113 0.8698 -0.4458
vn 0.6581 0.7429 -0.1226
vn 0.6761 0.7349 0.0536
vn 0.5941 0.7847 -0.1769
vn 0.1390 0.0383 -0.9896
vn 0.0434 0.0317 -0.9986
vn -0.0329 0.0383 -0.9987
vn 0.0486 0.0435 -0.9979
vn 0.2810 0.1228 -0.9518
vn 0.3232 0.1216 -0.9385
vn 0.3268 0.0605 -0.9432
vn 0.2802 0.0678 -0.9575
vn -0.0131 0.1692 -0.9855
vn -0.1136 0.1535 -0.9816
vn -0.1893 0.1809 -0.9651
vn -0.0732 0.1952 -0.9780
vn -0.0930 0.2093 -0.9734
vn -0.2550 0.1858 -0.9489
vn -0.2768 0.1923 -0.9415
vn -0.0833 0.2179 -0.9724
vn -0.0737 0.2269 -0.9711
vn -0.2084 0.2098 -0.9553
vn -0.1131 0.2611 -0.9587
vn -0.0262 0.2653 -0.9638
vn -0.0435 0.3575 -0.9329
vn 0.2299 0.3910 -0.8912
vn 0.2137 0.6077 -0.7649
vn 0.0637 0.5658 -0.8220
vn -0.0260 0.7055 -0.7083
vn 0.2070 0.7421 -0.6375
vn 0.1431 0.8272 -0.5434
vn -0.0598 0.7788 -0.6244
vn -0.5626 0.6860 -0.4614
vn -0.4776 0.6697 -0.5687
vn -0.0665 0.8365 -0.5439
vn -0.4239 0.7051 -0.5684
vn -0.1391 -0.0383 0.9895
vn -0.2377 -0.0335 0.9708
vn -0.3216 -0.0420 0.9459
vn -0.2326 -0.0458 0.9715
vn -0.0495 -0.0562 0.9972
vn -0.0023 -0.1140 0.9935
vn 0.0356 -0.1105 0.9932
vn 0.0266 -0.0532 0.9982
vn -0.2958 -0.1837 0.9374
vn -0.4115 -0.1759 0.8943
vn -0.5009 -0.2152 0.8383
vn -0.3496 -0.2186 0.9110
vn -0.3628 -0.2367 0.9013
vn -0.5809 -0.2276 0.7815
vn -0.6075 -0.2376 0.7580
vn -0.3843 -0.2451 0.8901
vn -0.3725 -0.2539 0.8926
vn -0.5217 -0.2514 0.8152
vn -0.4012 -0.2975 0.8663
vn -0.3609 -0.2897 0.8865
vn -0.2937 -0.3902 0.8726
vn -0.0318 -0.3720 0.9277
vn -0.0138 -0.5815 0.8134
vn -0.3075 -0.5866 0.7492
vn -0.1774 -0.7368 0.6525
vn 0.0178 -0.7112 0.7028
vn -0.0200 -0.8112 0.5844
vn -0.2278 -0.8164 0.5306
vn -0.6761 -0.7349 -0.0536
vn -0.6581 -0.7429 0.1226
vn -0.2113 -0.8698 0.4458
vn -0.5941 -0.7847 0.1769
vn -0.0486 -0.0435 0.9979
vn 0.0329 -0.0383 0.9987
vn -0.0434 -0.0317 0.9986
vn -0.1390 -0.0383 0.9896
vn -0.2802 -0.0678 0.9575
vn -0.3268 -0.0605 0.9432
vn -0.3232 -0.1216 0.9385
vn -0.2810 -0.1228 0.9518
vn 0.0732 -0.1952 0.9780
vn 0.1893 -0.1809 0.9651
vn 0.1136 -0.1535 0.9816
vn 0.0131 -0.1692 0.9855
vn 0.0833 -0.2179 0.9724
vn 0.2768 -0.1923 0.9415
vn 0.2550 -0.1858 0.9489
vn 0.0930 -0.2093 0.9734
vn 0.0262 -0.2653 0.9638
vn 0.1131 -0.2611 0.9587
vn 0.2084 -0.2098 0.9553
vn 0.0737 -0.2269 0.9711
vn -0.0637 -0.5658 0.8220
vn -0.2137 -0.6077 0.7649
vn -0.2299 -0.3910 0.8912
vn 0.0435 -0.3575 0.9329
vn 0.0598 -0.7788 0.6244
vn -0.1431 -0.8272 0.5434
vn -0.2070 -0.7421 0.6375
vn 0.0260 -0.7055 0.7083
vn 0.0665 -0.8365 0.5439
vn 0.4776 -0.6697 0.5687
vn 0.5626 -0.6860 0.4614
vn 0.4239 -0.7051 0.5684
vn 0.1946 0.0403 -0.9801
vn 0.2389 0.0291 -0.9706
vn 0.1391 0.0206 -0.9901
vn 0.1945 0.0329 -0.9803
vn -0.0373 0.0549 -0.9978
vn -0.0936 0.0971 -0.9909
vn -0.0071 0.1118 -0.9937
vn 0.0043 0.0630 -0.9980
vn 0.3626 0.2167 -0.9064
vn 0.5788 0.1983 -0.7910
vn 0.4892 0.1611 -0.8572
vn 0.3500 0.1756 -0.9202
vn 0.3724 0.2469 -0.8946
vn 0.6135 0.2360 -0.7536
vn 0.6069 0.2212 -0.7634
vn 0.3842 0.2336 -0.8932
vn 0.3022 0.2982 -0.9054
vn 0.5084 0.3097 -0.8035
vn 0.6134 0.2595 -0.7459
vn 0.3602 0.2557 -0.8971
vn 0.1672 0.5987 -0.7833
vn -0.1002 0.5749 -0.8120
vn 0.3405 0.4315 -0.8354
vn 0.3116 0.3876 -0.8676
vn -0.1529 0.7709 -0.6184
vn -0.1226 0.7743 -0.6208
vn -0.0115 0.7118 -0.7023
vn 0.2195 0.7358 -0.6406
vn 0.0844 0.0319 -0.9959
vn 0.1390 0.0206 -0.9901
vn 0.0423 0.0277 -0.9987
vn 0.0842 0.0392 -0.9957
vn 0.2919 0.1210 -0.9487
vn 0.3906 0.1104 -0.9139
vn 0.3143 0.0583 -0.9475
vn 0.2315 0.0591 -0.9710
vn -0.0601 0.1576 -0.9857
vn -0.1770 0.1359 -0.9748
vn -0.2513 0.1618 -0.9543
vn -0.0620 0.1945 -0.9789
vn -0.0742 0.2084 -0.9752
vn -0.2751 0.1790 -0.9446
vn -0.2818 0.1906 -0.9404
vn -0.0937 0.2182 -0.9714
vn -0.0841 0.2272 -0.9702
vn -0.2836 0.2098 -0.9357
vn -0.2025 0.2602 -0.9441
vn -0.0777 0.2666 -0.9607
vn -0.0274 0.3575 -0.9335
vn -0.0747 0.3898 -0.9179
vn 0.3361 0.6304 -0.6998
vn -0.0709 0.5536 -0.8298
vn 0.0158 0.7124 -0.7016
vn 0.2126 0.7422 -0.6355
vn 0.2957 0.8260 -0.4799
vn 0.3233 0.8287 -0.4569
vn -0.1945 -0.0329 0.9803
vn -0.1391 -0.0206 0.9901
vn -0.2389 -0.0291 0.9706
vn -0.1946 -0.0403 0.9801
vn -0.0043 -0.0630 0.9980
vn 0.0071 -0.1118 0.9937
vn 0.0936 -0.0971 0.9909
vn 0.0373 -0.0549 0.9978
vn -0.3500 -0.1756 0.9202
vn -0.4892 -0.1611 0.8572
vn -0.5788 -0.1983 0.7910
vn -0.3626 -0.2167 0.9064
vn -0.3842 -0.2336 0.8932
vn -0.6069 -0.2212 0.7634
vn -0.6135 -0.2360 0.7536
vn -0.3724 -0.2469 0.8946
vn -0.3602 -0.2557 0.8971
vn -0.6134 -0.2595 0.7459
vn -0.5084 -0.3097 0.8035
vn -0.3022 -0.2982 0.9054
vn -0.3115 -0.3876 0.8676
vn -0.3405 -0.4315 0.8354
vn 0.1002 -0.5749 0.8120
vn -0.1672 -0.5987 0.7833
vn -0.2195 -0.7358 0.6406
vn 0.0115 -0.7118 0.7023
vn 0.1226 -0.7743 0.6208
vn 0.1529 -0.7709 0.6184
vn -0.0842 -0.0392 0.9957
vn -0.0423 -0.0277 0.9987
vn -0.1390 -0.0206 0.9901
vn -0.0844 -0.0319 0.9959
vn -0.2315 -0.0591 0.9710
vn -0.3143 -0.0583 0.9475
vn -0.3906 -0.1104 0.9139
vn -0.2919 -0.1210 0.9487
vn 0.0620 -0.1945 0.9789
vn 0.2513 -0.1618 0.9543
vn 0.1770 -0.1359 0.9748
vn 0.0601 -0.1576 0.9857
vn 0.0937 -0.2182 0.9714
vn 0.2818 -0.1906 0.9404
vn 0.2751 -0.1790 0.9446
vn 0.0742 -0.2084 0.9752
vn 0.0777 -0.2666 0.9607
vn 0.2025 -0.2602 0.9441
vn 0.2836 -0.2098 0.9357
vn 0.0841 -0.2272 0.9702
vn 0.0709 -0.5536 0.8298
vn -0.3361 -0.6304 0.6997
vn 0.0747 -0.3898 0.9179
vn 0.0274 -0.3575 0.9335
vn -0.3233 -0.8287 0.4569
vn -0.2957 -0.8260 0.4799
vn -0.2126 -0.7423 0.6355
vn -0.0158 -0.7124 0.7016
usemtl Material.001
s off
f 1/1/1 3/2/1 4/3/1
f 2/4/2 6/5/2 3/2/2
f 7/6/3 5/7/3 2/4/3
f 7/6/4 1/1/4 9/8/4
f 10/9/5 12/10/5 13/11/5
f 14/12/6 12/10/6 11/13/6
f 17/14/7 11/13/7 16/15/7
f 4/3/8 11/13/8 10/9/8
f 19/16/9 21/17/9 18/18/9
f 22/19/10 20/20/10 19/16/10
f 25/21/11 19/16/11 24/22/11
f 24/22/12 18/18/12 17/14/12
f 27/23/13 29/24/13 26/25/13
f 30/26/14 28/27/14 27/23/14
f 23/28/15 27/23/15 20/20/15
f 20/20/16 26/25/16 21/17/16
f 33/29/17 35/30/17 32/31/17
f 33/29/18 37/32/18 34/33/18
f 28/27/19 36/34/19 33/29/19
f 28/27/20 32/31/20 29/24/20
f 39/35/21 41/36/21 38/37/21
f 42/38/22 40/39/22 39/35/22
f 34/33/23 42/38/23 39/35/23
f 34/33/24 38/37/24 35/30/24
f 45/40/25 47/41/25 44/42/25
f 45/40/26 49/43/26 46/44/26
f 43/45/27 45/40/27 40/39/27
f 40/39/28 44/42/28 41/36/28
f 50/46/29 51/47/29 47/41/29
f 52/48/30 53/49/30 51/47/30
f 50/46/31 54/50/31 52/48/31
f 50/46/32 52/48/32 51/47/32
f 1/1/33 56/51/33 9/8/33
f 57/52/34 56/51/34 55/53/34
f 13/11/35 55/53/35 10/9/35
f 10/9/36 1/1/36 4/3/36
f 59/54/37 17/14/37 16/15/37
f 60/55/38 24/22/38 59/54/38
f 3/2/39 60/55/39 59/54/39
f 4/3/40 59/54/40 16/15/40
f 18/18/41 14/12/41 17/14/41
f 61/56/42 15/57/42 14/12/42
f 63/58/43 62/59/43 61/56/43
f 63/58/44 18/18/44 21/17/44
f 65/60/45 21/17/45 26/25/45
f 65/60/46 64/61/46 63/58/46
f 67/62/47 66/63/47 65/60/47
f 67/62/48 26/25/48 29/24/48
f 69/64/49 29/24/49 32/31/49
f 70/65/50 67/62/50 69/64/50
f 72/66/51 69/64/51 71/67/51
f 71/67/52 32/31/52 35/30/52
f 73/68/53 35/30/53 38/37/53
f 74/69/54 71/67/54 73/68/54
f 75/70/55 74/69/55 73/68/55
f 75/70/56 38/37/56 41/36/56
f 77/71/57 41/36/57 44/42/57
f 78/72/58 75/70/58 77/71/58
f 53/49/59 77/71/59 51/47/59
f 47/41/60 77/71/60 44/42/60
f 50/46/61 79/73/61 54/50/61
f 46/44/62 49/43/62 79/73/62
f 50/46/63 47/41/63 46/44/63
f 50/46/64 46/44/64 79/73/64
f 80/74/65 82/75/65 83/76/65
f 84/77/66 82/75/66 81/78/66
f 87/79/67 81/78/67 86/80/67
f 86/80/68 80/74/68 88/81/68
f 90/82/69 88/81/69 89/83/69
f 90/82/70 93/84/70 91/85/70
f 94/86/71 92/87/71 90/82/71
f 94/86/72 89/83/72 96/88/72
f 97/89/73 99/90/73 93/84/73
f 98/91/74 101/92/74 99/90/74
f 102/93/75 100/94/75 98/91/75
f 104/95/76 98/91/76 97/89/76
f 105/96/77 102/93/77 104/95/77
f 106/97/78 103/98/78 102/93/78
f 108/99/79 107/100/79 106/97/79
f 110/101/80 106/97/80 105/96/80
f 111/102/81 108/99/81 110/101/81
f 113/103/82 108/99/82 112/104/82
f 115/105/83 112/104/83 114/106/83
f 116/107/84 112/104/84 111/102/84
f 117/108/85 114/106/85 116/107/85
f 119/109/86 114/106/86 118/110/86
f 120/111/87 119/109/87 118/110/87
f 122/112/88 118/110/88 117/108/88
f 123/113/89 120/111/89 122/112/89
f 124/114/90 121/115/90 120/111/90
f 127/116/91 124/114/91 126/117/91
f 128/118/92 124/114/92 123/113/92
f 129/119/93 130/120/93 131/121/93
f 132/122/94 133/123/94 130/120/94
f 129/119/95 128/118/95 132/122/95
f 129/119/96 132/122/96 130/120/96
f 80/74/97 89/83/97 88/81/97
f 134/124/98 96/88/98 89/83/98
f 136/125/99 135/126/99 134/124/99
f 136/125/100 80/74/100 83/76/100
f 138/127/101 88/81/101 91/85/101
f 139/128/102 86/80/102 138/127/102
f 99/90/103 139/128/103 138/127/103
f 93/84/104 138/127/104 91/85/104
f 97/89/105 141/129/105 104/95/105
f 142/130/106 141/129/106 140/131/106
f 95/132/107 140/131/107 92/87/107
f 92/87/108 97/89/108 93/84/108
f 105/96/109 145/133/109 110/101/109
f 146/134/110 145/133/110 144/135/110
f 143/136/111 144/135/111 141/129/111
f 104/95/112 144/135/112 105/96/112
f 111/102/113 149/137/113 116/107/113
f 148/138/114 151/139/114 149/137/114
f 145/133/115 150/140/115 148/138/115
f 110/101/116 148/138/116 111/102/116
f 117/108/117 153/141/117 122/112/117
f 154/142/118 153/141/118 152/143/118
f 149/137/119 154/142/119 152/143/119
f 116/107/120 152/143/120 117/108/120
f 156/144/121 128/118/121 123/113/121
f 156/144/122 133/123/122 132/122/122
f 153/141/123 157/145/123 156/144/123
f 122/112/124 156/144/124 123/113/124
f 129/119/125 126/117/125 128/118/125
f 158/146/126 127/116/126 126/117/126
f 129/119/127 131/121/127 158/146/127
f 129/119/128 158/146/128 126/117/128
f 1/1/129 2/4/129 3/2/129
f 2/4/130 5/7/130 6/5/130
f 7/6/131 8/147/131 5/7/131
f 7/6/132 2/4/132 1/1/132
f 10/9/133 11/13/133 12/10/133
f 14/12/134 15/57/134 12/10/134
f 17/14/135 14/12/135 11/13/135
f 4/3/136 16/15/136 11/13/136
f 19/16/137 20/20/137 21/17/137
f 22/19/138 23/28/138 20/20/138
f 25/21/139 22/19/139 19/16/139
f 24/22/140 19/16/140 18/18/140
f 27/23/141 28/27/141 29/24/141
f 30/26/142 31/148/142 28/27/142
f 23/28/143 30/26/143 27/23/143
f 20/20/144 27/23/144 26/25/144
f 33/29/145 34/33/145 35/30/145
f 33/29/146 36/34/146 37/32/146
f 28/27/147 31/148/147 36/34/147
f 28/27/148 33/29/148 32/31/148
f 39/35/149 40/39/149 41/36/149
f 42/38/150 43/45/150 40/39/150
f 34/33/151 37/32/151 42/38/151
f 34/33/152 39/35/152 38/37/152
f 45/40/153 46/44/153 47/41/153
f 45/40/154 48/149/154 49/43/154
f 43/45/155 48/149/155 45/40/155
f 40/39/156 45/40/156 44/42/156
f 1/1/157 55/53/157 56/51/157
f 57/52/158 58/150/158 56/51/158
f 13/11/159 57/52/159 55/53/159
f 10/9/160 55/53/160 1/1/160
f 59/54/161 24/22/161 17/14/161
f 60/55/162 25/21/162 24/22/162
f 3/2/163 6/5/163 60/55/163
f 4/3/164 3/2/164 59/54/164
f 18/18/165 61/56/165 14/12/165
f 61/56/166 62/59/166 15/57/166
f 63/58/167 64/61/167 62/59/167
f 63/58/168 61/56/168 18/18/168
f 65/60/169 63/58/169 21/17/169
f 65/60/170 66/63/170 64/61/170
f 67/62/171 68/151/171 66/63/171
f 67/62/172 65/60/172 26/25/172
f 69/64/173 67/62/173 29/24/173
f 70/65/174 68/151/174 67/62/174
f 72/66/175 70/65/175 69/64/175
f 71/67/176 69/64/176 32/31/176
f 73/68/177 71/67/177 35/30/177
f 74/69/178 72/66/178 71/67/178
f 75/70/179 76/152/179 74/69/179
f 75/70/180 73/68/180 38/37/180
f 77/71/181 75/70/181 41/36/181
f 78/72/182 76/152/182 75/70/182
f 53/49/183 78/72/183 77/71/183
f 47/41/184 51/47/184 77/71/184
f 80/74/185 81/78/185 82/75/185
f 84/77/186 85/153/186 82/75/186
f 87/79/187 84/77/187 81/78/187
f 86/80/188 81/78/188 80/74/188
f 90/82/189 91/85/189 88/81/189
f 90/82/190 92/87/190 93/84/190
f 94/86/191 95/132/191 92/87/191
f 94/86/192 90/82/192 89/83/192
f 97/89/193 98/91/193 99/90/193
f 98/91/194 100/94/194 101/92/194
f 102/93/195 103/98/195 100/94/195
f 104/95/196 102/93/196 98/91/196
f 105/96/197 106/97/197 102/93/197
f 106/97/198 107/100/198 103/98/198
f 108/99/199 109/154/199 107/100/199
f 110/101/200 108/99/200 106/97/200
f 111/102/201 112/104/201 108/99/201
f 113/103/202 109/154/202 108/99/202
f 115/105/203 113/103/203 112/104/203
f 116/107/204 114/106/204 112/104/204
f 117/108/205 118/110/205 114/106/205
f 119/109/206 115/105/206 114/106/206
f 120/111/207 121/115/207 119/109/207
f 122/112/208 120/111/208 118/110/208
f 123/113/209 124/114/209 120/111/209
f 124/114/210 125/155/210 121/115/210
f 127/116/211 125/155/211 124/114/211
f 128/118/212 126/117/212 124/114/212
f 80/74/213 134/124/213 89/83/213
f 134/124/214 135/126/214 96/88/214
f 136/125/215 137/156/215 135/126/215
f 136/125/216 134/124/216 80/74/216
f 138/127/217 86/80/217 88/81/217
f 139/128/218 87/79/218 86/80/218
f 99/90/219 101/92/219 139/128/219
f 93/84/220 99/90/220 138/127/220
f 97/89/221 140/131/221 141/129/221
f 142/130/222 143/136/222 141/129/222
f 95/132/223 142/130/223 140/131/223
f 92/87/224 140/131/224 97/89/224
f 105/96/225 144/135/225 145/133/225
f 146/134/226 147/157/226 145/133/226
f 143/136/227 146/134/227 144/135/227
f 104/95/228 141/129/228 144/135/228
f 111/102/229 148/138/229 149/137/229
f 148/138/230 150/140/230 151/139/230
f 145/133/231 147/157/231 150/140/231
f 110/101/232 145/133/232 148/138/232
f 117/108/233 152/143/233 153/141/233
f 154/142/234 155/158/234 153/141/234
f 149/137/235 151/139/235 154/142/235
f 116/107/236 149/137/236 152/143/236
f 156/144/237 132/122/237 128/118/237
f 156/144/238 157/145/238 133/123/238
f 153/141/239 155/158/239 157/145/239
f 122/112/240 153/141/240 156/144/240
