# Blender v2.79 (sub 0) OBJ File: ''
# www.blender.org
mtllib medium_2.mtl
o Grass_20.004
v -0.003998 0.091560 -0.002233
v -0.003758 0.091728 -0.013603
v -0.007400 0.173514 -0.015091
v -0.008156 0.174300 -0.003205
v -0.002912 0.088770 -0.024805
v -0.005384 0.168678 -0.026653
v -0.000434 0.000000 -0.012091
v -0.000812 0.000000 -0.022909
v -0.000056 0.000000 -0.001279
v -0.006548 0.173514 0.009185
v -0.010982 0.242712 0.008705
v -0.008138 0.242376 0.021821
v -0.003698 0.168678 0.021767
v -0.019562 0.307926 0.007121
v -0.016322 0.312528 0.020777
v -0.013196 0.242244 -0.004375
v -0.021890 0.306666 -0.006397
v -0.036674 0.379368 -0.009835
v -0.034370 0.380130 -0.022669
v -0.053444 0.459582 -0.027301
v -0.055862 0.458424 -0.014305
v -0.030698 0.384204 -0.035125
v -0.048122 0.462480 -0.039583
v -0.020480 0.307926 -0.019099
v -0.018152 0.312528 -0.031573
v -0.077396 0.540000 -0.019315
v -0.074678 0.541272 -0.032317
v -0.097280 0.622986 -0.037303
v -0.099776 0.621756 -0.024529
v -0.068876 0.543954 -0.044419
v -0.091388 0.625224 -0.049111
v -0.122210 0.700650 -0.029755
v -0.120050 0.702060 -0.042025
v -0.143138 0.769566 -0.046231
v -0.144722 0.769332 -0.034999
v -0.115076 0.701202 -0.053317
v -0.139352 0.766776 -0.056719
v -0.168944 0.821946 -0.040639
v -0.167876 0.823236 -0.050413
v -0.204272 0.867264 -0.056503
v -0.203612 0.866142 -0.048709
v -0.169046 0.822744 -0.060253
v -0.208982 0.869898 -0.064879
v -0.254528 0.908880 -0.060565
v -0.254960 0.909858 -0.065449
v -0.306830 0.942318 -0.074743
v -0.303854 0.941100 -0.072049
v -0.252578 0.907014 -0.070003
v -0.292388 0.933036 -0.074755
v -0.323882 0.951582 -0.076723
v -0.306692 0.942318 -0.070741
v -0.322532 0.950076 -0.075025
v -0.292016 0.933036 -0.064015
v -0.330686 0.953436 -0.078313
v -0.002954 0.091728 0.009383
v 0.000316 0.000000 0.009413
v -0.001310 0.088770 0.021053
v 0.000688 0.000000 0.020111
v -0.011870 0.242712 -0.016687
v -0.009908 0.242376 -0.028789
v -0.033434 0.380130 0.004229
v -0.028826 0.384204 0.018497
v -0.052490 0.459582 -0.000013
v -0.046226 0.462480 0.014849
v -0.073718 0.541272 -0.004885
v -0.066974 0.543954 0.010025
v -0.096344 0.622986 -0.010429
v -0.089528 0.625224 0.004217
v -0.119150 0.702060 -0.016321
v -0.113312 0.701202 -0.002629
v -0.142322 0.769566 -0.022891
v -0.137744 0.766776 -0.010567
v -0.167168 0.823236 -0.030253
v -0.167672 0.822744 -0.020911
v -0.203738 0.867264 -0.041155
v -0.207938 0.869898 -0.034969
v -0.254624 0.909858 -0.055855
v -0.251888 0.907014 -0.050215
v -0.322628 0.950076 -0.077827
v -0.003998 0.091560 -0.002233
v -0.003758 0.091728 -0.013603
v -0.000434 0.000000 -0.012091
v -0.000056 0.000000 -0.001279
v -0.002912 0.088770 -0.024805
v -0.000812 0.000000 -0.022909
v -0.007400 0.173514 -0.015091
v -0.005384 0.168678 -0.026653
v -0.008156 0.174300 -0.003205
v -0.006548 0.173514 0.009185
v -0.010982 0.242712 0.008705
v -0.013196 0.242244 -0.004375
v -0.019562 0.307926 0.007121
v -0.021890 0.306666 -0.006397
v -0.008138 0.242376 0.021821
v -0.016322 0.312528 0.020777
v -0.003698 0.168678 0.021767
v -0.036674 0.379368 -0.009835
v -0.034370 0.380130 -0.022669
v -0.020480 0.307926 -0.019099
v -0.030698 0.384204 -0.035125
v -0.018152 0.312528 -0.031573
v -0.053444 0.459582 -0.027301
v -0.048122 0.462480 -0.039583
v -0.055862 0.458424 -0.014305
v -0.077396 0.540000 -0.019315
v -0.074678 0.541272 -0.032317
v -0.068876 0.543954 -0.044419
v -0.097280 0.622986 -0.037303
v -0.091388 0.625224 -0.049111
v -0.099776 0.621756 -0.024529
v -0.122210 0.700650 -0.029755
v -0.120050 0.702060 -0.042025
v -0.115076 0.701202 -0.053317
v -0.143138 0.769566 -0.046231
v -0.139352 0.766776 -0.056719
v -0.144722 0.769332 -0.034999
v -0.168944 0.821946 -0.040639
v -0.167876 0.823236 -0.050413
v -0.169046 0.822744 -0.060253
v -0.204272 0.867264 -0.056503
v -0.208982 0.869898 -0.064879
v -0.203612 0.866142 -0.048709
v -0.254528 0.908880 -0.060565
v -0.254960 0.909858 -0.065449
v -0.252578 0.907014 -0.070003
v -0.306830 0.942318 -0.074743
v -0.292388 0.933036 -0.074755
v -0.303854 0.941100 -0.072049
v -0.323882 0.951582 -0.076723
v -0.322532 0.950076 -0.075025
v -0.330686 0.953436 -0.078313
v -0.306692 0.942318 -0.070741
v -0.292016 0.933036 -0.064015
v -0.002954 0.091728 0.009383
v -0.001310 0.088770 0.021053
v 0.000316 0.000000 0.009413
v 0.000688 0.000000 0.020111
v -0.011870 0.242712 -0.016687
v -0.009908 0.242376 -0.028789
v -0.033434 0.380130 0.004229
v -0.052490 0.459582 -0.000013
v -0.028826 0.384204 0.018497
v -0.046226 0.462480 0.014849
v -0.073718 0.541272 -0.004885
v -0.096344 0.622986 -0.010429
v -0.066974 0.543954 0.010025
v -0.089528 0.625224 0.004217
v -0.119150 0.702060 -0.016321
v -0.142322 0.769566 -0.022891
v -0.113312 0.701202 -0.002629
v -0.137744 0.766776 -0.010567
v -0.167168 0.823236 -0.030253
v -0.203738 0.867264 -0.041155
v -0.167672 0.822744 -0.020911
v -0.207938 0.869898 -0.034969
v -0.254624 0.909858 -0.055855
v -0.251888 0.907014 -0.050215
v -0.322628 0.950076 -0.077827
vt 0.498022 0.069726
vt 0.731150 0.137438
vt 0.498022 0.137438
vt 0.732163 0.069726
vt 0.964279 0.137438
vt 0.733176 0.002013
vt 0.966304 0.069726
vt 0.498022 0.002013
vt 0.259430 0.137438
vt 0.026204 0.181323
vt 0.020838 0.137438
vt 0.264796 0.225207
vt 0.262113 0.181323
vt 0.498022 0.225207
vt 0.498022 0.181323
vt 0.727022 0.285232
vt 0.498022 0.345256
vt 0.498022 0.285232
vt 0.956023 0.285232
vt 0.726504 0.345256
vt 0.957058 0.225207
vt 0.727540 0.225207
vt 0.726504 0.450808
vt 0.498022 0.556360
vt 0.498022 0.450808
vt 0.954987 0.450808
vt 0.726504 0.556360
vt 0.954987 0.345256
vt 0.712592 0.619264
vt 0.498022 0.682167
vt 0.498022 0.619264
vt 0.899340 0.682167
vt 0.698681 0.682167
vt 0.927163 0.619264
vt 0.667138 0.753113
vt 0.498022 0.824059
vt 0.498022 0.753113
vt 0.836255 0.753113
vt 0.635596 0.824059
vt 0.578270 0.897481
vt 0.498022 0.970902
vt 0.498022 0.897481
vt 0.543866 0.970902
vt 0.520944 0.970902
vt 0.773170 0.824059
vt 0.498022 0.984444
vt 0.477078 0.970902
vt 0.477078 0.984444
vt 0.456134 0.970902
vt 0.498022 0.997987
vt 0.257825 0.069726
vt 0.017629 0.069726
vt 0.256221 0.002013
vt 0.729345 0.181323
vt 0.960669 0.181323
vt 0.268157 0.285232
vt 0.031570 0.225207
vt 0.271518 0.345256
vt 0.038292 0.285232
vt 0.271518 0.450808
vt 0.045013 0.345256
vt 0.045013 0.556360
vt 0.271518 0.556360
vt 0.285429 0.619264
vt 0.072837 0.619264
vt 0.100660 0.682167
vt 0.299341 0.682167
vt 0.330884 0.753113
vt 0.163745 0.753113
vt 0.362426 0.824059
vt 0.419752 0.897481
vt 0.341482 0.897481
vt 0.520944 0.984444
vt 0.498022 0.069726
vt 0.733176 0.002013
vt 0.498022 0.002013
vt 0.966304 0.069726
vt 0.732163 0.069726
vt 0.964279 0.137438
vt 0.731150 0.137438
vt 0.498022 0.137438
vt 0.262113 0.181323
vt 0.259430 0.137438
vt 0.498022 0.225207
vt 0.498022 0.181323
vt 0.026204 0.181323
vt 0.264796 0.225207
vt 0.020838 0.137438
vt 0.498022 0.285232
vt 0.727540 0.225207
vt 0.727022 0.285232
vt 0.957058 0.225207
vt 0.726504 0.345256
vt 0.956023 0.285232
vt 0.498022 0.345256
vt 0.498022 0.450808
vt 0.726504 0.450808
vt 0.954987 0.345256
vt 0.726504 0.556360
vt 0.954987 0.450808
vt 0.498022 0.556360
vt 0.498022 0.619264
vt 0.927163 0.619264
vt 0.712592 0.619264
vt 0.899340 0.682167
vt 0.698681 0.682167
vt 0.498022 0.682167
vt 0.498022 0.753113
vt 0.836255 0.753113
vt 0.667138 0.753113
vt 0.635596 0.824059
vt 0.498022 0.824059
vt 0.498022 0.897481
vt 0.578270 0.897481
vt 0.773170 0.824059
vt 0.543866 0.970902
vt 0.520944 0.970902
vt 0.498022 0.970902
vt 0.498022 0.984444
vt 0.477078 0.984444
vt 0.498022 0.997987
vt 0.477078 0.970902
vt 0.456134 0.970902
vt 0.257825 0.069726
vt 0.256221 0.002013
vt 0.017629 0.069726
vt 0.960669 0.181323
vt 0.729345 0.181323
vt 0.271518 0.345256
vt 0.038292 0.285232
vt 0.268157 0.285232
vt 0.031570 0.225207
vt 0.271518 0.556360
vt 0.271518 0.450808
vt 0.045013 0.556360
vt 0.045013 0.345256
vt 0.299341 0.682167
vt 0.285429 0.619264
vt 0.100660 0.682167
vt 0.072837 0.619264
vt 0.362426 0.824059
vt 0.163745 0.753113
vt 0.330884 0.753113
vt 0.419752 0.897481
vt 0.341482 0.897481
vt 0.520944 0.984444
vt 0.968329 0.002013
vt 0.954987 0.556360
vt 0.658518 0.897481
vt 0.014420 0.002013
vt 0.045013 0.450808
vt 0.226830 0.824059
vt 0.968329 0.002013
vt 0.954987 0.556360
vt 0.658518 0.897481
vt 0.014420 0.002013
vt 0.045013 0.450808
vt 0.226830 0.824059
vn 0.9969 0.0508 0.0600
vn 0.9872 0.0467 0.1526
vn 0.9972 0.0372 0.0655
vn 0.9985 0.0426 -0.0349
vn 0.9782 0.0591 -0.1989
vn 0.9706 0.1227 -0.2073
vn 0.9773 0.1266 -0.1699
vn 0.9902 0.0626 -0.1245
vn 0.9525 0.2417 0.1853
vn 0.9077 0.2381 0.3455
vn 0.9487 0.1948 0.2489
vn 0.9707 0.2034 0.1279
vn 0.9367 0.2706 0.2223
vn 0.8462 0.2624 0.4638
vn 0.8650 0.2515 0.4342
vn 0.9445 0.2615 0.1990
vn 0.9265 0.3189 0.1997
vn 0.9132 0.3274 0.2426
vn 0.8868 0.2774 0.3696
vn 0.9367 0.2803 0.2100
vn 0.7610 0.6272 0.1659
vn 0.7732 0.6221 -0.1230
vn 0.9045 0.4069 -0.1279
vn 0.8945 0.4263 0.1350
vn 0.5226 0.8437 0.1227
vn 0.5389 0.8387 -0.0788
vn 0.6512 0.7475 -0.1312
vn 0.6340 0.7712 0.0573
vn 0.4380 0.8908 0.1209
vn 0.2208 0.7767 0.5899
vn 0.0617 0.7705 0.6344
vn 0.2596 0.8156 0.5170
vn 0.9951 0.0419 -0.0900
vn 0.9908 0.0353 -0.1306
vn 0.9778 0.0425 -0.2052
vn 0.9909 0.0483 -0.1255
vn 0.9844 0.1363 0.1112
vn 0.9787 0.1349 0.1549
vn 0.9852 0.0673 0.1579
vn 0.9955 0.0748 0.0584
vn 0.9557 0.1835 -0.2301
vn 0.9444 0.1702 -0.2814
vn 0.9141 0.2004 -0.3525
vn 0.9462 0.2161 -0.2408
vn 0.9376 0.2316 -0.2594
vn 0.8868 0.2058 -0.4139
vn 0.8732 0.2120 -0.4388
vn 0.9380 0.2409 -0.2493
vn 0.9378 0.2508 -0.2399
vn 0.8999 0.2320 -0.3692
vn 0.9171 0.2880 -0.2755
vn 0.9369 0.2925 -0.1914
vn 0.8977 0.3916 -0.2021
vn 0.9014 0.4271 0.0711
vn 0.7579 0.6481 0.0750
vn 0.7913 0.6066 -0.0769
vn 0.6555 0.7419 -0.1407
vn 0.6242 0.7763 0.0886
vn 0.5192 0.8534 0.0448
vn 0.5654 0.8098 -0.1566
vn 0.3378 0.7230 -0.6026
vn 0.4528 0.7053 -0.5455
vn 0.4853 0.8620 -0.1464
vn 0.4595 0.7412 -0.4893
vn -0.9985 -0.0426 0.0349
vn -0.9972 -0.0372 -0.0655
vn -0.9872 -0.0467 -0.1526
vn -0.9969 -0.0508 -0.0600
vn -0.9902 -0.0626 0.1245
vn -0.9773 -0.1266 0.1699
vn -0.9706 -0.1227 0.2073
vn -0.9782 -0.0591 0.1989
vn -0.9707 -0.2034 -0.1279
vn -0.9487 -0.1948 -0.2489
vn -0.9077 -0.2381 -0.3455
vn -0.9525 -0.2417 -0.1853
vn -0.9445 -0.2615 -0.1990
vn -0.8650 -0.2515 -0.4342
vn -0.8462 -0.2624 -0.4638
vn -0.9367 -0.2706 -0.2223
vn -0.9367 -0.2803 -0.2100
vn -0.8868 -0.2774 -0.3696
vn -0.9132 -0.3274 -0.2425
vn -0.9265 -0.3189 -0.1997
vn -0.8945 -0.4263 -0.1350
vn -0.9045 -0.4069 0.1279
vn -0.7732 -0.6221 0.1230
vn -0.7610 -0.6272 -0.1659
vn -0.6340 -0.7712 -0.0573
vn -0.6512 -0.7475 0.1312
vn -0.5389 -0.8387 0.0788
vn -0.5226 -0.8437 -0.1227
vn -0.0617 -0.7705 -0.6344
vn -0.2208 -0.7767 -0.5899
vn -0.4380 -0.8908 -0.1209
vn -0.2596 -0.8156 -0.5170
vn -0.9909 -0.0483 0.1255
vn -0.9778 -0.0425 0.2052
vn -0.9908 -0.0353 0.1306
vn -0.9951 -0.0419 0.0900
vn -0.9955 -0.0748 -0.0584
vn -0.9852 -0.0673 -0.1579
vn -0.9787 -0.1349 -0.1549
vn -0.9844 -0.1363 -0.1112
vn -0.9462 -0.2161 0.2408
vn -0.9141 -0.2004 0.3525
vn -0.9444 -0.1702 0.2814
vn -0.9557 -0.1835 0.2301
vn -0.9380 -0.2409 0.2493
vn -0.8732 -0.2120 0.4388
vn -0.8868 -0.2058 0.4139
vn -0.9376 -0.2316 0.2594
vn -0.9369 -0.2925 0.1914
vn -0.9171 -0.2880 0.2755
vn -0.8999 -0.2320 0.3692
vn -0.9378 -0.2508 0.2399
vn -0.7913 -0.6066 0.0769
vn -0.7579 -0.6481 -0.0750
vn -0.9014 -0.4271 -0.0711
vn -0.8977 -0.3916 0.2021
vn -0.5654 -0.8098 0.1566
vn -0.5192 -0.8534 -0.0448
vn -0.6242 -0.7763 -0.0886
vn -0.6555 -0.7419 0.1407
vn -0.4853 -0.8620 0.1464
vn -0.4528 -0.7053 0.5455
vn -0.3378 -0.7230 0.6026
vn -0.4595 -0.7412 0.4893
vn 0.9988 0.0449 0.0217
vn 0.9972 0.0324 0.0668
vn 0.9991 0.0229 -0.0349
vn 0.9991 0.0366 0.0216
vn 0.9758 0.0611 -0.2100
vn 0.9585 0.1079 -0.2638
vn 0.9759 0.1240 -0.1796
vn 0.9831 0.0700 -0.1689
vn 0.9504 0.2397 0.1982
vn 0.8753 0.2194 0.4310
vn 0.9264 0.1786 0.3315
vn 0.9634 0.1945 0.1845
vn 0.9390 0.2725 0.2097
vn 0.8432 0.2607 0.4701
vn 0.8521 0.2445 0.4627
vn 0.9403 0.2580 0.2218
vn 0.9344 0.3282 0.1386
vn 0.8697 0.3405 0.3572
vn 0.8346 0.2863 0.4707
vn 0.9388 0.2821 0.1977
vn 0.7686 0.6391 0.0269
vn 0.7536 0.6157 -0.2302
vn 0.8629 0.4696 0.1866
vn 0.8928 0.4235 0.1535
vn 0.5455 0.8031 -0.2395
vn 0.5522 0.8057 -0.2143
vn 0.6516 0.7480 -0.1262
vn 0.6300 0.7704 0.0985
vn 0.9988 0.0356 -0.0347
vn 0.9991 0.0229 -0.0347
vn 0.9908 0.0308 -0.1318
vn 0.9950 0.0435 -0.0901
vn 0.9833 0.1344 0.1225
vn 0.9665 0.1225 0.2256
vn 0.9873 0.0648 0.1450
vn 0.9918 0.0666 0.1093
vn 0.9668 0.1784 -0.1831
vn 0.9273 0.1509 -0.3426
vn 0.8935 0.1794 -0.4116
vn 0.9490 0.2153 -0.2303
vn 0.9427 0.2306 -0.2411
vn 0.8792 0.1982 -0.4333
vn 0.8756 0.2120 -0.4341
vn 0.9351 0.2413 -0.2596
vn 0.9352 0.2511 -0.2495
vn 0.8678 0.2321 -0.4393
vn 0.8875 0.2870 -0.3604
vn 0.9248 0.2939 -0.2415
vn 0.9011 0.3916 -0.1862
vn 0.8754 0.4258 -0.2288
vn 0.7148 0.6701 0.2000
vn 0.7772 0.5943 -0.2067
vn 0.6555 0.7485 -0.1002
vn 0.6235 0.7763 0.0927
vn 0.4859 0.8522 0.1940
vn 0.4692 0.8546 0.2223
vn -0.9991 -0.0366 -0.0216
vn -0.9991 -0.0229 0.0349
vn -0.9972 -0.0324 -0.0668
vn -0.9988 -0.0449 -0.0217
vn -0.9831 -0.0700 0.1689
vn -0.9759 -0.1240 0.1796
vn -0.9585 -0.1079 0.2638
vn -0.9758 -0.0611 0.2100
vn -0.9634 -0.1945 -0.1845
vn -0.9264 -0.1786 -0.3315
vn -0.8753 -0.2194 -0.4310
vn -0.9504 -0.2397 -0.1982
vn -0.9403 -0.2580 -0.2218
vn -0.8521 -0.2445 -0.4627
vn -0.8432 -0.2607 -0.4701
vn -0.9390 -0.2725 -0.2097
vn -0.9388 -0.2821 -0.1977
vn -0.8346 -0.2863 -0.4707
vn -0.8697 -0.3405 -0.3572
vn -0.9344 -0.3282 -0.1386
vn -0.8928 -0.4235 -0.1535
vn -0.8629 -0.4696 -0.1866
vn -0.7536 -0.6157 0.2302
vn -0.7686 -0.6391 -0.0269
vn -0.6300 -0.7704 -0.0985
vn -0.6516 -0.7480 0.1262
vn -0.5522 -0.8057 0.2143
vn -0.5455 -0.8031 0.2395
vn -0.9950 -0.0435 0.0901
vn -0.9908 -0.0308 0.1318
vn -0.9991 -0.0229 0.0347
vn -0.9988 -0.0356 0.0347
vn -0.9918 -0.0666 -0.1093
vn -0.9873 -0.0648 -0.1450
vn -0.9665 -0.1225 -0.2256
vn -0.9833 -0.1344 -0.1225
vn -0.9490 -0.2153 0.2303
vn -0.8935 -0.1794 0.4116
vn -0.9273 -0.1509 0.3426
vn -0.9668 -0.1784 0.1831
vn -0.9351 -0.2413 0.2596
vn -0.8756 -0.2120 0.4341
vn -0.8792 -0.1982 0.4333
vn -0.9427 -0.2306 0.2411
vn -0.9248 -0.2939 0.2415
vn -0.8875 -0.2870 0.3604
vn -0.8678 -0.2321 0.4393
vn -0.9352 -0.2511 0.2495
vn -0.7772 -0.5943 0.2067
vn -0.7148 -0.6701 -0.2000
vn -0.8754 -0.4258 0.2288
vn -0.9011 -0.3916 0.1862
vn -0.4692 -0.8546 -0.2223
vn -0.4859 -0.8522 -0.1940
vn -0.6235 -0.7763 -0.0927
vn -0.6555 -0.7485 0.1002
usemtl Material.001
s off
f 1/1/1 3/2/1 4/3/1
f 2/4/2 6/5/2 3/2/2
f 7/6/3 5/7/3 2/4/3
f 7/6/4 1/1/4 9/8/4
f 10/9/5 12/10/5 13/11/5
f 14/12/6 12/10/6 11/13/6
f 17/14/7 11/13/7 16/15/7
f 4/3/8 11/13/8 10/9/8
f 19/16/9 21/17/9 18/18/9
f 22/19/10 20/20/10 19/16/10
f 25/21/11 19/16/11 24/22/11
f 24/22/12 18/18/12 17/14/12
f 27/23/13 29/24/13 26/25/13
f 30/26/14 28/27/14 27/23/14
f 23/28/15 27/23/15 20/20/15
f 20/20/16 26/25/16 21/17/16
f 33/29/17 35/30/17 32/31/17
f 33/29/18 37/32/18 34/33/18
f 28/27/19 36/34/19 33/29/19
f 28/27/20 32/31/20 29/24/20
f 39/35/21 41/36/21 38/37/21
f 42/38/22 40/39/22 39/35/22
f 34/33/23 42/38/23 39/35/23
f 34/33/24 38/37/24 35/30/24
f 45/40/25 47/41/25 44/42/25
f 45/40/26 49/43/26 46/44/26
f 43/45/27 45/40/27 40/39/27
f 40/39/28 44/42/28 41/36/28
f 50/46/29 51/47/29 47/41/29
f 52/48/30 53/49/30 51/47/30
f 50/46/31 54/50/31 52/48/31
f 50/46/32 52/48/32 51/47/32
f 55/51/33 9/8/33 1/1/33
f 57/52/34 56/53/34 55/51/34
f 13/11/35 55/51/35 10/9/35
f 10/9/36 1/1/36 4/3/36
f 59/54/37 17/14/37 16/15/37
f 60/55/38 24/22/38 59/54/38
f 3/2/39 60/55/39 59/54/39
f 3/2/40 16/15/40 4/3/40
f 61/56/41 17/14/41 18/18/41
f 61/56/42 15/57/42 14/12/42
f 63/58/43 62/59/43 61/56/43
f 63/58/44 18/18/44 21/17/44
f 65/60/45 21/17/45 26/25/45
f 65/60/46 64/61/46 63/58/46
f 68/62/47 65/60/47 67/63/47
f 67/63/48 26/25/48 29/24/48
f 69/64/49 29/24/49 32/31/49
f 70/65/50 67/63/50 69/64/50
f 72/66/51 69/64/51 71/67/51
f 71/67/52 32/31/52 35/30/52
f 73/68/53 35/30/53 38/37/53
f 74/69/54 71/67/54 73/68/54
f 75/70/55 74/69/55 73/68/55
f 75/70/56 38/37/56 41/36/56
f 77/71/57 41/36/57 44/42/57
f 78/72/58 75/70/58 77/71/58
f 53/49/59 77/71/59 51/47/59
f 47/41/60 77/71/60 44/42/60
f 50/46/61 79/73/61 54/50/61
f 46/44/62 49/43/62 79/73/62
f 50/46/63 47/41/63 46/44/63
f 50/46/64 46/44/64 79/73/64
f 80/74/65 82/75/65 83/76/65
f 84/77/66 82/75/66 81/78/66
f 87/79/67 81/78/67 86/80/67
f 86/80/68 80/74/68 88/81/68
f 90/82/69 88/81/69 89/83/69
f 90/82/70 93/84/70 91/85/70
f 94/86/71 92/87/71 90/82/71
f 94/86/72 89/83/72 96/88/72
f 97/89/73 99/90/73 93/84/73
f 98/91/74 101/92/74 99/90/74
f 102/93/75 100/94/75 98/91/75
f 104/95/76 98/91/76 97/89/76
f 105/96/77 102/93/77 104/95/77
f 106/97/78 103/98/78 102/93/78
f 108/99/79 107/100/79 106/97/79
f 110/101/80 106/97/80 105/96/80
f 111/102/81 108/99/81 110/101/81
f 113/103/82 108/99/82 112/104/82
f 115/105/83 112/104/83 114/106/83
f 116/107/84 112/104/84 111/102/84
f 117/108/85 114/106/85 116/107/85
f 119/109/86 114/106/86 118/110/86
f 120/111/87 119/109/87 118/110/87
f 122/112/88 118/110/88 117/108/88
f 123/113/89 120/111/89 122/112/89
f 124/114/90 121/115/90 120/111/90
f 127/116/91 124/114/91 126/117/91
f 128/118/92 124/114/92 123/113/92
f 129/119/93 130/120/93 131/121/93
f 132/122/94 133/123/94 130/120/94
f 129/119/95 128/118/95 132/122/95
f 129/119/96 132/122/96 130/120/96
f 80/74/97 89/83/97 88/81/97
f 134/124/98 96/88/98 89/83/98
f 136/125/99 135/126/99 134/124/99
f 83/76/100 134/124/100 80/74/100
f 91/85/101 86/80/101 88/81/101
f 139/127/102 86/80/102 138/128/102
f 99/90/103 139/127/103 138/128/103
f 93/84/104 138/128/104 91/85/104
f 97/89/105 141/129/105 104/95/105
f 142/130/106 141/129/106 140/131/106
f 95/132/107 140/131/107 92/87/107
f 93/84/108 140/131/108 97/89/108
f 105/96/109 145/133/109 110/101/109
f 144/134/110 147/135/110 145/133/110
f 143/136/111 144/134/111 141/129/111
f 104/95/112 144/134/112 105/96/112
f 111/102/113 149/137/113 116/107/113
f 148/138/114 151/139/114 149/137/114
f 145/133/115 150/140/115 148/138/115
f 110/101/116 148/138/116 111/102/116
f 117/108/117 153/141/117 122/112/117
f 154/142/118 153/141/118 152/143/118
f 149/137/119 154/142/119 152/143/119
f 116/107/120 152/143/120 117/108/120
f 156/144/121 128/118/121 123/113/121
f 156/144/122 133/123/122 132/122/122
f 153/141/123 157/145/123 156/144/123
f 122/112/124 156/144/124 123/113/124
f 129/119/125 126/117/125 128/118/125
f 158/146/126 127/116/126 126/117/126
f 129/119/127 131/121/127 158/146/127
f 129/119/128 158/146/128 126/117/128
f 1/1/129 2/4/129 3/2/129
f 2/4/130 5/7/130 6/5/130
f 7/6/131 8/147/131 5/7/131
f 7/6/132 2/4/132 1/1/132
f 10/9/133 11/13/133 12/10/133
f 14/12/134 15/57/134 12/10/134
f 17/14/135 14/12/135 11/13/135
f 4/3/136 16/15/136 11/13/136
f 19/16/137 20/20/137 21/17/137
f 22/19/138 23/28/138 20/20/138
f 25/21/139 22/19/139 19/16/139
f 24/22/140 19/16/140 18/18/140
f 27/23/141 28/27/141 29/24/141
f 30/26/142 31/148/142 28/27/142
f 23/28/143 30/26/143 27/23/143
f 20/20/144 27/23/144 26/25/144
f 33/29/145 34/33/145 35/30/145
f 33/29/146 36/34/146 37/32/146
f 28/27/147 31/148/147 36/34/147
f 28/27/148 33/29/148 32/31/148
f 39/35/149 40/39/149 41/36/149
f 42/38/150 43/45/150 40/39/150
f 34/33/151 37/32/151 42/38/151
f 34/33/152 39/35/152 38/37/152
f 45/40/153 46/44/153 47/41/153
f 45/40/154 48/149/154 49/43/154
f 43/45/155 48/149/155 45/40/155
f 40/39/156 45/40/156 44/42/156
f 55/51/157 56/53/157 9/8/157
f 57/52/158 58/150/158 56/53/158
f 13/11/159 57/52/159 55/51/159
f 10/9/160 55/51/160 1/1/160
f 59/54/161 24/22/161 17/14/161
f 60/55/162 25/21/162 24/22/162
f 3/2/163 6/5/163 60/55/163
f 3/2/164 59/54/164 16/15/164
f 61/56/165 14/12/165 17/14/165
f 61/56/166 62/59/166 15/57/166
f 63/58/167 64/61/167 62/59/167
f 63/58/168 61/56/168 18/18/168
f 65/60/169 63/58/169 21/17/169
f 65/60/170 66/151/170 64/61/170
f 68/62/171 66/151/171 65/60/171
f 67/63/172 65/60/172 26/25/172
f 69/64/173 67/63/173 29/24/173
f 70/65/174 68/62/174 67/63/174
f 72/66/175 70/65/175 69/64/175
f 71/67/176 69/64/176 32/31/176
f 73/68/177 71/67/177 35/30/177
f 74/69/178 72/66/178 71/67/178
f 75/70/179 76/152/179 74/69/179
f 75/70/180 73/68/180 38/37/180
f 77/71/181 75/70/181 41/36/181
f 78/72/182 76/152/182 75/70/182
f 53/49/183 78/72/183 77/71/183
f 47/41/184 51/47/184 77/71/184
f 80/74/185 81/78/185 82/75/185
f 84/77/186 85/153/186 82/75/186
f 87/79/187 84/77/187 81/78/187
f 86/80/188 81/78/188 80/74/188
f 90/82/189 91/85/189 88/81/189
f 90/82/190 92/87/190 93/84/190
f 94/86/191 95/132/191 92/87/191
f 94/86/192 90/82/192 89/83/192
f 97/89/193 98/91/193 99/90/193
f 98/91/194 100/94/194 101/92/194
f 102/93/195 103/98/195 100/94/195
f 104/95/196 102/93/196 98/91/196
f 105/96/197 106/97/197 102/93/197
f 106/97/198 107/100/198 103/98/198
f 108/99/199 109/154/199 107/100/199
f 110/101/200 108/99/200 106/97/200
f 111/102/201 112/104/201 108/99/201
f 113/103/202 109/154/202 108/99/202
f 115/105/203 113/103/203 112/104/203
f 116/107/204 114/106/204 112/104/204
f 117/108/205 118/110/205 114/106/205
f 119/109/206 115/105/206 114/106/206
f 120/111/207 121/115/207 119/109/207
f 122/112/208 120/111/208 118/110/208
f 123/113/209 124/114/209 120/111/209
f 124/114/210 125/155/210 121/115/210
f 127/116/211 125/155/211 124/114/211
f 128/118/212 126/117/212 124/114/212
f 80/74/213 134/124/213 89/83/213
f 134/124/214 135/126/214 96/88/214
f 136/125/215 137/156/215 135/126/215
f 83/76/216 136/125/216 134/124/216
f 91/85/217 138/128/217 86/80/217
f 139/127/218 87/79/218 86/80/218
f 99/90/219 101/92/219 139/127/219
f 93/84/220 99/90/220 138/128/220
f 97/89/221 140/131/221 141/129/221
f 142/130/222 143/136/222 141/129/222
f 95/132/223 142/130/223 140/131/223
f 93/84/224 92/87/224 140/131/224
f 105/96/225 144/134/225 145/133/225
f 144/134/226 146/157/226 147/135/226
f 143/136/227 146/157/227 144/134/227
f 104/95/228 141/129/228 144/134/228
f 111/102/229 148/138/229 149/137/229
f 148/138/230 150/140/230 151/139/230
f 145/133/231 147/135/231 150/140/231
f 110/101/232 145/133/232 148/138/232
f 117/108/233 152/143/233 153/141/233
f 154/142/234 155/158/234 153/141/234
f 149/137/235 151/139/235 154/142/235
f 116/107/236 149/137/236 152/143/236
f 156/144/237 132/122/237 128/118/237
f 156/144/238 157/145/238 133/123/238
f 153/141/239 155/158/239 157/145/239
f 122/112/240 153/141/240 156/144/240
