# Blender v2.79 (sub 0) OBJ File: ''
# www.blender.org
mtllib small_0_low.mtl
o Grass_20.041
v 0.036202 0.002518 -0.001625
v -0.076706 0.404083 0.141314
v -0.034781 -0.000348 -0.006506
v -0.055885 0.669776 0.270721
v 0.036202 0.002518 -0.001625
v -0.076706 0.404083 0.141314
v -0.034781 -0.000348 -0.006506
v -0.055885 0.669776 0.270721
vt 0.954804 0.345691
vt 0.139683 0.711057
vt 0.505870 0.995832
vt 0.139683 0.711057
vt 0.954804 0.345691
vt 0.505870 0.995832
vt 0.049777 0.345259
vt 0.049777 0.345259
vn 0.0778 0.3570 -0.9309
vn 0.2983 0.3953 -0.8688
vn 0.3146 0.3956 -0.8628
vn -0.3035 -0.3936 0.8677
vn -0.0797 -0.3545 0.9317
vn -0.3146 -0.3956 0.8628
vn 0.0504 0.3475 -0.9363
vn -0.0504 -0.3475 0.9363
usemtl Material.001
s 1
f 1/1/1 2/2/2 4/3/3
f 6/4/4 5/5/5 8/6/6
f 3/7/7 2/2/2 1/1/1
f 5/5/5 6/4/4 7/8/8
